<svg width="21" height="21" viewBox="0 0 21 21" fill="none" xmlns="http://www.w3.org/2000/svg">
<path d="M15.2585 9.56106L15.2598 9.56086C17.0799 9.29319 18.4896 7.62159 18.4934 5.64112L15.2585 9.56106ZM15.2585 9.56106C15.2506 9.56223 15.2391 9.56326 15.2222 9.56326C15.1007 9.56326 14.9624 9.46492 14.9379 9.28522C14.9111 9.08159 15.0476 8.93277 15.185 8.91274L15.1856 8.91265M15.2585 9.56106L15.1856 8.91265M15.1856 8.91265C16.7602 8.68115 17.9144 7.2618 17.9168 5.64168V5.64092M15.1856 8.91265L17.9168 5.64092M17.9168 5.64092C17.9168 4.03343 16.8149 2.64478 15.2601 2.3778C15.1181 2.35263 14.987 2.19813 15.0183 1.99775C15.0485 1.80417 15.2105 1.70924 15.3459 1.73143C17.1534 2.04265 18.493 3.67157 18.4934 5.64108L17.9168 5.64092ZM8.01446 10.1645L8.01228 10.1646L7.9797 10.1646C5.57422 10.1646 3.65802 8.12086 3.65802 5.65878C3.65802 3.19669 5.57422 1.153 7.9797 1.153C10.3841 1.153 12.2998 3.19651 12.3004 5.6611M8.01446 10.1645L7.9797 9.66455C5.87231 9.66455 4.15802 7.86719 4.15802 5.65878C4.15802 3.45037 5.87231 1.653 7.9797 1.653C10.086 1.653 11.8004 3.45037 11.8004 5.66208C11.8045 6.72662 11.4125 7.73054 10.6957 8.48541M8.01446 10.1645C9.16746 10.1595 10.251 9.68312 11.0582 8.82971M8.01446 10.1645L10.6957 8.48541M12.3004 5.6611C12.3004 5.66143 12.3004 5.66175 12.3004 5.66208H11.8004L12.3004 5.66012C12.3004 5.66045 12.3004 5.66077 12.3004 5.6611ZM12.3004 5.6611C12.3048 6.85045 11.866 7.97906 11.0582 8.82971M11.0582 8.82971C11.0585 8.82944 11.0587 8.82918 11.059 8.82892L10.6957 8.48541M11.0582 8.82971L10.6957 8.48541M8.37477 20.5L7.55124 20.5C6.33812 20.4934 4.52156 20.433 3.01932 19.9449C2.27096 19.7017 1.63869 19.364 1.19791 18.9079C0.769104 18.4641 0.5 17.8875 0.5 17.102C0.5 16.3146 0.777323 15.7341 1.22052 15.2853C1.67624 14.8238 2.32769 14.4825 3.09099 14.237C4.62204 13.7446 6.44894 13.6841 7.58509 13.6775C7.58537 13.6775 7.58566 13.6775 7.58594 13.6775L7.85688 13.6767L7.858 13.6767L7.9797 13.6766C9.68861 13.6766 11.6102 13.7799 13.0916 14.2891C13.8279 14.5421 14.4194 14.8837 14.8239 15.3298C15.2182 15.7648 15.4594 16.3253 15.4594 17.0799C15.4594 17.8661 15.1822 18.4457 14.7391 18.8939C14.2834 19.3549 13.6319 19.6958 12.8686 19.9411C11.3376 20.4329 9.51096 20.4933 8.37477 20.5ZM8.37477 20.5H8.37638L8.37638 21M8.37477 20.5C8.37433 20.5 8.3739 20.5 8.37346 20.5L8.37638 21M8.37638 21L7.54992 21C5.12283 20.9868 0 20.7669 0 17.102C0 13.4122 5.30672 13.1908 7.58302 13.1775L7.9797 13.1766C11.4051 13.1766 15.9594 13.5811 15.9594 17.0799C15.9594 20.7656 10.6527 20.9867 8.37638 21ZM18.9047 17.6212L18.9044 17.6213C18.8718 17.6343 18.8399 17.6399 18.8096 17.6399C18.7067 17.6399 18.5921 17.5728 18.5432 17.437L18.5429 17.4363C18.4747 17.2481 18.5742 17.0612 18.7139 17.0059L18.7146 17.0056C19.2224 16.8039 19.5476 16.5519 19.7337 16.2589C19.9235 15.9603 19.9234 15.6864 19.9234 15.5709V15.5679C19.9234 15.0261 19.6024 14.623 19.156 14.3526C18.7242 14.0909 18.1255 13.9169 17.4055 13.8045C17.2636 13.7817 17.1301 13.6289 17.1582 13.4293C17.1852 13.2436 17.3466 13.1392 17.488 13.1567C18.8387 13.3695 19.5792 13.7922 19.9825 14.2204C20.3798 14.6425 20.5 15.1236 20.5 15.5679C20.5 15.902 20.4313 16.2769 20.2124 16.629C19.9962 16.9767 19.6093 17.3415 18.9047 17.6212ZM12.877 5.65878L12.877 5.66086C12.8827 7.03816 12.3738 8.33278 11.4511 9.30626L11.4506 9.30682C10.5313 10.2796 9.31071 10.8123 8.01449 10.8176H7.9797C5.30119 10.8176 3.08142 8.5249 3.08142 5.65878C3.08142 2.79266 5.30119 0.5 7.9797 0.5C10.6571 0.5 12.877 2.7926 12.877 5.65878ZM7.9797 14.3296C6.50807 14.3296 4.85371 14.4276 3.55262 14.7785C2.90376 14.9534 2.30122 15.2019 1.8518 15.5656C1.38743 15.9413 1.0766 16.4518 1.0766 17.102C1.0766 18.1664 1.8739 18.8536 3.0195 19.2554C4.17026 19.6591 5.83916 19.8478 7.9797 19.8478C10.1205 19.8478 11.79 19.6571 12.9414 19.2493C14.0895 18.8425 14.8828 18.1487 14.8828 17.0799C14.8828 16.0144 14.0863 15.3259 12.9402 14.9231C11.7893 14.5187 10.1203 14.3296 7.9797 14.3296Z" fill="#494949" stroke="#494949"/>
</svg>
