<svg width="37" height="37" viewBox="0 0 37 37" fill="none" xmlns="http://www.w3.org/2000/svg">
<g clip-path="url(#clip0_1_39)">
<path fill-rule="evenodd" clip-rule="evenodd" d="M7.9738 18.5C7.9738 17.2984 8.17325 16.1462 8.52966 15.0657L2.29459 10.3045C1.07937 12.7717 0.394867 15.5519 0.394867 18.5C0.394867 21.4458 1.07879 24.224 2.29198 26.6897L8.52359 21.9193C8.17065 20.8437 7.9738 19.6959 7.9738 18.5Z" fill="#FBBC05"/>
<path fill-rule="evenodd" clip-rule="evenodd" d="M18.9212 7.56823C21.5317 7.56823 23.8896 8.49323 25.7422 10.0068L31.1315 4.625C27.8474 1.76588 23.6369 0 18.9212 0C11.5998 0 5.30748 4.18678 2.29459 10.3045L8.52938 15.0656C9.96602 10.7049 14.0612 7.56823 18.9212 7.56823Z" fill="#EA4335"/>
<path fill-rule="evenodd" clip-rule="evenodd" d="M18.9212 29.4318C14.0615 29.4318 9.9663 26.2952 8.52966 21.9344L2.29459 26.6946C5.30748 32.8132 11.5998 37 18.9212 37C23.4398 37 27.7541 35.3954 30.9918 32.3892L25.0736 27.8139C23.4037 28.8658 21.3007 29.4318 18.9212 29.4318Z" fill="#34A853"/>
<path fill-rule="evenodd" clip-rule="evenodd" d="M36.6052 18.5C36.6052 17.4068 36.4366 16.2294 36.184 15.1365H18.9212V22.2841H28.858C28.3611 24.7212 27.0089 26.5946 25.0736 27.8139L30.9918 32.3892C34.393 29.2326 36.6052 24.5301 36.6052 18.5Z" fill="#4285F4"/>
</g>
<defs>
<clipPath id="clip0_1_39">
<rect width="37" height="37" fill="white"/>
</clipPath>
</defs>
</svg>
