<svg width="24" height="23" viewBox="0 0 24 23" fill="none" xmlns="http://www.w3.org/2000/svg">
<path d="M17.3641 3.19131C15.591 1.77281 13.3879 1 11.1172 1H4.125C3.42881 1 2.76113 1.22125 2.26884 1.61508C1.77656 2.0089 1.5 2.54305 1.5 3.1V19.9C1.5 20.457 1.77656 20.9911 2.26884 21.3849C2.76113 21.7787 3.42881 22 4.125 22H19.875C20.5712 22 21.2389 21.7787 21.7312 21.3849C22.2234 20.9911 22.5 20.457 22.5 19.9V12.1062C22.5 9.06841 21.1191 6.19528 18.747 4.29756L17.3641 3.19131Z" stroke="#494949" stroke-width="1.5" stroke-linecap="round" stroke-linejoin="round"/>
<path d="M14.7632 2V7C14.7632 8.10457 15.6586 9 16.7632 9H21.3948" stroke="#494949" stroke-width="1.5" stroke-linecap="round" stroke-linejoin="round"/>
<path d="M14.7631 13H5.92102" stroke="#494949" stroke-width="1.5" stroke-linecap="round" stroke-linejoin="round"/>
<path d="M14.7631 17H5.92102" stroke="#494949" stroke-width="1.5" stroke-linecap="round" stroke-linejoin="round"/>
<path d="M8.13155 9H7.02628H5.92102" stroke="#494949" stroke-width="1.5" stroke-linecap="round" stroke-linejoin="round"/>
</svg>
