<svg width="328" height="355" viewBox="0 0 328 355" fill="none" xmlns="http://www.w3.org/2000/svg">
<path d="M1.14894 11.416C1.14894 10.328 1.39427 9.352 1.88494 8.488C2.3756 7.61333 3.04227 6.93067 3.88494 6.44C4.73827 5.94933 5.68227 5.704 6.71694 5.704C7.93294 5.704 8.99427 5.99733 9.90094 6.584C10.8076 7.17067 11.4689 8.00267 11.8849 9.08H10.1409C9.8316 8.408 9.3836 7.89067 8.79694 7.528C8.22094 7.16533 7.5276 6.984 6.71694 6.984C5.93827 6.984 5.2396 7.16533 4.62094 7.528C4.00227 7.89067 3.51694 8.408 3.16494 9.08C2.81294 9.74133 2.63694 10.52 2.63694 11.416C2.63694 12.3013 2.81294 13.08 3.16494 13.752C3.51694 14.4133 4.00227 14.9253 4.62094 15.288C5.2396 15.6507 5.93827 15.832 6.71694 15.832C7.5276 15.832 8.22094 15.656 8.79694 15.304C9.3836 14.9413 9.8316 14.424 10.1409 13.752H11.8849C11.4689 14.8187 10.8076 15.6453 9.90094 16.232C8.99427 16.808 7.93294 17.096 6.71694 17.096C5.68227 17.096 4.73827 16.856 3.88494 16.376C3.04227 15.8853 2.3756 15.208 1.88494 14.344C1.39427 13.48 1.14894 12.504 1.14894 11.416ZM21.8283 8.232V17H20.3723V15.704C20.095 16.152 19.7056 16.504 19.2043 16.76C18.7136 17.0053 18.1696 17.128 17.5723 17.128C16.8896 17.128 16.2763 16.9893 15.7323 16.712C15.1883 16.424 14.7563 15.9973 14.4363 15.432C14.127 14.8667 13.9723 14.1787 13.9723 13.368V8.232H15.4123V13.176C15.4123 14.04 15.631 14.7067 16.0683 15.176C16.5056 15.6347 17.103 15.864 17.8603 15.864C18.639 15.864 19.2523 15.624 19.7003 15.144C20.1483 14.664 20.3723 13.9653 20.3723 13.048V8.232H21.8283ZM25.7427 9.656C25.9987 9.15467 26.3614 8.76533 26.8307 8.488C27.3107 8.21067 27.892 8.072 28.5747 8.072V9.576H28.1907C26.5587 9.576 25.7427 10.4613 25.7427 12.232V17H24.2867V8.232H25.7427V9.656ZM31.7114 9.656C31.9674 9.15467 32.3301 8.76533 32.7994 8.488C33.2794 8.21067 33.8608 8.072 34.5434 8.072V9.576H34.1594C32.5274 9.576 31.7114 10.4613 31.7114 12.232V17H30.2554V8.232H31.7114V9.656ZM44.2242 12.28C44.2242 12.5573 44.2082 12.8507 44.1762 13.16H37.1682C37.2215 14.024 37.5149 14.7013 38.0482 15.192C38.5922 15.672 39.2482 15.912 40.0162 15.912C40.6455 15.912 41.1682 15.768 41.5842 15.48C42.0109 15.1813 42.3095 14.7867 42.4802 14.296H44.0482C43.8135 15.1387 43.3442 15.8267 42.6402 16.36C41.9362 16.8827 41.0615 17.144 40.0162 17.144C39.1842 17.144 38.4375 16.9573 37.7762 16.584C37.1255 16.2107 36.6135 15.6827 36.2402 15C35.8669 14.3067 35.6802 13.5067 35.6802 12.6C35.6802 11.6933 35.8615 10.8987 36.2242 10.216C36.5869 9.53333 37.0935 9.01067 37.7442 8.648C38.4055 8.27467 39.1629 8.088 40.0162 8.088C40.8482 8.088 41.5842 8.26933 42.2242 8.632C42.8642 8.99467 43.3549 9.496 43.6962 10.136C44.0482 10.7653 44.2242 11.48 44.2242 12.28ZM42.7202 11.976C42.7202 11.4213 42.5975 10.9467 42.3522 10.552C42.1069 10.1467 41.7709 9.84267 41.3442 9.64C40.9282 9.42667 40.4642 9.32 39.9522 9.32C39.2162 9.32 38.5869 9.55467 38.0642 10.024C37.5522 10.4933 37.2589 11.144 37.1842 11.976H42.7202ZM50.4181 8.072C51.4847 8.072 52.3487 8.39733 53.0101 9.048C53.6714 9.688 54.0021 10.616 54.0021 11.832V17H52.5621V12.04C52.5621 11.1653 52.3434 10.4987 51.9061 10.04C51.4687 9.57067 50.8714 9.336 50.1141 9.336C49.3461 9.336 48.7327 9.576 48.2741 10.056C47.8261 10.536 47.6021 11.2347 47.6021 12.152V17H46.1461V8.232H47.6021V9.48C47.8901 9.032 48.2794 8.68533 48.7701 8.44C49.2714 8.19467 49.8207 8.072 50.4181 8.072ZM58.1564 9.432V14.6C58.1564 15.0267 58.2471 15.3307 58.4284 15.512C58.6098 15.6827 58.9244 15.768 59.3724 15.768H60.4444V17H59.1324C58.3218 17 57.7138 16.8133 57.3084 16.44C56.9031 16.0667 56.7004 15.4533 56.7004 14.6V9.432H55.5644V8.232H56.7004V6.024H58.1564V8.232H60.4444V9.432H58.1564ZM63.6646 5.16V17H62.2086V5.16H63.6646ZM73.6981 8.232L68.4181 21.128H66.9141L68.6421 16.904L65.1061 8.232H66.7221L69.4741 15.336L72.1941 8.232H73.6981ZM86.9793 8.232L81.6993 21.128H80.1953L81.9233 16.904L78.3873 8.232H80.0033L82.7553 15.336L85.4753 8.232H86.9793ZM92.2669 17.144C91.4456 17.144 90.6989 16.9573 90.0269 16.584C89.3656 16.2107 88.8429 15.6827 88.4589 15C88.0856 14.3067 87.8989 13.5067 87.8989 12.6C87.8989 11.704 88.0909 10.9147 88.4749 10.232C88.8696 9.53867 89.4029 9.01067 90.0749 8.648C90.7469 8.27467 91.4989 8.088 92.3309 8.088C93.1629 8.088 93.9149 8.27467 94.5869 8.648C95.2589 9.01067 95.7869 9.53333 96.1709 10.216C96.5656 10.8987 96.7629 11.6933 96.7629 12.6C96.7629 13.5067 96.5603 14.3067 96.1549 15C95.7603 15.6827 95.2216 16.2107 94.5389 16.584C93.8563 16.9573 93.0989 17.144 92.2669 17.144ZM92.2669 15.864C92.7896 15.864 93.2803 15.7413 93.7389 15.496C94.1976 15.2507 94.5656 14.8827 94.8429 14.392C95.1309 13.9013 95.2749 13.304 95.2749 12.6C95.2749 11.896 95.1363 11.2987 94.8589 10.808C94.5816 10.3173 94.2189 9.95467 93.7709 9.72C93.3229 9.47467 92.8376 9.352 92.3149 9.352C91.7816 9.352 91.2909 9.47467 90.8429 9.72C90.4056 9.95467 90.0536 10.3173 89.7869 10.808C89.5203 11.2987 89.3869 11.896 89.3869 12.6C89.3869 13.3147 89.5149 13.9173 89.7709 14.408C90.0376 14.8987 90.3896 15.2667 90.8269 15.512C91.2643 15.7467 91.7443 15.864 92.2669 15.864ZM106.453 8.232V17H104.997V15.704C104.72 16.152 104.331 16.504 103.829 16.76C103.339 17.0053 102.795 17.128 102.197 17.128C101.515 17.128 100.901 16.9893 100.357 16.712C99.8133 16.424 99.3813 15.9973 99.0613 15.432C98.752 14.8667 98.5973 14.1787 98.5973 13.368V8.232H100.037V13.176C100.037 14.04 100.256 14.7067 100.693 15.176C101.131 15.6347 101.728 15.864 102.485 15.864C103.264 15.864 103.877 15.624 104.325 15.144C104.773 14.664 104.997 13.9653 104.997 13.048V8.232H106.453ZM117.529 8.072C118.191 8.072 118.788 8.216 119.321 8.504C119.855 8.78133 120.271 9.20267 120.569 9.768C120.879 10.3333 121.033 11.0213 121.033 11.832V17H119.593V12.04C119.593 11.1653 119.375 10.4987 118.937 10.04C118.5 9.57067 117.903 9.336 117.145 9.336C116.377 9.336 115.764 9.576 115.305 10.056C114.857 10.536 114.633 11.2347 114.633 12.152V17H113.177V5.16H114.633V9.48C114.921 9.032 115.316 8.68533 115.817 8.44C116.329 8.19467 116.9 8.072 117.529 8.072ZM122.868 12.584C122.868 11.688 123.049 10.904 123.412 10.232C123.774 9.54933 124.27 9.02133 124.9 8.648C125.54 8.27467 126.249 8.088 127.028 8.088C127.796 8.088 128.462 8.25333 129.028 8.584C129.593 8.91467 130.014 9.33067 130.292 9.832V8.232H131.764V17H130.292V15.368C130.004 15.88 129.572 16.3067 128.996 16.648C128.43 16.9787 127.769 17.144 127.012 17.144C126.233 17.144 125.529 16.952 124.9 16.568C124.27 16.184 123.774 15.6453 123.412 14.952C123.049 14.2587 122.868 13.4693 122.868 12.584ZM130.292 12.6C130.292 11.9387 130.158 11.3627 129.892 10.872C129.625 10.3813 129.262 10.008 128.804 9.752C128.356 9.48533 127.86 9.352 127.316 9.352C126.772 9.352 126.276 9.48 125.828 9.736C125.38 9.992 125.022 10.3653 124.756 10.856C124.489 11.3467 124.356 11.9227 124.356 12.584C124.356 13.256 124.489 13.8427 124.756 14.344C125.022 14.8347 125.38 15.2133 125.828 15.48C126.276 15.736 126.772 15.864 127.316 15.864C127.86 15.864 128.356 15.736 128.804 15.48C129.262 15.2133 129.625 14.8347 129.892 14.344C130.158 13.8427 130.292 13.2613 130.292 12.6ZM137.488 15.656L140.208 8.232H141.76L138.32 17H136.624L133.184 8.232H134.752L137.488 15.656ZM151.193 12.28C151.193 12.5573 151.177 12.8507 151.145 13.16H144.137C144.19 14.024 144.484 14.7013 145.017 15.192C145.561 15.672 146.217 15.912 146.985 15.912C147.614 15.912 148.137 15.768 148.553 15.48C148.98 15.1813 149.278 14.7867 149.449 14.296H151.017C150.782 15.1387 150.313 15.8267 149.609 16.36C148.905 16.8827 148.03 17.144 146.985 17.144C146.153 17.144 145.406 16.9573 144.745 16.584C144.094 16.2107 143.582 15.6827 143.209 15C142.836 14.3067 142.649 13.5067 142.649 12.6C142.649 11.6933 142.83 10.8987 143.193 10.216C143.556 9.53333 144.062 9.01067 144.713 8.648C145.374 8.27467 146.132 8.088 146.985 8.088C147.817 8.088 148.553 8.26933 149.193 8.632C149.833 8.99467 150.324 9.496 150.665 10.136C151.017 10.7653 151.193 11.48 151.193 12.28ZM149.689 11.976C149.689 11.4213 149.566 10.9467 149.321 10.552C149.076 10.1467 148.74 9.84267 148.313 9.64C147.897 9.42667 147.433 9.32 146.921 9.32C146.185 9.32 145.556 9.55467 145.033 10.024C144.521 10.4933 144.228 11.144 144.153 11.976H149.689ZM161.652 8.072C162.719 8.072 163.583 8.39733 164.244 9.048C164.906 9.688 165.236 10.616 165.236 11.832V17H163.796V12.04C163.796 11.1653 163.578 10.4987 163.14 10.04C162.703 9.57067 162.106 9.336 161.348 9.336C160.58 9.336 159.967 9.576 159.508 10.056C159.06 10.536 158.836 11.2347 158.836 12.152V17H157.38V8.232H158.836V9.48C159.124 9.032 159.514 8.68533 160.004 8.44C160.506 8.19467 161.055 8.072 161.652 8.072ZM171.439 17.144C170.617 17.144 169.871 16.9573 169.199 16.584C168.537 16.2107 168.015 15.6827 167.631 15C167.257 14.3067 167.071 13.5067 167.071 12.6C167.071 11.704 167.263 10.9147 167.647 10.232C168.041 9.53867 168.575 9.01067 169.247 8.648C169.919 8.27467 170.671 8.088 171.503 8.088C172.335 8.088 173.087 8.27467 173.759 8.648C174.431 9.01067 174.959 9.53333 175.343 10.216C175.737 10.8987 175.935 11.6933 175.935 12.6C175.935 13.5067 175.732 14.3067 175.327 15C174.932 15.6827 174.393 16.2107 173.711 16.584C173.028 16.9573 172.271 17.144 171.439 17.144ZM171.439 15.864C171.961 15.864 172.452 15.7413 172.911 15.496C173.369 15.2507 173.737 14.8827 174.015 14.392C174.303 13.9013 174.447 13.304 174.447 12.6C174.447 11.896 174.308 11.2987 174.031 10.808C173.753 10.3173 173.391 9.95467 172.943 9.72C172.495 9.47467 172.009 9.352 171.487 9.352C170.953 9.352 170.463 9.47467 170.015 9.72C169.577 9.95467 169.225 10.3173 168.959 10.808C168.692 11.2987 168.559 11.896 168.559 12.6C168.559 13.3147 168.687 13.9173 168.943 14.408C169.209 14.8987 169.561 15.2667 169.999 15.512C170.436 15.7467 170.916 15.864 171.439 15.864ZM179.625 9.432V14.6C179.625 15.0267 179.716 15.3307 179.897 15.512C180.079 15.6827 180.393 15.768 180.841 15.768H181.913V17H180.601C179.791 17 179.183 16.8133 178.777 16.44C178.372 16.0667 178.169 15.4533 178.169 14.6V9.432H177.033V8.232H178.169V6.024H179.625V8.232H181.913V9.432H179.625ZM187.399 12.584C187.399 11.688 187.58 10.904 187.943 10.232C188.306 9.54933 188.802 9.02133 189.431 8.648C190.071 8.27467 190.78 8.088 191.559 8.088C192.327 8.088 192.994 8.25333 193.559 8.584C194.124 8.91467 194.546 9.33067 194.823 9.832V8.232H196.295V17H194.823V15.368C194.535 15.88 194.103 16.3067 193.527 16.648C192.962 16.9787 192.3 17.144 191.543 17.144C190.764 17.144 190.06 16.952 189.431 16.568C188.802 16.184 188.306 15.6453 187.943 14.952C187.58 14.2587 187.399 13.4693 187.399 12.584ZM194.823 12.6C194.823 11.9387 194.69 11.3627 194.423 10.872C194.156 10.3813 193.794 10.008 193.335 9.752C192.887 9.48533 192.391 9.352 191.847 9.352C191.303 9.352 190.807 9.48 190.359 9.736C189.911 9.992 189.554 10.3653 189.287 10.856C189.02 11.3467 188.887 11.9227 188.887 12.584C188.887 13.256 189.02 13.8427 189.287 14.344C189.554 14.8347 189.911 15.2133 190.359 15.48C190.807 15.736 191.303 15.864 191.847 15.864C192.391 15.864 192.887 15.736 193.335 15.48C193.794 15.2133 194.156 14.8347 194.423 14.344C194.69 13.8427 194.823 13.2613 194.823 12.6ZM198.211 12.584C198.211 11.688 198.393 10.904 198.755 10.232C199.118 9.54933 199.614 9.02133 200.243 8.648C200.883 8.27467 201.598 8.088 202.387 8.088C203.07 8.088 203.705 8.248 204.291 8.568C204.878 8.87733 205.326 9.288 205.635 9.8V5.16H207.107V17H205.635V15.352C205.347 15.8747 204.921 16.3067 204.355 16.648C203.79 16.9787 203.129 17.144 202.371 17.144C201.593 17.144 200.883 16.952 200.243 16.568C199.614 16.184 199.118 15.6453 198.755 14.952C198.393 14.2587 198.211 13.4693 198.211 12.584ZM205.635 12.6C205.635 11.9387 205.502 11.3627 205.235 10.872C204.969 10.3813 204.606 10.008 204.147 9.752C203.699 9.48533 203.203 9.352 202.659 9.352C202.115 9.352 201.619 9.48 201.171 9.736C200.723 9.992 200.366 10.3653 200.099 10.856C199.833 11.3467 199.699 11.9227 199.699 12.584C199.699 13.256 199.833 13.8427 200.099 14.344C200.366 14.8347 200.723 15.2133 201.171 15.48C201.619 15.736 202.115 15.864 202.659 15.864C203.203 15.864 203.699 15.736 204.147 15.48C204.606 15.2133 204.969 14.8347 205.235 14.344C205.502 13.8427 205.635 13.2613 205.635 12.6ZM209.024 12.584C209.024 11.688 209.205 10.904 209.568 10.232C209.931 9.54933 210.427 9.02133 211.056 8.648C211.696 8.27467 212.411 8.088 213.2 8.088C213.883 8.088 214.517 8.248 215.104 8.568C215.691 8.87733 216.139 9.288 216.448 9.8V5.16H217.92V17H216.448V15.352C216.16 15.8747 215.733 16.3067 215.168 16.648C214.603 16.9787 213.941 17.144 213.184 17.144C212.405 17.144 211.696 16.952 211.056 16.568C210.427 16.184 209.931 15.6453 209.568 14.952C209.205 14.2587 209.024 13.4693 209.024 12.584ZM216.448 12.6C216.448 11.9387 216.315 11.3627 216.048 10.872C215.781 10.3813 215.419 10.008 214.96 9.752C214.512 9.48533 214.016 9.352 213.472 9.352C212.928 9.352 212.432 9.48 211.984 9.736C211.536 9.992 211.179 10.3653 210.912 10.856C210.645 11.3467 210.512 11.9227 210.512 12.584C210.512 13.256 210.645 13.8427 210.912 14.344C211.179 14.8347 211.536 15.2133 211.984 15.48C212.432 15.736 212.928 15.864 213.472 15.864C214.016 15.864 214.512 15.736 214.96 15.48C215.419 15.2133 215.781 14.8347 216.048 14.344C216.315 13.8427 216.448 13.2613 216.448 12.6ZM228.38 12.28C228.38 12.5573 228.364 12.8507 228.332 13.16H221.324C221.378 14.024 221.671 14.7013 222.204 15.192C222.748 15.672 223.404 15.912 224.172 15.912C224.802 15.912 225.324 15.768 225.74 15.48C226.167 15.1813 226.466 14.7867 226.636 14.296H228.204C227.97 15.1387 227.5 15.8267 226.796 16.36C226.092 16.8827 225.218 17.144 224.172 17.144C223.34 17.144 222.594 16.9573 221.932 16.584C221.282 16.2107 220.77 15.6827 220.396 15C220.023 14.3067 219.836 13.5067 219.836 12.6C219.836 11.6933 220.018 10.8987 220.38 10.216C220.743 9.53333 221.25 9.01067 221.9 8.648C222.562 8.27467 223.319 8.088 224.172 8.088C225.004 8.088 225.74 8.26933 226.38 8.632C227.02 8.99467 227.511 9.496 227.852 10.136C228.204 10.7653 228.38 11.48 228.38 12.28ZM226.876 11.976C226.876 11.4213 226.754 10.9467 226.508 10.552C226.263 10.1467 225.927 9.84267 225.5 9.64C225.084 9.42667 224.62 9.32 224.108 9.32C223.372 9.32 222.743 9.55467 222.22 10.024C221.708 10.4933 221.415 11.144 221.34 11.976H226.876ZM229.758 12.584C229.758 11.688 229.94 10.904 230.302 10.232C230.665 9.54933 231.161 9.02133 231.79 8.648C232.43 8.27467 233.145 8.088 233.934 8.088C234.617 8.088 235.252 8.248 235.838 8.568C236.425 8.87733 236.873 9.288 237.182 9.8V5.16H238.654V17H237.182V15.352C236.894 15.8747 236.468 16.3067 235.902 16.648C235.337 16.9787 234.676 17.144 233.918 17.144C233.14 17.144 232.43 16.952 231.79 16.568C231.161 16.184 230.665 15.6453 230.302 14.952C229.94 14.2587 229.758 13.4693 229.758 12.584ZM237.182 12.6C237.182 11.9387 237.049 11.3627 236.782 10.872C236.516 10.3813 236.153 10.008 235.694 9.752C235.246 9.48533 234.75 9.352 234.206 9.352C233.662 9.352 233.166 9.48 232.718 9.736C232.27 9.992 231.913 10.3653 231.646 10.856C231.38 11.3467 231.246 11.9227 231.246 12.584C231.246 13.256 231.38 13.8427 231.646 14.344C231.913 14.8347 232.27 15.2133 232.718 15.48C233.166 15.736 233.662 15.864 234.206 15.864C234.75 15.864 235.246 15.736 235.694 15.48C236.153 15.2133 236.516 14.8347 236.782 14.344C237.049 13.8427 237.182 13.2613 237.182 12.6ZM244.836 12.584C244.836 11.688 245.018 10.904 245.38 10.232C245.743 9.54933 246.239 9.02133 246.868 8.648C247.508 8.27467 248.218 8.088 248.996 8.088C249.764 8.088 250.431 8.25333 250.996 8.584C251.562 8.91467 251.983 9.33067 252.26 9.832V8.232H253.732V17H252.26V15.368C251.972 15.88 251.54 16.3067 250.964 16.648C250.399 16.9787 249.738 17.144 248.98 17.144C248.202 17.144 247.498 16.952 246.868 16.568C246.239 16.184 245.743 15.6453 245.38 14.952C245.018 14.2587 244.836 13.4693 244.836 12.584ZM252.26 12.6C252.26 11.9387 252.127 11.3627 251.86 10.872C251.594 10.3813 251.231 10.008 250.772 9.752C250.324 9.48533 249.828 9.352 249.284 9.352C248.74 9.352 248.244 9.48 247.796 9.736C247.348 9.992 246.991 10.3653 246.724 10.856C246.458 11.3467 246.324 11.9227 246.324 12.584C246.324 13.256 246.458 13.8427 246.724 14.344C246.991 14.8347 247.348 15.2133 247.796 15.48C248.244 15.736 248.74 15.864 249.284 15.864C249.828 15.864 250.324 15.736 250.772 15.48C251.231 15.2133 251.594 14.8347 251.86 14.344C252.127 13.8427 252.26 13.2613 252.26 12.6ZM260.465 8.072C261.532 8.072 262.396 8.39733 263.057 9.048C263.718 9.688 264.049 10.616 264.049 11.832V17H262.609V12.04C262.609 11.1653 262.39 10.4987 261.953 10.04C261.516 9.57067 260.918 9.336 260.161 9.336C259.393 9.336 258.78 9.576 258.321 10.056C257.873 10.536 257.649 11.2347 257.649 12.152V17H256.193V8.232H257.649V9.48C257.937 9.032 258.326 8.68533 258.817 8.44C259.318 8.19467 259.868 8.072 260.465 8.072ZM273.979 8.232L268.699 21.128H267.195L268.923 16.904L265.387 8.232H267.003L269.755 15.336L272.475 8.232H273.979ZM284.061 8.072C284.722 8.072 285.319 8.216 285.853 8.504C286.386 8.78133 286.802 9.20267 287.101 9.768C287.41 10.3333 287.565 11.0213 287.565 11.832V17H286.125V12.04C286.125 11.1653 285.906 10.4987 285.469 10.04C285.031 9.57067 284.434 9.336 283.677 9.336C282.909 9.336 282.295 9.576 281.837 10.056C281.389 10.536 281.165 11.2347 281.165 12.152V17H279.709V5.16H281.165V9.48C281.453 9.032 281.847 8.68533 282.349 8.44C282.861 8.19467 283.431 8.072 284.061 8.072ZM289.399 12.584C289.399 11.688 289.58 10.904 289.943 10.232C290.306 9.54933 290.802 9.02133 291.431 8.648C292.071 8.27467 292.78 8.088 293.559 8.088C294.327 8.088 294.994 8.25333 295.559 8.584C296.124 8.91467 296.546 9.33067 296.823 9.832V8.232H298.295V17H296.823V15.368C296.535 15.88 296.103 16.3067 295.527 16.648C294.962 16.9787 294.3 17.144 293.543 17.144C292.764 17.144 292.06 16.952 291.431 16.568C290.802 16.184 290.306 15.6453 289.943 14.952C289.58 14.2587 289.399 13.4693 289.399 12.584ZM296.823 12.6C296.823 11.9387 296.69 11.3627 296.423 10.872C296.156 10.3813 295.794 10.008 295.335 9.752C294.887 9.48533 294.391 9.352 293.847 9.352C293.303 9.352 292.807 9.48 292.359 9.736C291.911 9.992 291.554 10.3653 291.287 10.856C291.02 11.3467 290.887 11.9227 290.887 12.584C290.887 13.256 291.02 13.8427 291.287 14.344C291.554 14.8347 291.911 15.2133 292.359 15.48C292.807 15.736 293.303 15.864 293.847 15.864C294.391 15.864 294.887 15.736 295.335 15.48C295.794 15.2133 296.156 14.8347 296.423 14.344C296.69 13.8427 296.823 13.2613 296.823 12.6ZM302.211 9.864C302.51 9.34133 302.947 8.91467 303.523 8.584C304.099 8.25333 304.755 8.088 305.491 8.088C306.281 8.088 306.99 8.27467 307.619 8.648C308.249 9.02133 308.745 9.54933 309.107 10.232C309.47 10.904 309.651 11.688 309.651 12.584C309.651 13.4693 309.47 14.2587 309.107 14.952C308.745 15.6453 308.243 16.184 307.603 16.568C306.974 16.952 306.27 17.144 305.491 17.144C304.734 17.144 304.067 16.9787 303.491 16.648C302.926 16.3173 302.499 15.896 302.211 15.384V17H300.755V5.16H302.211V9.864ZM308.163 12.584C308.163 11.9227 308.03 11.3467 307.763 10.856C307.497 10.3653 307.134 9.992 306.675 9.736C306.227 9.48 305.731 9.352 305.187 9.352C304.654 9.352 304.158 9.48533 303.699 9.752C303.251 10.008 302.889 10.3867 302.611 10.888C302.345 11.3787 302.211 11.9493 302.211 12.6C302.211 13.2613 302.345 13.8427 302.611 14.344C302.889 14.8347 303.251 15.2133 303.699 15.48C304.158 15.736 304.654 15.864 305.187 15.864C305.731 15.864 306.227 15.736 306.675 15.48C307.134 15.2133 307.497 14.8347 307.763 14.344C308.03 13.8427 308.163 13.256 308.163 12.584ZM312.32 6.808C312.043 6.808 311.808 6.712 311.616 6.52C311.424 6.328 311.328 6.09333 311.328 5.816C311.328 5.53867 311.424 5.304 311.616 5.112C311.808 4.92 312.043 4.824 312.32 4.824C312.587 4.824 312.811 4.92 312.992 5.112C313.184 5.304 313.28 5.53867 313.28 5.816C313.28 6.09333 313.184 6.328 312.992 6.52C312.811 6.712 312.587 6.808 312.32 6.808ZM313.024 8.232V17H311.568V8.232H313.024ZM317.281 9.432V14.6C317.281 15.0267 317.372 15.3307 317.553 15.512C317.735 15.6827 318.049 15.768 318.497 15.768H319.569V17H318.257C317.447 17 316.839 16.8133 316.433 16.44C316.028 16.0667 315.825 15.4533 315.825 14.6V9.432H314.689V8.232H315.825V6.024H317.281V8.232H319.569V9.432H317.281ZM322.838 14.984L321.046 19.288H320.07L321.238 14.984H322.838ZM21.0115 37.52H16.1475L15.2515 40H13.7155L17.7475 28.912H19.4275L23.4435 40H21.9075L21.0115 37.52ZM20.5955 36.336L18.5795 30.704L16.5635 36.336H20.5955ZM24.6568 35.584C24.6568 34.688 24.8381 33.904 25.2008 33.232C25.5634 32.5493 26.0594 32.0213 26.6888 31.648C27.3288 31.2747 28.0434 31.088 28.8328 31.088C29.5154 31.088 30.1501 31.248 30.7368 31.568C31.3234 31.8773 31.7714 32.288 32.0808 32.8V28.16H33.5528V40H32.0808V38.352C31.7928 38.8747 31.3661 39.3067 30.8008 39.648C30.2354 39.9787 29.5741 40.144 28.8168 40.144C28.0381 40.144 27.3288 39.952 26.6888 39.568C26.0594 39.184 25.5634 38.6453 25.2008 37.952C24.8381 37.2587 24.6568 36.4693 24.6568 35.584ZM32.0808 35.6C32.0808 34.9387 31.9474 34.3627 31.6808 33.872C31.4141 33.3813 31.0514 33.008 30.5928 32.752C30.1448 32.4853 29.6488 32.352 29.1048 32.352C28.5608 32.352 28.0648 32.48 27.6168 32.736C27.1688 32.992 26.8114 33.3653 26.5448 33.856C26.2781 34.3467 26.1448 34.9227 26.1448 35.584C26.1448 36.256 26.2781 36.8427 26.5448 37.344C26.8114 37.8347 27.1688 38.2133 27.6168 38.48C28.0648 38.736 28.5608 38.864 29.1048 38.864C29.6488 38.864 30.1448 38.736 30.5928 38.48C31.0514 38.2133 31.4141 37.8347 31.6808 37.344C31.9474 36.8427 32.0808 36.2613 32.0808 35.6ZM35.4693 35.584C35.4693 34.688 35.6506 33.904 36.0133 33.232C36.3759 32.5493 36.8719 32.0213 37.5013 31.648C38.1413 31.2747 38.8559 31.088 39.6453 31.088C40.3279 31.088 40.9626 31.248 41.5493 31.568C42.1359 31.8773 42.5839 32.288 42.8933 32.8V28.16H44.3653V40H42.8933V38.352C42.6053 38.8747 42.1786 39.3067 41.6133 39.648C41.0479 39.9787 40.3866 40.144 39.6293 40.144C38.8506 40.144 38.1413 39.952 37.5013 39.568C36.8719 39.184 36.3759 38.6453 36.0133 37.952C35.6506 37.2587 35.4693 36.4693 35.4693 35.584ZM42.8933 35.6C42.8933 34.9387 42.7599 34.3627 42.4933 33.872C42.2266 33.3813 41.8639 33.008 41.4053 32.752C40.9573 32.4853 40.4613 32.352 39.9173 32.352C39.3733 32.352 38.8773 32.48 38.4293 32.736C37.9813 32.992 37.6239 33.3653 37.3573 33.856C37.0906 34.3467 36.9573 34.9227 36.9573 35.584C36.9573 36.256 37.0906 36.8427 37.3573 37.344C37.6239 37.8347 37.9813 38.2133 38.4293 38.48C38.8773 38.736 39.3733 38.864 39.9173 38.864C40.4613 38.864 40.9573 38.736 41.4053 38.48C41.8639 38.2133 42.2266 37.8347 42.4933 37.344C42.7599 36.8427 42.8933 36.2613 42.8933 35.6ZM58.6434 31.232L53.3634 44.128H51.8594L53.5874 39.904L50.0514 31.232H51.6674L54.4194 38.336L57.1394 31.232H58.6434ZM63.931 40.144C63.1097 40.144 62.363 39.9573 61.691 39.584C61.0297 39.2107 60.507 38.6827 60.123 38C59.7497 37.3067 59.563 36.5067 59.563 35.6C59.563 34.704 59.755 33.9147 60.139 33.232C60.5337 32.5387 61.067 32.0107 61.739 31.648C62.411 31.2747 63.163 31.088 63.995 31.088C64.827 31.088 65.579 31.2747 66.251 31.648C66.923 32.0107 67.451 32.5333 67.835 33.216C68.2297 33.8987 68.427 34.6933 68.427 35.6C68.427 36.5067 68.2243 37.3067 67.819 38C67.4243 38.6827 66.8857 39.2107 66.203 39.584C65.5203 39.9573 64.763 40.144 63.931 40.144ZM63.931 38.864C64.4537 38.864 64.9443 38.7413 65.403 38.496C65.8617 38.2507 66.2297 37.8827 66.507 37.392C66.795 36.9013 66.939 36.304 66.939 35.6C66.939 34.896 66.8003 34.2987 66.523 33.808C66.2457 33.3173 65.883 32.9547 65.435 32.72C64.987 32.4747 64.5017 32.352 63.979 32.352C63.4457 32.352 62.955 32.4747 62.507 32.72C62.0697 32.9547 61.7177 33.3173 61.451 33.808C61.1843 34.2987 61.051 34.896 61.051 35.6C61.051 36.3147 61.179 36.9173 61.435 37.408C61.7017 37.8987 62.0537 38.2667 62.491 38.512C62.9283 38.7467 63.4083 38.864 63.931 38.864ZM78.1174 31.232V40H76.6614V38.704C76.384 39.152 75.9947 39.504 75.4934 39.76C75.0027 40.0053 74.4587 40.128 73.8614 40.128C73.1787 40.128 72.5654 39.9893 72.0214 39.712C71.4774 39.424 71.0454 38.9973 70.7254 38.432C70.416 37.8667 70.2614 37.1787 70.2614 36.368V31.232H71.7014V36.176C71.7014 37.04 71.92 37.7067 72.3574 38.176C72.7947 38.6347 73.392 38.864 74.1494 38.864C74.928 38.864 75.5414 38.624 75.9894 38.144C76.4374 37.664 76.6614 36.9653 76.6614 36.048V31.232H78.1174ZM82.0318 32.656C82.2878 32.1547 82.6504 31.7653 83.1198 31.488C83.5998 31.2107 84.1811 31.072 84.8638 31.072V32.576H84.4798C82.8478 32.576 82.0318 33.4613 82.0318 35.232V40H80.5758V31.232H82.0318V32.656ZM95.1621 31.072C95.8235 31.072 96.4208 31.216 96.9541 31.504C97.4875 31.7813 97.9035 32.2027 98.2021 32.768C98.5115 33.3333 98.6661 34.0213 98.6661 34.832V40H97.2261V35.04C97.2261 34.1653 97.0075 33.4987 96.5701 33.04C96.1328 32.5707 95.5355 32.336 94.7781 32.336C94.0101 32.336 93.3968 32.576 92.9381 33.056C92.4901 33.536 92.2661 34.2347 92.2661 35.152V40H90.8101V28.16H92.2661V32.48C92.5541 32.032 92.9488 31.6853 93.4501 31.44C93.9621 31.1947 94.5328 31.072 95.1621 31.072ZM100.501 35.584C100.501 34.688 100.682 33.904 101.045 33.232C101.407 32.5493 101.903 32.0213 102.533 31.648C103.173 31.2747 103.882 31.088 104.661 31.088C105.429 31.088 106.095 31.2533 106.661 31.584C107.226 31.9147 107.647 32.3307 107.925 32.832V31.232H109.397V40H107.925V38.368C107.637 38.88 107.205 39.3067 106.629 39.648C106.063 39.9787 105.402 40.144 104.645 40.144C103.866 40.144 103.162 39.952 102.533 39.568C101.903 39.184 101.407 38.6453 101.045 37.952C100.682 37.2587 100.501 36.4693 100.501 35.584ZM107.925 35.6C107.925 34.9387 107.791 34.3627 107.525 33.872C107.258 33.3813 106.895 33.008 106.437 32.752C105.989 32.4853 105.493 32.352 104.949 32.352C104.405 32.352 103.909 32.48 103.461 32.736C103.013 32.992 102.655 33.3653 102.389 33.856C102.122 34.3467 101.989 34.9227 101.989 35.584C101.989 36.256 102.122 36.8427 102.389 37.344C102.655 37.8347 103.013 38.2133 103.461 38.48C103.909 38.736 104.405 38.864 104.949 38.864C105.493 38.864 105.989 38.736 106.437 38.48C106.895 38.2133 107.258 37.8347 107.525 37.344C107.791 36.8427 107.925 36.2613 107.925 35.6ZM113.313 32.864C113.612 32.3413 114.049 31.9147 114.625 31.584C115.201 31.2533 115.857 31.088 116.593 31.088C117.382 31.088 118.092 31.2747 118.721 31.648C119.35 32.0213 119.846 32.5493 120.209 33.232C120.572 33.904 120.753 34.688 120.753 35.584C120.753 36.4693 120.572 37.2587 120.209 37.952C119.846 38.6453 119.345 39.184 118.705 39.568C118.076 39.952 117.372 40.144 116.593 40.144C115.836 40.144 115.169 39.9787 114.593 39.648C114.028 39.3173 113.601 38.896 113.313 38.384V40H111.857V28.16H113.313V32.864ZM119.265 35.584C119.265 34.9227 119.132 34.3467 118.865 33.856C118.598 33.3653 118.236 32.992 117.777 32.736C117.329 32.48 116.833 32.352 116.289 32.352C115.756 32.352 115.26 32.4853 114.801 32.752C114.353 33.008 113.99 33.3867 113.713 33.888C113.446 34.3787 113.313 34.9493 113.313 35.6C113.313 36.2613 113.446 36.8427 113.713 37.344C113.99 37.8347 114.353 38.2133 114.801 38.48C115.26 38.736 115.756 38.864 116.289 38.864C116.833 38.864 117.329 38.736 117.777 38.48C118.236 38.2133 118.598 37.8347 118.865 37.344C119.132 36.8427 119.265 36.256 119.265 35.584ZM123.422 29.808C123.144 29.808 122.91 29.712 122.718 29.52C122.526 29.328 122.43 29.0933 122.43 28.816C122.43 28.5387 122.526 28.304 122.718 28.112C122.91 27.92 123.144 27.824 123.422 27.824C123.688 27.824 123.912 27.92 124.094 28.112C124.286 28.304 124.382 28.5387 124.382 28.816C124.382 29.0933 124.286 29.328 124.094 29.52C123.912 29.712 123.688 29.808 123.422 29.808ZM124.126 31.232V40H122.67V31.232H124.126ZM128.383 32.432V37.6C128.383 38.0267 128.474 38.3307 128.655 38.512C128.836 38.6827 129.151 38.768 129.599 38.768H130.671V40H129.359C128.548 40 127.94 39.8133 127.535 39.44C127.13 39.0667 126.927 38.4533 126.927 37.6V32.432H125.791V31.232H126.927V29.024H128.383V31.232H130.671V32.432H128.383ZM135.539 40.144C134.867 40.144 134.264 40.032 133.731 39.808C133.198 39.5733 132.776 39.2533 132.467 38.848C132.158 38.432 131.987 37.9573 131.955 37.424H133.459C133.502 37.8613 133.704 38.2187 134.067 38.496C134.44 38.7733 134.926 38.912 135.523 38.912C136.078 38.912 136.515 38.7893 136.835 38.544C137.155 38.2987 137.315 37.9893 137.315 37.616C137.315 37.232 137.144 36.9493 136.803 36.768C136.462 36.576 135.934 36.3893 135.219 36.208C134.568 36.0373 134.035 35.8667 133.619 35.696C133.214 35.5147 132.862 35.2533 132.563 34.912C132.275 34.56 132.131 34.1013 132.131 33.536C132.131 33.088 132.264 32.6773 132.531 32.304C132.798 31.9307 133.176 31.6373 133.667 31.424C134.158 31.2 134.718 31.088 135.347 31.088C136.318 31.088 137.102 31.3333 137.699 31.824C138.296 32.3147 138.616 32.9867 138.659 33.84H137.203C137.171 33.3813 136.984 33.0133 136.643 32.736C136.312 32.4587 135.864 32.32 135.299 32.32C134.776 32.32 134.36 32.432 134.051 32.656C133.742 32.88 133.587 33.1733 133.587 33.536C133.587 33.824 133.678 34.064 133.859 34.256C134.051 34.4373 134.286 34.5867 134.563 34.704C134.851 34.8107 135.246 34.9333 135.747 35.072C136.376 35.2427 136.888 35.4133 137.283 35.584C137.678 35.744 138.014 35.9893 138.291 36.32C138.579 36.6507 138.728 37.0827 138.739 37.616C138.739 38.096 138.606 38.528 138.339 38.912C138.072 39.296 137.694 39.6 137.203 39.824C136.723 40.0373 136.168 40.144 135.539 40.144ZM153.62 40L152.164 38.528C151.62 39.0933 151.039 39.5147 150.42 39.792C149.801 40.0587 149.103 40.192 148.324 40.192C147.556 40.192 146.873 40.0533 146.276 39.776C145.689 39.4987 145.231 39.104 144.9 38.592C144.58 38.08 144.42 37.4827 144.42 36.8C144.42 36.0213 144.639 35.3387 145.076 34.752C145.524 34.1547 146.18 33.6853 147.044 33.344C146.703 32.9387 146.457 32.5653 146.308 32.224C146.159 31.8827 146.084 31.5093 146.084 31.104C146.084 30.6347 146.201 30.2133 146.436 29.84C146.681 29.456 147.028 29.1573 147.476 28.944C147.924 28.7307 148.441 28.624 149.028 28.624C149.604 28.624 150.105 28.736 150.532 28.96C150.959 29.184 151.279 29.4987 151.492 29.904C151.705 30.2987 151.801 30.7413 151.78 31.232H150.324C150.335 30.7947 150.212 30.4533 149.956 30.208C149.7 29.952 149.369 29.824 148.964 29.824C148.537 29.824 148.191 29.9467 147.924 30.192C147.668 30.4267 147.54 30.7307 147.54 31.104C147.54 31.424 147.625 31.7333 147.796 32.032C147.977 32.3307 148.276 32.6987 148.692 33.136L152.02 36.48L152.308 36.032L153.396 34.208H154.964L153.652 36.48C153.471 36.8 153.257 37.136 153.012 37.488L155.524 40H153.62ZM148.324 38.944C148.9 38.944 149.417 38.832 149.876 38.608C150.345 38.384 150.788 38.0373 151.204 37.568L147.924 34.272C146.559 34.7947 145.876 35.6213 145.876 36.752C145.876 37.3813 146.1 37.904 146.548 38.32C147.007 38.736 147.599 38.944 148.324 38.944ZM164.258 40.144C163.586 40.144 162.983 40.032 162.45 39.808C161.917 39.5733 161.495 39.2533 161.186 38.848C160.877 38.432 160.706 37.9573 160.674 37.424H162.178C162.221 37.8613 162.423 38.2187 162.786 38.496C163.159 38.7733 163.645 38.912 164.242 38.912C164.797 38.912 165.234 38.7893 165.554 38.544C165.874 38.2987 166.034 37.9893 166.034 37.616C166.034 37.232 165.863 36.9493 165.522 36.768C165.181 36.576 164.653 36.3893 163.938 36.208C163.287 36.0373 162.754 35.8667 162.338 35.696C161.933 35.5147 161.581 35.2533 161.282 34.912C160.994 34.56 160.85 34.1013 160.85 33.536C160.85 33.088 160.983 32.6773 161.25 32.304C161.517 31.9307 161.895 31.6373 162.386 31.424C162.877 31.2 163.437 31.088 164.066 31.088C165.037 31.088 165.821 31.3333 166.418 31.824C167.015 32.3147 167.335 32.9867 167.378 33.84H165.922C165.89 33.3813 165.703 33.0133 165.362 32.736C165.031 32.4587 164.583 32.32 164.018 32.32C163.495 32.32 163.079 32.432 162.77 32.656C162.461 32.88 162.306 33.1733 162.306 33.536C162.306 33.824 162.397 34.064 162.578 34.256C162.77 34.4373 163.005 34.5867 163.282 34.704C163.57 34.8107 163.965 34.9333 164.466 35.072C165.095 35.2427 165.607 35.4133 166.002 35.584C166.397 35.744 166.733 35.9893 167.01 36.32C167.298 36.6507 167.447 37.0827 167.458 37.616C167.458 38.096 167.325 38.528 167.058 38.912C166.791 39.296 166.413 39.6 165.922 39.824C165.442 40.0373 164.887 40.144 164.258 40.144ZM173.865 31.072C174.527 31.072 175.124 31.216 175.657 31.504C176.191 31.7813 176.607 32.2027 176.905 32.768C177.215 33.3333 177.369 34.0213 177.369 34.832V40H175.929V35.04C175.929 34.1653 175.711 33.4987 175.273 33.04C174.836 32.5707 174.239 32.336 173.481 32.336C172.713 32.336 172.1 32.576 171.641 33.056C171.193 33.536 170.969 34.2347 170.969 35.152V40H169.513V28.16H170.969V32.48C171.257 32.032 171.652 31.6853 172.153 31.44C172.665 31.1947 173.236 31.072 173.865 31.072ZM179.204 35.584C179.204 34.688 179.385 33.904 179.748 33.232C180.11 32.5493 180.606 32.0213 181.236 31.648C181.876 31.2747 182.585 31.088 183.364 31.088C184.132 31.088 184.798 31.2533 185.364 31.584C185.929 31.9147 186.35 32.3307 186.628 32.832V31.232H188.1V40H186.628V38.368C186.34 38.88 185.908 39.3067 185.332 39.648C184.766 39.9787 184.105 40.144 183.348 40.144C182.569 40.144 181.865 39.952 181.236 39.568C180.606 39.184 180.11 38.6453 179.748 37.952C179.385 37.2587 179.204 36.4693 179.204 35.584ZM186.628 35.6C186.628 34.9387 186.494 34.3627 186.228 33.872C185.961 33.3813 185.598 33.008 185.14 32.752C184.692 32.4853 184.196 32.352 183.652 32.352C183.108 32.352 182.612 32.48 182.164 32.736C181.716 32.992 181.358 33.3653 181.092 33.856C180.825 34.3467 180.692 34.9227 180.692 35.584C180.692 36.256 180.825 36.8427 181.092 37.344C181.358 37.8347 181.716 38.2133 182.164 38.48C182.612 38.736 183.108 38.864 183.652 38.864C184.196 38.864 184.692 38.736 185.14 38.48C185.598 38.2133 185.961 37.8347 186.228 37.344C186.494 36.8427 186.628 36.2613 186.628 35.6ZM192.016 32.656C192.272 32.1547 192.635 31.7653 193.104 31.488C193.584 31.2107 194.165 31.072 194.848 31.072V32.576H194.464C192.832 32.576 192.016 33.4613 192.016 35.232V40H190.56V31.232H192.016V32.656ZM204.529 35.28C204.529 35.5573 204.513 35.8507 204.481 36.16H197.473C197.526 37.024 197.82 37.7013 198.353 38.192C198.897 38.672 199.553 38.912 200.321 38.912C200.95 38.912 201.473 38.768 201.889 38.48C202.316 38.1813 202.614 37.7867 202.785 37.296H204.353C204.118 38.1387 203.649 38.8267 202.945 39.36C202.241 39.8827 201.366 40.144 200.321 40.144C199.489 40.144 198.742 39.9573 198.081 39.584C197.43 39.2107 196.918 38.6827 196.545 38C196.172 37.3067 195.985 36.5067 195.985 35.6C195.985 34.6933 196.166 33.8987 196.529 33.216C196.892 32.5333 197.398 32.0107 198.049 31.648C198.71 31.2747 199.468 31.088 200.321 31.088C201.153 31.088 201.889 31.2693 202.529 31.632C203.169 31.9947 203.66 32.496 204.001 33.136C204.353 33.7653 204.529 34.48 204.529 35.28ZM203.025 34.976C203.025 34.4213 202.902 33.9467 202.657 33.552C202.412 33.1467 202.076 32.8427 201.649 32.64C201.233 32.4267 200.769 32.32 200.257 32.32C199.521 32.32 198.892 32.5547 198.369 33.024C197.857 33.4933 197.564 34.144 197.489 34.976H203.025ZM211.468 29.808C211.191 29.808 210.956 29.712 210.764 29.52C210.572 29.328 210.476 29.0933 210.476 28.816C210.476 28.5387 210.572 28.304 210.764 28.112C210.956 27.92 211.191 27.824 211.468 27.824C211.735 27.824 211.959 27.92 212.14 28.112C212.332 28.304 212.428 28.5387 212.428 28.816C212.428 29.0933 212.332 29.328 212.14 29.52C211.959 29.712 211.735 29.808 211.468 29.808ZM212.172 31.232V40H210.716V31.232H212.172ZM216.43 32.432V37.6C216.43 38.0267 216.521 38.3307 216.702 38.512C216.883 38.6827 217.198 38.768 217.646 38.768H218.718V40H217.406C216.595 40 215.987 39.8133 215.582 39.44C215.177 39.0667 214.974 38.4533 214.974 37.6V32.432H213.838V31.232H214.974V29.024H216.43V31.232H218.718V32.432H216.43ZM236.428 31.232L233.692 40H232.188L230.076 33.04L227.964 40H226.46L223.708 31.232H225.196L227.212 38.592L229.388 31.232H230.876L233.004 38.608L234.988 31.232H236.428ZM238.625 29.808C238.347 29.808 238.113 29.712 237.921 29.52C237.729 29.328 237.633 29.0933 237.633 28.816C237.633 28.5387 237.729 28.304 237.921 28.112C238.113 27.92 238.347 27.824 238.625 27.824C238.891 27.824 239.115 27.92 239.297 28.112C239.489 28.304 239.585 28.5387 239.585 28.816C239.585 29.0933 239.489 29.328 239.297 29.52C239.115 29.712 238.891 29.808 238.625 29.808ZM239.329 31.232V40H237.873V31.232H239.329ZM243.586 32.432V37.6C243.586 38.0267 243.677 38.3307 243.858 38.512C244.039 38.6827 244.354 38.768 244.802 38.768H245.874V40H244.562C243.751 40 243.143 39.8133 242.738 39.44C242.333 39.0667 242.13 38.4533 242.13 37.6V32.432H240.994V31.232H242.13V29.024H243.586V31.232H245.874V32.432H243.586ZM251.99 31.072C252.652 31.072 253.249 31.216 253.782 31.504C254.316 31.7813 254.732 32.2027 255.03 32.768C255.34 33.3333 255.494 34.0213 255.494 34.832V40H254.054V35.04C254.054 34.1653 253.836 33.4987 253.398 33.04C252.961 32.5707 252.364 32.336 251.606 32.336C250.838 32.336 250.225 32.576 249.766 33.056C249.318 33.536 249.094 34.2347 249.094 35.152V40H247.638V28.16H249.094V32.48C249.382 32.032 249.777 31.6853 250.278 31.44C250.79 31.1947 251.361 31.072 251.99 31.072ZM265.962 40.144C265.141 40.144 264.394 39.9573 263.722 39.584C263.061 39.2107 262.538 38.6827 262.154 38C261.781 37.3067 261.594 36.5067 261.594 35.6C261.594 34.704 261.786 33.9147 262.17 33.232C262.565 32.5387 263.098 32.0107 263.77 31.648C264.442 31.2747 265.194 31.088 266.026 31.088C266.858 31.088 267.61 31.2747 268.282 31.648C268.954 32.0107 269.482 32.5333 269.866 33.216C270.261 33.8987 270.458 34.6933 270.458 35.6C270.458 36.5067 270.256 37.3067 269.85 38C269.456 38.6827 268.917 39.2107 268.234 39.584C267.552 39.9573 266.794 40.144 265.962 40.144ZM265.962 38.864C266.485 38.864 266.976 38.7413 267.434 38.496C267.893 38.2507 268.261 37.8827 268.538 37.392C268.826 36.9013 268.97 36.304 268.97 35.6C268.97 34.896 268.832 34.2987 268.554 33.808C268.277 33.3173 267.914 32.9547 267.466 32.72C267.018 32.4747 266.533 32.352 266.01 32.352C265.477 32.352 264.986 32.4747 264.538 32.72C264.101 32.9547 263.749 33.3173 263.482 33.808C263.216 34.2987 263.082 34.896 263.082 35.6C263.082 36.3147 263.21 36.9173 263.466 37.408C263.733 37.8987 264.085 38.2667 264.522 38.512C264.96 38.7467 265.44 38.864 265.962 38.864ZM274.149 32.432V37.6C274.149 38.0267 274.239 38.3307 274.421 38.512C274.602 38.6827 274.917 38.768 275.365 38.768H276.437V40H275.125C274.314 40 273.706 39.8133 273.301 39.44C272.895 39.0667 272.693 38.4533 272.693 37.6V32.432H271.557V31.232H272.693V29.024H274.149V31.232H276.437V32.432H274.149ZM282.553 31.072C283.214 31.072 283.811 31.216 284.345 31.504C284.878 31.7813 285.294 32.2027 285.593 32.768C285.902 33.3333 286.057 34.0213 286.057 34.832V40H284.617V35.04C284.617 34.1653 284.398 33.4987 283.961 33.04C283.523 32.5707 282.926 32.336 282.169 32.336C281.401 32.336 280.787 32.576 280.329 33.056C279.881 33.536 279.657 34.2347 279.657 35.152V40H278.201V28.16H279.657V32.48C279.945 32.032 280.339 31.6853 280.841 31.44C281.353 31.1947 281.923 31.072 282.553 31.072ZM296.435 35.28C296.435 35.5573 296.419 35.8507 296.387 36.16H289.379C289.432 37.024 289.726 37.7013 290.259 38.192C290.803 38.672 291.459 38.912 292.227 38.912C292.856 38.912 293.379 38.768 293.795 38.48C294.222 38.1813 294.52 37.7867 294.691 37.296H296.259C296.024 38.1387 295.555 38.8267 294.851 39.36C294.147 39.8827 293.272 40.144 292.227 40.144C291.395 40.144 290.648 39.9573 289.987 39.584C289.336 39.2107 288.824 38.6827 288.451 38C288.078 37.3067 287.891 36.5067 287.891 35.6C287.891 34.6933 288.072 33.8987 288.435 33.216C288.798 32.5333 289.304 32.0107 289.955 31.648C290.616 31.2747 291.374 31.088 292.227 31.088C293.059 31.088 293.795 31.2693 294.435 31.632C295.075 31.9947 295.566 32.496 295.907 33.136C296.259 33.7653 296.435 34.48 296.435 35.28ZM294.931 34.976C294.931 34.4213 294.808 33.9467 294.563 33.552C294.318 33.1467 293.982 32.8427 293.555 32.64C293.139 32.4267 292.675 32.32 292.163 32.32C291.427 32.32 290.798 32.5547 290.275 33.024C289.763 33.4933 289.47 34.144 289.395 34.976H294.931ZM299.813 32.656C300.069 32.1547 300.432 31.7653 300.901 31.488C301.381 31.2107 301.962 31.072 302.645 31.072V32.576H302.261C300.629 32.576 299.813 33.4613 299.813 35.232V40H298.357V31.232H299.813V32.656ZM307.43 40.144C306.758 40.144 306.155 40.032 305.622 39.808C305.088 39.5733 304.667 39.2533 304.358 38.848C304.048 38.432 303.878 37.9573 303.846 37.424H305.35C305.392 37.8613 305.595 38.2187 305.958 38.496C306.331 38.7733 306.816 38.912 307.414 38.912C307.968 38.912 308.406 38.7893 308.726 38.544C309.046 38.2987 309.206 37.9893 309.206 37.616C309.206 37.232 309.035 36.9493 308.694 36.768C308.352 36.576 307.824 36.3893 307.11 36.208C306.459 36.0373 305.926 35.8667 305.51 35.696C305.104 35.5147 304.752 35.2533 304.454 34.912C304.166 34.56 304.022 34.1013 304.022 33.536C304.022 33.088 304.155 32.6773 304.422 32.304C304.688 31.9307 305.067 31.6373 305.558 31.424C306.048 31.2 306.608 31.088 307.238 31.088C308.208 31.088 308.992 31.3333 309.59 31.824C310.187 32.3147 310.507 32.9867 310.55 33.84H309.094C309.062 33.3813 308.875 33.0133 308.534 32.736C308.203 32.4587 307.755 32.32 307.19 32.32C306.667 32.32 306.251 32.432 305.942 32.656C305.632 32.88 305.478 33.1733 305.478 33.536C305.478 33.824 305.568 34.064 305.75 34.256C305.942 34.4373 306.176 34.5867 306.454 34.704C306.742 34.8107 307.136 34.9333 307.638 35.072C308.267 35.2427 308.779 35.4133 309.174 35.584C309.568 35.744 309.904 35.9893 310.182 36.32C310.47 36.6507 310.619 37.0827 310.63 37.616C310.63 38.096 310.496 38.528 310.23 38.912C309.963 39.296 309.584 39.6 309.094 39.824C308.614 40.0373 308.059 40.144 307.43 40.144ZM313.149 40.096C312.872 40.096 312.637 40 312.445 39.808C312.253 39.616 312.157 39.3813 312.157 39.104C312.157 38.8267 312.253 38.592 312.445 38.4C312.637 38.208 312.872 38.112 313.149 38.112C313.416 38.112 313.64 38.208 313.821 38.4C314.013 38.592 314.109 38.8267 314.109 39.104C314.109 39.3813 314.013 39.616 313.821 39.808C313.64 40 313.416 40.096 313.149 40.096Z" fill="#999696"/>
<path d="M285.559 237.796L285.559 237.796L285.741 238.116L286.352 237.769L286.624 238.249L286.014 238.596L286.195 238.916C286.649 239.715 287.076 240.518 287.476 241.326L288.105 241.014C288.726 242.267 289.284 243.531 289.781 244.802L289.127 245.058C289.798 246.773 290.355 248.5 290.804 250.233L291.484 250.057C291.833 251.407 292.118 252.76 292.34 254.113L291.646 254.226C291.942 256.032 292.124 257.838 292.197 259.635L292.899 259.607C292.956 260.995 292.948 262.378 292.879 263.752L292.177 263.717C292.085 265.537 291.883 267.342 291.577 269.123L292.269 269.242C292.034 270.607 291.738 271.957 291.384 273.29L290.705 273.11C290.238 274.867 289.667 276.592 288.999 278.277L289.652 278.536C289.142 279.821 288.576 281.083 287.957 282.317L287.329 282.002C286.514 283.625 285.606 285.199 284.608 286.716L285.195 287.102C284.436 288.255 283.626 289.376 282.768 290.461L282.217 290.025C281.092 291.445 279.883 292.802 278.595 294.085L279.09 294.583C278.113 295.556 277.092 296.488 276.027 297.374L275.578 296.834C274.189 297.99 272.727 299.067 271.197 300.057L271.578 300.647C270.422 301.394 269.228 302.092 267.998 302.738L267.672 302.116C266.079 302.951 264.424 303.696 262.712 304.343L262.961 305C261.678 305.485 260.364 305.915 259.021 306.287L258.833 305.61C257.108 306.088 255.333 306.469 253.513 306.746L253.618 307.44C252.269 307.645 250.896 307.794 249.499 307.883L249.455 307.182C248.555 307.239 247.646 307.271 246.728 307.278L246.36 307.28L246.364 307.983L245.812 307.986L245.807 307.284L245.438 307.286H245.438C244.506 307.293 243.578 307.327 242.655 307.388L242.702 308.089C241.326 308.18 239.962 308.331 238.613 308.541L238.505 307.847C236.662 308.134 234.846 308.529 233.066 309.027L233.255 309.704C231.931 310.074 230.627 310.502 229.347 310.986L229.098 310.329C227.359 310.987 225.662 311.746 224.017 312.601L224.341 313.224C223.124 313.857 221.936 314.543 220.779 315.281L220.401 314.689C218.838 315.686 217.332 316.776 215.893 317.953L216.338 318.497C215.279 319.364 214.256 320.279 213.274 321.241L212.782 320.738C211.461 322.031 210.211 323.406 209.041 324.859L209.588 325.299C208.731 326.363 207.918 327.468 207.152 328.614L206.568 328.223C206.053 328.992 205.56 329.779 205.088 330.582L205.694 330.938L205.088 330.583L204.902 330.9L205.508 331.256L205.229 331.732L204.623 331.376L204.436 331.694C203.972 332.486 203.489 333.257 202.99 334.007L203.575 334.397C202.799 335.561 201.984 336.677 201.132 337.743L200.583 337.304C199.434 338.742 198.216 340.088 196.94 341.343L197.432 341.844C196.438 342.822 195.409 343.745 194.348 344.613L193.903 344.07C192.487 345.229 191.014 346.289 189.494 347.251L189.87 347.845C188.696 348.588 187.494 349.273 186.269 349.9L185.949 349.274C184.327 350.105 182.663 350.833 180.967 351.457L181.21 352.116C179.911 352.595 178.593 353.014 177.261 353.374L177.078 352.695C175.323 353.169 173.544 353.538 171.751 353.802L171.853 354.497C170.485 354.698 169.109 354.839 167.73 354.919L167.689 354.218C165.877 354.324 164.059 354.324 162.247 354.218L162.206 354.919C160.827 354.839 159.452 354.698 158.084 354.497L158.186 353.802C156.393 353.538 154.613 353.169 152.858 352.695L152.675 353.374C151.343 353.014 150.026 352.595 148.726 352.116L148.969 351.457C147.273 350.832 145.609 350.105 143.987 349.274L143.667 349.9C142.442 349.272 141.24 348.587 140.067 347.845L140.442 347.251C138.922 346.289 137.449 345.229 136.034 344.07L135.589 344.613C134.528 343.745 133.498 342.822 132.504 341.844L132.997 341.343C131.72 340.088 130.503 338.742 129.353 337.304L128.804 337.742C127.952 336.677 127.137 335.561 126.362 334.397L126.946 334.007C126.447 333.257 125.965 332.486 125.5 331.694L125.313 331.376L124.708 331.732L124.428 331.256L125.034 330.9L124.848 330.582L124.242 330.938L124.848 330.582C124.376 329.779 123.883 328.992 123.368 328.223L122.784 328.614C122.018 327.468 121.205 326.363 120.348 325.299L120.895 324.859C119.725 323.406 118.475 322.031 117.154 320.738L116.663 321.24C115.68 320.279 114.657 319.364 113.598 318.497L114.043 317.953C112.604 316.776 111.098 315.686 109.535 314.688L109.157 315.281C108.001 314.543 106.812 313.857 105.595 313.224L105.919 312.601C104.274 311.745 102.577 310.987 100.837 310.329L100.589 310.986C99.3087 310.502 98.0047 310.074 96.6809 309.704L96.8701 309.027C95.0898 308.529 93.2739 308.134 91.4309 307.847L91.3228 308.541C89.9736 308.331 88.6096 308.18 87.2343 308.089L87.2806 307.388C86.3577 307.327 85.4297 307.293 84.4978 307.286H84.4974L84.1293 307.284L84.1247 307.986L83.5725 307.983L83.577 307.28L83.2092 307.278C82.2909 307.271 81.3818 307.239 80.4825 307.182L80.4378 307.883C79.0415 307.794 77.6679 307.645 76.3187 307.44L76.4242 306.746C74.6041 306.469 72.8293 306.088 71.1042 305.61L70.9166 306.287C69.5731 305.915 68.259 305.485 66.9764 305L67.2247 304.343C65.5131 303.696 63.8583 302.951 62.2653 302.116L61.939 302.738C60.7087 302.092 59.5146 301.394 58.3589 300.647L58.7404 300.057C57.2101 299.067 55.748 297.99 54.3593 296.834L53.9098 297.374C52.8454 296.488 51.8236 295.556 50.8466 294.583L51.3424 294.085C50.0543 292.802 48.8451 291.445 47.7203 290.025L47.1695 290.461C46.3113 289.376 45.5015 288.255 44.7424 287.102L45.3293 286.716C44.3314 285.199 43.4226 283.625 42.608 282.002L41.9802 282.317C41.3605 281.083 40.7947 279.821 40.2849 278.536L40.9379 278.277C40.2697 276.592 39.6994 274.867 39.2323 273.11L38.5534 273.29C38.199 271.958 37.9032 270.607 37.668 269.242L38.3603 269.123C38.0534 267.342 37.8515 265.537 37.7596 263.717L37.058 263.752C36.9886 262.378 36.9811 260.995 37.0375 259.607L37.7394 259.635C37.8125 257.838 37.9944 256.032 38.2902 254.227L37.5969 254.113C37.8186 252.76 38.1031 251.407 38.4525 250.057L39.1326 250.233C39.5813 248.5 40.1386 246.773 40.8091 245.058L40.1549 244.802C40.6519 243.531 41.2101 242.267 41.8311 241.014L42.4606 241.326C42.8606 240.518 43.2871 239.715 43.7406 238.916C43.7407 238.916 43.7407 238.916 43.7407 238.916L43.9225 238.596L43.3118 238.249L43.5845 237.769L44.1953 238.116L44.3771 237.796L44.3772 237.796C44.8375 236.986 45.2721 236.165 45.6808 235.336L45.0506 235.025C45.6596 233.789 46.2105 232.532 46.7031 231.258L47.3583 231.512C48.0312 229.772 48.5972 228.002 49.0561 226.211L48.3755 226.037C48.7168 224.705 48.998 223.362 49.2191 222.011L49.9124 222.124C50.2127 220.289 50.4039 218.44 50.4859 216.588L49.7841 216.557C49.8447 215.186 49.8447 213.814 49.7841 212.443L50.4859 212.412C50.4039 210.56 50.2127 208.711 49.9123 206.876L49.219 206.989C48.9979 205.639 48.7168 204.295 48.3755 202.964L49.056 202.789C48.5971 200.998 48.0312 199.228 47.3583 197.489L46.7031 197.742C46.2105 196.468 45.6596 195.212 45.0506 193.975L45.6808 193.665C45.272 192.835 44.8375 192.014 44.3772 191.204L43.7664 191.551L44.3772 191.204L44.1953 190.884L43.5845 191.231L43.3118 190.751L43.9226 190.404L43.7407 190.084C43.2871 189.285 42.8606 188.482 42.4606 187.674L41.8311 187.986C41.21 186.732 40.6518 185.468 40.1548 184.197L40.8091 183.942C40.1386 182.227 39.5812 180.499 39.1325 178.766L38.4525 178.942C38.1031 177.593 37.8185 176.24 37.5969 174.887L38.2902 174.773C37.9944 172.968 37.8124 171.162 37.7394 169.364L37.0375 169.393C36.9811 168.005 36.9886 166.622 37.058 165.247L37.7596 165.283C37.8515 163.463 38.0534 161.658 38.3603 159.877L37.668 159.758C37.9032 158.393 38.1991 157.042 38.5534 155.709L39.2323 155.89C39.6995 154.133 40.2698 152.407 40.938 150.723L40.285 150.464C40.7948 149.178 41.3606 147.917 41.9803 146.682L42.6081 146.998C43.4227 145.375 44.3316 143.801 45.3294 142.284L44.7425 141.898C45.5016 140.744 46.3114 139.623 47.1696 138.539L47.7204 138.975C48.8452 137.554 50.0544 136.198 51.3425 134.915L50.8467 134.417C51.8237 133.444 52.8455 132.512 53.9099 131.626L54.3594 132.166C55.7481 131.01 57.2102 129.932 58.7405 128.943L58.359 128.353C59.5147 127.606 60.7088 126.907 61.9391 126.262L62.2653 126.884C63.8584 126.049 65.5131 125.304 67.2247 124.657L66.9764 124C68.2591 123.515 69.5731 123.085 70.9167 122.713L71.1042 123.39C72.8294 122.912 74.6041 122.531 76.4243 122.254L76.3187 121.56C77.6679 121.355 79.0415 121.206 80.4378 121.117L80.4825 121.818C81.3818 121.761 82.2909 121.729 83.2092 121.722L83.5774 121.72L83.5725 121.017L84.1247 121.013L84.1296 121.716L84.4977 121.713C85.4297 121.707 86.3576 121.673 87.2806 121.612L87.2343 120.911C88.6096 120.82 89.9736 120.669 91.3228 120.458L91.431 121.153C93.274 120.866 95.0899 120.471 96.8702 119.973L96.681 119.296C98.0049 118.926 99.3088 118.498 100.589 118.014L100.838 118.671C102.577 118.013 104.274 117.255 105.919 116.399L105.595 115.776C106.812 115.143 108.001 114.457 109.157 113.719L109.535 114.312C111.098 113.314 112.604 112.224 114.043 111.047L113.598 110.503C114.657 109.636 115.68 108.721 116.663 107.76L117.154 108.262C118.476 106.969 119.726 105.594 120.896 104.141L120.349 103.7C121.205 102.637 122.018 101.532 122.785 100.386L123.368 100.776C123.883 100.008 124.376 99.2209 124.848 98.4171L125.034 98.0996L124.428 97.7441L124.708 97.2678L125.313 97.6233L125.5 97.3057C125.965 96.5137 126.447 95.7426 126.946 94.9924L126.362 94.6031C127.137 93.4384 127.952 92.3231 128.804 91.2572L129.353 91.6959C130.503 90.2579 131.72 88.9114 132.997 87.6564L132.504 87.1555C133.498 86.1781 134.528 85.2551 135.589 84.3866L136.034 84.9302C137.45 83.7713 138.922 82.7109 140.442 81.7489L140.067 81.1553C141.241 80.4124 142.442 79.7274 143.667 79.1002L143.987 79.7256C145.61 78.8951 147.274 78.1675 148.969 77.5429L148.726 76.8837C150.026 76.405 151.344 75.9859 152.675 75.6264L152.858 76.3046C154.613 75.8306 156.393 75.4617 158.186 75.1981L158.084 74.5031C159.452 74.3019 160.827 74.1611 162.206 74.0806L162.247 74.7819C164.059 74.676 165.877 74.676 167.689 74.7818L167.73 74.0805C169.109 74.161 170.485 74.3019 171.853 74.503L171.751 75.198C173.544 75.4617 175.323 75.8305 177.078 76.3045L177.261 75.6263C178.593 75.9858 179.91 76.4049 181.21 76.8836L180.967 77.5428C182.663 78.1674 184.327 78.8949 185.949 79.7254L186.269 79.1001C187.494 79.7273 188.696 80.4123 189.87 81.1552L189.494 81.7488C191.014 82.7107 192.487 83.7711 193.903 84.9301L194.348 84.3865C195.409 85.255 196.438 86.1779 197.432 87.1554L196.94 87.6563C198.216 88.9113 199.434 90.2578 200.583 91.6958L201.132 91.2571C201.984 92.3231 202.799 93.4384 203.575 94.6031L202.99 94.9923C203.489 95.7425 203.972 96.5137 204.436 97.3057L204.623 97.6232L205.229 97.2678L205.508 97.7441L204.902 98.0995L205.088 98.4171L205.694 98.0616L205.088 98.4171C205.56 99.2209 206.053 100.008 206.568 100.776L207.152 100.386C207.918 101.531 208.731 102.637 209.588 103.7L209.041 104.141C210.211 105.593 211.461 106.969 212.782 108.261L213.273 107.759C214.256 108.721 215.279 109.636 216.338 110.503L215.893 111.046C217.332 112.224 218.838 113.314 220.401 114.311L220.779 113.719C221.935 114.457 223.124 115.143 224.341 115.776L224.017 116.399C225.662 117.254 227.359 118.013 229.098 118.671L229.347 118.014C230.627 118.498 231.931 118.926 233.255 119.296L233.066 119.973C234.846 120.471 236.662 120.865 238.505 121.153L238.613 120.458C239.962 120.669 241.326 120.82 242.702 120.911L242.655 121.612C243.578 121.673 244.506 121.707 245.438 121.713L245.807 121.716L245.812 121.013L246.364 121.017L246.359 121.72L246.728 121.722C247.646 121.729 248.555 121.761 249.455 121.818L249.499 121.117C250.896 121.206 252.269 121.355 253.618 121.56L253.513 122.254C255.333 122.531 257.108 122.912 258.833 123.39L259.02 122.713C260.364 123.085 261.678 123.515 262.961 124L262.712 124.657C264.424 125.304 266.079 126.049 267.672 126.884L267.998 126.262C269.228 126.907 270.422 127.606 271.578 128.353L271.197 128.943C272.727 129.932 274.189 131.01 275.578 132.166L276.027 131.626C277.092 132.512 278.113 133.444 279.09 134.417L278.595 134.915C279.883 136.198 281.092 137.554 282.217 138.975L282.768 138.539C283.626 139.623 284.436 140.744 285.195 141.898L284.608 142.284C285.605 143.801 286.514 145.375 287.329 146.998L287.957 146.683C288.576 147.917 289.142 149.179 289.652 150.464L288.999 150.723C289.667 152.407 290.237 154.133 290.705 155.89L291.383 155.71C291.738 157.042 292.034 158.393 292.269 159.758L291.577 159.877C291.883 161.658 292.085 163.463 292.177 165.283L292.879 165.247C292.948 166.622 292.956 168.005 292.899 169.393L292.197 169.365C292.124 171.162 291.942 172.968 291.646 174.773L292.34 174.887C292.118 176.24 291.833 177.593 291.484 178.943L290.804 178.767C290.355 180.499 289.798 182.227 289.127 183.942L289.781 184.197C289.284 185.468 288.726 186.732 288.105 187.986L287.476 187.674C287.076 188.482 286.649 189.285 286.195 190.084L286.014 190.404L286.624 190.751L286.352 191.231L285.741 190.884L285.559 191.204L286.17 191.551L285.559 191.204C285.099 192.014 284.664 192.835 284.255 193.665L284.886 193.975C284.277 195.212 283.726 196.468 283.233 197.742L282.578 197.489C281.905 199.228 281.339 200.998 280.88 202.789L281.561 202.964C281.219 204.295 280.938 205.639 280.717 206.989L280.024 206.876C279.723 208.711 279.532 210.56 279.45 212.412L280.152 212.443C280.091 213.814 280.091 215.186 280.152 216.557L279.45 216.588C279.532 218.44 279.723 220.289 280.024 222.124L280.717 222.011C280.938 223.362 281.219 224.705 281.561 226.037L280.88 226.211C281.339 228.002 281.905 229.772 282.578 231.512L283.233 231.258C283.726 232.532 284.276 233.789 284.886 235.025L284.255 235.336C284.664 236.165 285.099 236.986 285.559 237.796Z" fill="#F1F4FF" stroke="#0000FF" stroke-width="1.405" stroke-dasharray="5.62 4.22"/>
<g filter="url(#filter0_d_82_189)">
<path d="M214.73 158C206.057 158 199 164.351 199 172.157C199 174.886 199.864 177.529 201.5 179.815C201.19 183.242 200.36 185.787 199.154 186.992C198.994 187.152 198.954 187.395 199.055 187.597C199.145 187.777 199.328 187.887 199.524 187.887C199.548 187.887 199.573 187.886 199.598 187.882C199.81 187.852 204.743 187.142 208.311 185.083C210.337 185.901 212.495 186.314 214.73 186.314C223.404 186.314 230.46 179.963 230.46 172.157C230.46 164.351 223.404 158 214.73 158Z" fill="white"/>
</g>
<path d="M222.888 171.654V172.305C222.887 173.833 222.393 175.319 221.478 176.542C220.563 177.766 219.278 178.661 217.813 179.094C216.348 179.527 214.783 179.475 213.35 178.946C211.917 178.416 210.694 177.438 209.863 176.157C209.031 174.875 208.636 173.359 208.737 171.835C208.837 170.311 209.428 168.86 210.42 167.699C211.413 166.538 212.754 165.729 214.244 165.392C215.734 165.055 217.292 165.209 218.688 165.831" stroke="#26DD75" stroke-width="1.8" stroke-linecap="round" stroke-linejoin="round"/>
<path d="M222.888 166.639L215.805 173.729L213.68 171.604" stroke="#26DD75" stroke-width="1.8" stroke-linecap="round" stroke-linejoin="round"/>
<path fill-rule="evenodd" clip-rule="evenodd" d="M78.6498 156.137C81.8345 157.733 85.1132 159.382 88.0636 161.397C88.6705 161.858 88.8289 162.68 88.3704 163.28C88.1668 163.561 87.8604 163.751 87.5162 163.809C87.1721 163.868 86.8173 163.791 86.527 163.594C83.6968 161.585 80.5122 159.989 77.4427 158.518C76.8308 158.177 76.5263 157.395 76.8435 156.717C77.1608 156.038 77.9909 155.769 78.6498 156.137ZM89.4999 130.418C90.1367 130.163 90.9418 130.49 91.2514 131.152C92.9304 134.78 94.8337 138.227 96.737 141.674L97.901 143.791C99.4737 146.503 100.994 149.309 102.369 152.155C102.678 152.817 102.356 153.614 101.74 153.943C101.408 154.095 101.027 154.11 100.681 153.985C100.335 153.86 100.05 153.605 99.8898 153.275C96.4536 146.16 92.1564 139.481 88.7983 132.226C88.7107 132.063 88.6593 131.883 88.6478 131.699C88.6362 131.514 88.6647 131.33 88.7312 131.159C88.7978 130.987 88.9009 130.832 89.0336 130.704C89.1662 130.576 89.3253 130.479 89.4999 130.418ZM120.784 134.452C121.495 134.727 121.946 135.468 121.722 136.199L119.077 145.355C118.854 146.086 118.139 146.481 117.402 146.253C116.712 146.051 116.261 145.31 116.484 144.579L119.156 135.376C119.353 134.691 120.115 134.323 120.784 134.452Z" fill="#8AC0B4"/>
<mask id="mask0_82_189" style="mask-type:alpha" maskUnits="userSpaceOnUse" x="73" y="147" width="199" height="199">
<circle cx="172.437" cy="246.437" r="99.4369" fill="#EDFFF5"/>
</mask>
<g mask="url(#mask0_82_189)">
<path d="M228.15 311.375L229.667 340.507C229.667 340.507 165.487 279.423 157.492 261.55C149.496 243.678 164.547 199.466 164.547 199.466L197.94 217.809L228.15 311.375Z" fill="#E9C6AF"/>
<path d="M129.742 187.449L119.865 188.39C119.865 188.39 114.692 199.678 130.683 200.618L129.742 187.449Z" fill="#FFD3B6"/>
<path d="M129.742 204.64L119.865 205.581C119.865 205.581 114.692 216.869 130.683 217.809L129.742 204.64Z" fill="#FFD3B6"/>
<path d="M129.742 223.453L119.865 224.394C119.865 224.394 114.692 235.682 130.683 236.623L129.742 223.453Z" fill="#FFD3B6"/>
<path d="M132.564 242.267L122.687 243.207C122.687 243.207 117.514 254.495 133.505 255.436L132.564 242.267Z" fill="#FFD3B6"/>
<path d="M124.934 191.773H125.683V171.242C125.683 169.682 125.991 168.136 126.588 166.695C127.185 165.253 128.06 163.943 129.163 162.84C130.267 161.736 131.577 160.861 133.018 160.264C134.46 159.667 136.005 159.359 137.566 159.359H181.063C182.623 159.359 184.168 159.667 185.61 160.264C187.052 160.861 188.361 161.736 189.465 162.84C190.568 163.943 191.444 165.253 192.041 166.695C192.638 168.136 192.945 169.681 192.945 171.242V283.874C192.945 285.435 192.638 286.98 192.041 288.422C191.444 289.863 190.568 291.173 189.465 292.277C188.361 293.38 187.052 294.255 185.61 294.853C184.168 295.45 182.623 295.757 181.063 295.757H137.566C134.414 295.757 131.392 294.505 129.164 292.277C126.935 290.048 125.683 287.026 125.683 283.875V206.387H124.934V191.773Z" fill="#3F3D56"/>
<path d="M137.086 162.451H142.764C142.503 163.091 142.403 163.785 142.474 164.473C142.544 165.161 142.783 165.821 143.169 166.395C143.554 166.968 144.075 167.439 144.685 167.764C145.295 168.089 145.976 168.259 146.667 168.259H171.586C172.278 168.259 172.958 168.089 173.568 167.764C174.179 167.439 174.699 166.968 175.085 166.395C175.471 165.821 175.709 165.161 175.78 164.473C175.85 163.785 175.751 163.091 175.49 162.451H180.793C183.146 162.451 185.403 163.386 187.067 165.05C188.732 166.714 189.666 168.971 189.666 171.325V283.792C189.666 284.957 189.437 286.111 188.991 287.188C188.545 288.264 187.891 289.243 187.067 290.067C186.243 290.891 185.265 291.544 184.189 291.99C183.112 292.436 181.958 292.666 180.793 292.666H137.086C135.921 292.666 134.767 292.436 133.69 291.99C132.614 291.544 131.636 290.891 130.812 290.067C129.988 289.243 129.334 288.264 128.888 287.188C128.442 286.111 128.213 284.957 128.213 283.792V171.325C128.213 170.159 128.442 169.005 128.888 167.929C129.334 166.852 129.988 165.874 130.812 165.05C131.636 164.226 132.614 163.572 133.69 163.126C134.767 162.68 135.921 162.451 137.086 162.451Z" fill="white"/>
<path d="M177.493 213.291H139.291C138.05 213.291 137.044 214.297 137.044 215.538V226.774C137.044 228.015 138.05 229.021 139.291 229.021H177.493C178.734 229.021 179.74 228.015 179.74 226.774V215.538C179.74 214.297 178.734 213.291 177.493 213.291Z" fill="#ADF4CC"/>
<path d="M177.493 251.493H139.291C138.05 251.493 137.044 252.499 137.044 253.74V264.976C137.044 266.217 138.05 267.223 139.291 267.223H177.493C178.734 267.223 179.74 266.217 179.74 264.976V253.74C179.74 252.499 178.734 251.493 177.493 251.493Z" fill="#FFCBD1"/>
<path d="M177.493 194.19H139.291C138.05 194.19 137.044 195.196 137.044 196.438V207.673C137.044 208.914 138.05 209.921 139.291 209.921H177.493C178.734 209.921 179.74 208.914 179.74 207.673V196.438C179.74 195.196 178.734 194.19 177.493 194.19Z" fill="#B3F8D1"/>
<path d="M177.493 232.392H139.291C138.05 232.392 137.044 233.398 137.044 234.639V245.875C137.044 247.116 138.05 248.122 139.291 248.122H177.493C178.734 248.122 179.74 247.116 179.74 245.875V234.639C179.74 233.398 178.734 232.392 177.493 232.392Z" fill="#B3F8D1"/>
<path d="M272.454 326.548L219.811 266.489L217.929 227.921L198.175 194.998L192.531 180.888C192.531 180.888 179.362 182.299 190.18 209.108L194.648 223.453C190.62 232.128 188.534 241.578 188.534 251.142V284.014C188.534 291.754 225.419 333.915 229.712 340.355L272.454 326.548Z" fill="#FFD3B6"/>
<path opacity="0.2" d="M194.08 197.788L198.007 195.858L197.873 195.586L194.245 197.369L188.767 183.008L188.484 183.117L194.08 197.788Z" fill="black"/>
<path opacity="0.2" d="M119.918 188.036L119.813 188.32L125.631 190.463L125.735 190.179L119.918 188.036Z" fill="black"/>
<path opacity="0.2" d="M119.918 205.636L119.813 205.921L125.631 208.064L125.735 207.779L119.918 205.636Z" fill="black"/>
<path opacity="0.2" d="M119.918 224.451L119.813 224.735L125.631 226.878L125.735 226.594L119.918 224.451Z" fill="#E9C6AF"/>
<path opacity="0.2" d="M122.966 243.271L122.834 243.544L125.667 244.903L125.798 244.63L122.966 243.271Z" fill="black"/>
</g>
<circle cx="247.933" cy="90.9325" r="3.08985" stroke="#8AC0B4" stroke-width="1.68537"/>
<path d="M250.031 104.551L263.899 99.9999L260.907 114.286L250.031 104.551Z" stroke="#8AC0B4" stroke-width="1.68537"/>
<g filter="url(#filter1_d_82_189)">
<path d="M87.8081 237.621C98.1789 233.97 109.289 238.593 112.575 247.927C113.723 251.19 113.803 254.714 112.808 258.135C114.621 262.103 116.686 264.796 118.635 265.73C118.893 265.853 119.043 266.128 119.007 266.411C118.976 266.664 118.803 266.873 118.568 266.956C118.539 266.966 118.509 266.975 118.478 266.981C118.212 267.034 112.015 268.261 106.883 267.301C104.803 269.132 102.397 270.535 99.7251 271.475C89.3544 275.126 78.2441 270.502 74.9585 261.168C71.6729 251.835 77.4373 241.271 87.8081 237.621Z" fill="white"/>
</g>
<path d="M93.1952 263.306C98.2578 263.306 102.362 259.202 102.362 254.139C102.362 249.076 98.2578 244.972 93.1952 244.972C88.1326 244.972 84.0286 249.076 84.0286 254.139C84.0286 259.202 88.1326 263.306 93.1952 263.306Z" stroke="#FF6060" stroke-width="1.40448" stroke-linecap="round" stroke-linejoin="round"/>
<path d="M95.9453 251.389L90.4453 256.889" stroke="#FF6060" stroke-width="1.40448" stroke-linecap="round" stroke-linejoin="round"/>
<path d="M90.4453 251.389L95.9453 256.889" stroke="#FF6060" stroke-width="1.40448" stroke-linecap="round" stroke-linejoin="round"/>
<path d="M85.6973 337.93L74.1562 337.078L80.6646 327.509L85.6973 337.93Z" stroke="#D4E1DE" stroke-width="1.68537"/>
<path d="M47.4108 337.757L55.664 345.869L44.5121 348.961L47.4108 337.757Z" stroke="#D4E1DE" stroke-width="1.68537"/>
<circle cx="42.9886" cy="313.989" r="8.14596" stroke="#8AC0B4" stroke-width="1.68537"/>
<circle cx="225.933" cy="104.933" r="3.08985" stroke="#8AC0B4" stroke-width="1.68537"/>
<g clip-path="url(#clip0_82_189)">
<path d="M272.038 263.225L271.165 263.509C264.469 265.358 264.76 254.693 263.984 250.711C263.79 249.763 262.043 249.763 261.898 250.711C261.122 255.925 259.957 262.893 253.019 263.509C251.66 263.604 251.612 265.69 253.019 265.595H253.067C253.262 265.785 253.553 265.927 253.892 265.927C259.472 266.069 261.024 270.904 261.461 275.502C261.316 276.687 261.364 277.967 261.558 279.294L261.607 279.578C261.801 280.811 263.742 280.431 263.742 279.294C263.742 278.061 263.742 276.734 263.596 275.407C264.081 270.904 266.992 267.301 271.553 265.595L272.62 265.263C273.882 264.742 273.397 262.846 272.038 263.225ZM262.674 270.856C261.704 267.965 260.054 265.548 257.095 264.457C260.103 262.893 261.752 260.002 262.82 256.731C263.547 260.286 264.712 264.078 267.38 265.405C265.246 266.827 263.644 268.723 262.674 270.856Z" fill="#8AC0B4"/>
</g>
<defs>
<filter id="filter0_d_82_189" x="194.506" y="155.753" width="40.449" height="38.8759" filterUnits="userSpaceOnUse" color-interpolation-filters="sRGB">
<feFlood flood-opacity="0" result="BackgroundImageFix"/>
<feColorMatrix in="SourceAlpha" type="matrix" values="0 0 0 0 0 0 0 0 0 0 0 0 0 0 0 0 0 0 127 0" result="hardAlpha"/>
<feOffset dy="2.24716"/>
<feGaussianBlur stdDeviation="2.24716"/>
<feComposite in2="hardAlpha" operator="out"/>
<feColorMatrix type="matrix" values="0 0 0 0 0.691667 0 0 0 0 0.680139 0 0 0 0 0.680139 0 0 0 0.25 0"/>
<feBlend mode="normal" in2="BackgroundImageFix" result="effect1_dropShadow_82_189"/>
<feBlend mode="normal" in="SourceGraphic" in2="effect1_dropShadow_82_189" result="shape"/>
</filter>
<filter id="filter1_d_82_189" x="69.5411" y="234.124" width="53.9656" height="45.3417" filterUnits="userSpaceOnUse" color-interpolation-filters="sRGB">
<feFlood flood-opacity="0" result="BackgroundImageFix"/>
<feColorMatrix in="SourceAlpha" type="matrix" values="0 0 0 0 0 0 0 0 0 0 0 0 0 0 0 0 0 0 127 0" result="hardAlpha"/>
<feOffset dy="2.24716"/>
<feGaussianBlur stdDeviation="2.24716"/>
<feComposite in2="hardAlpha" operator="out"/>
<feColorMatrix type="matrix" values="0 0 0 0 0.691667 0 0 0 0 0.680139 0 0 0 0 0.680139 0 0 0 0.25 0"/>
<feBlend mode="normal" in2="BackgroundImageFix" result="effect1_dropShadow_82_189"/>
<feBlend mode="normal" in="SourceGraphic" in2="effect1_dropShadow_82_189" result="shape"/>
</filter>
<clipPath id="clip0_82_189">
<rect width="21.348" height="30.3367" fill="white" transform="translate(252 250)"/>
</clipPath>
</defs>
</svg>
