<svg width="256" height="337" viewBox="0 0 256 337" fill="none" xmlns="http://www.w3.org/2000/svg">
<path d="M38.9531 17H37.4971L31.6411 8.12V17H30.1851V5.832H31.6411L37.4971 14.696V5.832H38.9531V17ZM45.2591 17.144C44.4378 17.144 43.6911 16.9573 43.0191 16.584C42.3578 16.2107 41.8351 15.6827 41.4511 15C41.0778 14.3067 40.8911 13.5067 40.8911 12.6C40.8911 11.704 41.0831 10.9147 41.4671 10.232C41.8618 9.53867 42.3951 9.01067 43.0671 8.648C43.7391 8.27467 44.4911 8.088 45.3231 8.088C46.1551 8.088 46.9071 8.27467 47.5791 8.648C48.2511 9.01067 48.7791 9.53333 49.1631 10.216C49.5578 10.8987 49.7551 11.6933 49.7551 12.6C49.7551 13.5067 49.5525 14.3067 49.1471 15C48.7525 15.6827 48.2138 16.2107 47.5311 16.584C46.8485 16.9573 46.0911 17.144 45.2591 17.144ZM45.2591 15.864C45.7818 15.864 46.2725 15.7413 46.7311 15.496C47.1898 15.2507 47.5578 14.8827 47.8351 14.392C48.1231 13.9013 48.2671 13.304 48.2671 12.6C48.2671 11.896 48.1285 11.2987 47.8511 10.808C47.5738 10.3173 47.2111 9.95467 46.7631 9.72C46.3151 9.47467 45.8298 9.352 45.3071 9.352C44.7738 9.352 44.2831 9.47467 43.8351 9.72C43.3978 9.95467 43.0458 10.3173 42.7791 10.808C42.5125 11.2987 42.3791 11.896 42.3791 12.6C42.3791 13.3147 42.5071 13.9173 42.7631 14.408C43.0298 14.8987 43.3818 15.2667 43.8191 15.512C44.2565 15.7467 44.7365 15.864 45.2591 15.864ZM60.2871 8.072C60.9485 8.072 61.5458 8.216 62.0791 8.504C62.6125 8.78133 63.0285 9.20267 63.3271 9.768C63.6365 10.3333 63.7911 11.0213 63.7911 11.832V17H62.3511V12.04C62.3511 11.1653 62.1325 10.4987 61.6951 10.04C61.2578 9.57067 60.6605 9.336 59.9031 9.336C59.1351 9.336 58.5218 9.576 58.0631 10.056C57.6151 10.536 57.3911 11.2347 57.3911 12.152V17H55.9351V5.16H57.3911V9.48C57.6791 9.032 58.0738 8.68533 58.5751 8.44C59.0871 8.19467 59.6578 8.072 60.2871 8.072ZM65.6255 12.584C65.6255 11.688 65.8068 10.904 66.1695 10.232C66.5322 9.54933 67.0282 9.02133 67.6575 8.648C68.2975 8.27467 69.0068 8.088 69.7855 8.088C70.5535 8.088 71.2202 8.25333 71.7855 8.584C72.3508 8.91467 72.7722 9.33067 73.0495 9.832V8.232H74.5215V17H73.0495V15.368C72.7615 15.88 72.3295 16.3067 71.7535 16.648C71.1882 16.9787 70.5268 17.144 69.7695 17.144C68.9908 17.144 68.2868 16.952 67.6575 16.568C67.0282 16.184 66.5322 15.6453 66.1695 14.952C65.8068 14.2587 65.6255 13.4693 65.6255 12.584ZM73.0495 12.6C73.0495 11.9387 72.9162 11.3627 72.6495 10.872C72.3828 10.3813 72.0202 10.008 71.5615 9.752C71.1135 9.48533 70.6175 9.352 70.0735 9.352C69.5295 9.352 69.0335 9.48 68.5855 9.736C68.1375 9.992 67.7802 10.3653 67.5135 10.856C67.2468 11.3467 67.1135 11.9227 67.1135 12.584C67.1135 13.256 67.2468 13.8427 67.5135 14.344C67.7802 14.8347 68.1375 15.2133 68.5855 15.48C69.0335 15.736 69.5295 15.864 70.0735 15.864C70.6175 15.864 71.1135 15.736 71.5615 15.48C72.0202 15.2133 72.3828 14.8347 72.6495 14.344C72.9162 13.8427 73.0495 13.2613 73.0495 12.6ZM78.438 9.864C78.7367 9.34133 79.174 8.91467 79.75 8.584C80.326 8.25333 80.982 8.088 81.718 8.088C82.5073 8.088 83.2167 8.27467 83.846 8.648C84.4753 9.02133 84.9713 9.54933 85.334 10.232C85.6967 10.904 85.878 11.688 85.878 12.584C85.878 13.4693 85.6967 14.2587 85.334 14.952C84.9713 15.6453 84.47 16.184 83.83 16.568C83.2007 16.952 82.4967 17.144 81.718 17.144C80.9607 17.144 80.294 16.9787 79.718 16.648C79.1527 16.3173 78.726 15.896 78.438 15.384V17H76.982V5.16H78.438V9.864ZM84.39 12.584C84.39 11.9227 84.2567 11.3467 83.99 10.856C83.7233 10.3653 83.3607 9.992 82.902 9.736C82.454 9.48 81.958 9.352 81.414 9.352C80.8807 9.352 80.3847 9.48533 79.926 9.752C79.478 10.008 79.1153 10.3867 78.838 10.888C78.5713 11.3787 78.438 11.9493 78.438 12.6C78.438 13.2613 78.5713 13.8427 78.838 14.344C79.1153 14.8347 79.478 15.2133 79.926 15.48C80.3847 15.736 80.8807 15.864 81.414 15.864C81.958 15.864 82.454 15.736 82.902 15.48C83.3607 15.2133 83.7233 14.8347 83.99 14.344C84.2567 13.8427 84.39 13.256 84.39 12.584ZM88.5465 6.808C88.2692 6.808 88.0345 6.712 87.8425 6.52C87.6505 6.328 87.5545 6.09333 87.5545 5.816C87.5545 5.53867 87.6505 5.304 87.8425 5.112C88.0345 4.92 88.2692 4.824 88.5465 4.824C88.8132 4.824 89.0372 4.92 89.2185 5.112C89.4105 5.304 89.5065 5.53867 89.5065 5.816C89.5065 6.09333 89.4105 6.328 89.2185 6.52C89.0372 6.712 88.8132 6.808 88.5465 6.808ZM89.2505 8.232V17H87.7945V8.232H89.2505ZM93.508 9.432V14.6C93.508 15.0267 93.5987 15.3307 93.78 15.512C93.9613 15.6827 94.276 15.768 94.724 15.768H95.796V17H94.484C93.6733 17 93.0653 16.8133 92.66 16.44C92.2547 16.0667 92.052 15.4533 92.052 14.6V9.432H90.916V8.232H92.052V6.024H93.508V8.232H95.796V9.432H93.508ZM100.664 17.144C99.9921 17.144 99.3895 17.032 98.8561 16.808C98.3228 16.5733 97.9015 16.2533 97.5921 15.848C97.2828 15.432 97.1121 14.9573 97.0801 14.424H98.5841C98.6268 14.8613 98.8295 15.2187 99.1921 15.496C99.5655 15.7733 100.051 15.912 100.648 15.912C101.203 15.912 101.64 15.7893 101.96 15.544C102.28 15.2987 102.44 14.9893 102.44 14.616C102.44 14.232 102.269 13.9493 101.928 13.768C101.587 13.576 101.059 13.3893 100.344 13.208C99.6935 13.0373 99.1601 12.8667 98.7441 12.696C98.3388 12.5147 97.9868 12.2533 97.6881 11.912C97.4001 11.56 97.2561 11.1013 97.2561 10.536C97.2561 10.088 97.3895 9.67733 97.6561 9.304C97.9228 8.93067 98.3015 8.63733 98.7921 8.424C99.2828 8.2 99.8428 8.088 100.472 8.088C101.443 8.088 102.227 8.33333 102.824 8.824C103.421 9.31467 103.741 9.98667 103.784 10.84H102.328C102.296 10.3813 102.109 10.0133 101.768 9.736C101.437 9.45867 100.989 9.32 100.424 9.32C99.9015 9.32 99.4855 9.432 99.1761 9.656C98.8668 9.88 98.7121 10.1733 98.7121 10.536C98.7121 10.824 98.8028 11.064 98.9841 11.256C99.1761 11.4373 99.4108 11.5867 99.6881 11.704C99.9761 11.8107 100.371 11.9333 100.872 12.072C101.501 12.2427 102.013 12.4133 102.408 12.584C102.803 12.744 103.139 12.9893 103.416 13.32C103.704 13.6507 103.853 14.0827 103.864 14.616C103.864 15.096 103.731 15.528 103.464 15.912C103.197 16.296 102.819 16.6 102.328 16.824C101.848 17.0373 101.293 17.144 100.664 17.144ZM114.537 8.072C115.198 8.072 115.796 8.216 116.329 8.504C116.862 8.78133 117.278 9.20267 117.577 9.768C117.886 10.3333 118.041 11.0213 118.041 11.832V17H116.601V12.04C116.601 11.1653 116.382 10.4987 115.945 10.04C115.508 9.57067 114.91 9.336 114.153 9.336C113.385 9.336 112.772 9.576 112.313 10.056C111.865 10.536 111.641 11.2347 111.641 12.152V17H110.185V5.16H111.641V9.48C111.929 9.032 112.324 8.68533 112.825 8.44C113.337 8.19467 113.908 8.072 114.537 8.072ZM119.876 12.584C119.876 11.688 120.057 10.904 120.42 10.232C120.782 9.54933 121.278 9.02133 121.908 8.648C122.548 8.27467 123.257 8.088 124.036 8.088C124.804 8.088 125.47 8.25333 126.036 8.584C126.601 8.91467 127.022 9.33067 127.3 9.832V8.232H128.772V17H127.3V15.368C127.012 15.88 126.58 16.3067 126.004 16.648C125.438 16.9787 124.777 17.144 124.02 17.144C123.241 17.144 122.537 16.952 121.908 16.568C121.278 16.184 120.782 15.6453 120.42 14.952C120.057 14.2587 119.876 13.4693 119.876 12.584ZM127.3 12.6C127.3 11.9387 127.166 11.3627 126.9 10.872C126.633 10.3813 126.27 10.008 125.812 9.752C125.364 9.48533 124.868 9.352 124.324 9.352C123.78 9.352 123.284 9.48 122.836 9.736C122.388 9.992 122.03 10.3653 121.764 10.856C121.497 11.3467 121.364 11.9227 121.364 12.584C121.364 13.256 121.497 13.8427 121.764 14.344C122.03 14.8347 122.388 15.2133 122.836 15.48C123.284 15.736 123.78 15.864 124.324 15.864C124.868 15.864 125.364 15.736 125.812 15.48C126.27 15.2133 126.633 14.8347 126.9 14.344C127.166 13.8427 127.3 13.2613 127.3 12.6ZM134.496 15.656L137.216 8.232H138.768L135.328 17H133.632L130.192 8.232H131.76L134.496 15.656ZM148.201 12.28C148.201 12.5573 148.185 12.8507 148.153 13.16H141.145C141.198 14.024 141.491 14.7013 142.025 15.192C142.569 15.672 143.225 15.912 143.993 15.912C144.622 15.912 145.145 15.768 145.561 15.48C145.987 15.1813 146.286 14.7867 146.457 14.296H148.025C147.79 15.1387 147.321 15.8267 146.617 16.36C145.913 16.8827 145.038 17.144 143.993 17.144C143.161 17.144 142.414 16.9573 141.753 16.584C141.102 16.2107 140.59 15.6827 140.217 15C139.843 14.3067 139.657 13.5067 139.657 12.6C139.657 11.6933 139.838 10.8987 140.201 10.216C140.563 9.53333 141.07 9.01067 141.721 8.648C142.382 8.27467 143.139 8.088 143.993 8.088C144.825 8.088 145.561 8.26933 146.201 8.632C146.841 8.99467 147.331 9.496 147.673 10.136C148.025 10.7653 148.201 11.48 148.201 12.28ZM146.697 11.976C146.697 11.4213 146.574 10.9467 146.329 10.552C146.083 10.1467 145.747 9.84267 145.321 9.64C144.905 9.42667 144.441 9.32 143.929 9.32C143.193 9.32 142.563 9.55467 142.041 10.024C141.529 10.4933 141.235 11.144 141.161 11.976H146.697ZM155.844 9.864C156.143 9.34133 156.58 8.91467 157.156 8.584C157.732 8.25333 158.388 8.088 159.124 8.088C159.914 8.088 160.623 8.27467 161.252 8.648C161.882 9.02133 162.378 9.54933 162.74 10.232C163.103 10.904 163.284 11.688 163.284 12.584C163.284 13.4693 163.103 14.2587 162.74 14.952C162.378 15.6453 161.876 16.184 161.236 16.568C160.607 16.952 159.903 17.144 159.124 17.144C158.367 17.144 157.7 16.9787 157.124 16.648C156.559 16.3173 156.132 15.896 155.844 15.384V17H154.388V5.16H155.844V9.864ZM161.796 12.584C161.796 11.9227 161.663 11.3467 161.396 10.856C161.13 10.3653 160.767 9.992 160.308 9.736C159.86 9.48 159.364 9.352 158.82 9.352C158.287 9.352 157.791 9.48533 157.332 9.752C156.884 10.008 156.522 10.3867 156.244 10.888C155.978 11.3787 155.844 11.9493 155.844 12.6C155.844 13.2613 155.978 13.8427 156.244 14.344C156.522 14.8347 156.884 15.2133 157.332 15.48C157.791 15.736 158.287 15.864 158.82 15.864C159.364 15.864 159.86 15.736 160.308 15.48C160.767 15.2133 161.13 14.8347 161.396 14.344C161.663 13.8427 161.796 13.256 161.796 12.584ZM173.201 12.28C173.201 12.5573 173.185 12.8507 173.153 13.16H166.145C166.198 14.024 166.491 14.7013 167.025 15.192C167.569 15.672 168.225 15.912 168.993 15.912C169.622 15.912 170.145 15.768 170.561 15.48C170.987 15.1813 171.286 14.7867 171.457 14.296H173.025C172.79 15.1387 172.321 15.8267 171.617 16.36C170.913 16.8827 170.038 17.144 168.993 17.144C168.161 17.144 167.414 16.9573 166.753 16.584C166.102 16.2107 165.59 15.6827 165.217 15C164.843 14.3067 164.657 13.5067 164.657 12.6C164.657 11.6933 164.838 10.8987 165.201 10.216C165.563 9.53333 166.07 9.01067 166.721 8.648C167.382 8.27467 168.139 8.088 168.993 8.088C169.825 8.088 170.561 8.26933 171.201 8.632C171.841 8.99467 172.331 9.496 172.673 10.136C173.025 10.7653 173.201 11.48 173.201 12.28ZM171.697 11.976C171.697 11.4213 171.574 10.9467 171.329 10.552C171.083 10.1467 170.747 9.84267 170.321 9.64C169.905 9.42667 169.441 9.32 168.929 9.32C168.193 9.32 167.563 9.55467 167.041 10.024C166.529 10.4933 166.235 11.144 166.161 11.976H171.697ZM183.123 12.28C183.123 12.5573 183.107 12.8507 183.075 13.16H176.067C176.12 14.024 176.413 14.7013 176.947 15.192C177.491 15.672 178.147 15.912 178.915 15.912C179.544 15.912 180.067 15.768 180.483 15.48C180.909 15.1813 181.208 14.7867 181.379 14.296H182.947C182.712 15.1387 182.243 15.8267 181.539 16.36C180.835 16.8827 179.96 17.144 178.915 17.144C178.083 17.144 177.336 16.9573 176.675 16.584C176.024 16.2107 175.512 15.6827 175.139 15C174.765 14.3067 174.579 13.5067 174.579 12.6C174.579 11.6933 174.76 10.8987 175.123 10.216C175.485 9.53333 175.992 9.01067 176.643 8.648C177.304 8.27467 178.061 8.088 178.915 8.088C179.747 8.088 180.483 8.26933 181.123 8.632C181.763 8.99467 182.253 9.496 182.595 10.136C182.947 10.7653 183.123 11.48 183.123 12.28ZM181.619 11.976C181.619 11.4213 181.496 10.9467 181.251 10.552C181.005 10.1467 180.669 9.84267 180.243 9.64C179.827 9.42667 179.363 9.32 178.851 9.32C178.115 9.32 177.485 9.55467 176.963 10.024C176.451 10.4933 176.157 11.144 176.083 11.976H181.619ZM189.317 8.072C190.383 8.072 191.247 8.39733 191.909 9.048C192.57 9.688 192.901 10.616 192.901 11.832V17H191.461V12.04C191.461 11.1653 191.242 10.4987 190.805 10.04C190.367 9.57067 189.77 9.336 189.013 9.336C188.245 9.336 187.631 9.576 187.173 10.056C186.725 10.536 186.501 11.2347 186.501 12.152V17H185.045V8.232H186.501V9.48C186.789 9.032 187.178 8.68533 187.669 8.44C188.17 8.19467 188.719 8.072 189.317 8.072ZM37.7505 35.6C37.7505 34.6933 37.9318 33.904 38.2945 33.232C38.6572 32.5493 39.1585 32.0213 39.7985 31.648C40.4492 31.2747 41.1905 31.088 42.0225 31.088C43.0998 31.088 43.9852 31.3493 44.6785 31.872C45.3825 32.3947 45.8465 33.12 46.0705 34.048H44.5025C44.3532 33.5147 44.0598 33.0933 43.6225 32.784C43.1958 32.4747 42.6625 32.32 42.0225 32.32C41.1905 32.32 40.5185 32.608 40.0065 33.184C39.4945 33.7493 39.2385 34.5547 39.2385 35.6C39.2385 36.656 39.4945 37.472 40.0065 38.048C40.5185 38.624 41.1905 38.912 42.0225 38.912C42.6625 38.912 43.1958 38.7627 43.6225 38.464C44.0492 38.1653 44.3425 37.7387 44.5025 37.184H46.0705C45.8358 38.08 45.3665 38.8 44.6625 39.344C43.9585 39.8773 43.0785 40.144 42.0225 40.144C41.1905 40.144 40.4492 39.9573 39.7985 39.584C39.1585 39.2107 38.6572 38.6827 38.2945 38C37.9318 37.3173 37.7505 36.5173 37.7505 35.6ZM51.8373 40.144C51.0159 40.144 50.2693 39.9573 49.5973 39.584C48.9359 39.2107 48.4133 38.6827 48.0293 38C47.6559 37.3067 47.4693 36.5067 47.4693 35.6C47.4693 34.704 47.6613 33.9147 48.0453 33.232C48.4399 32.5387 48.9733 32.0107 49.6453 31.648C50.3173 31.2747 51.0693 31.088 51.9013 31.088C52.7333 31.088 53.4853 31.2747 54.1573 31.648C54.8293 32.0107 55.3573 32.5333 55.7413 33.216C56.1359 33.8987 56.3333 34.6933 56.3333 35.6C56.3333 36.5067 56.1306 37.3067 55.7253 38C55.3306 38.6827 54.7919 39.2107 54.1093 39.584C53.4266 39.9573 52.6693 40.144 51.8373 40.144ZM51.8373 38.864C52.3599 38.864 52.8506 38.7413 53.3093 38.496C53.7679 38.2507 54.1359 37.8827 54.4133 37.392C54.7013 36.9013 54.8453 36.304 54.8453 35.6C54.8453 34.896 54.7066 34.2987 54.4293 33.808C54.1519 33.3173 53.7893 32.9547 53.3413 32.72C52.8933 32.4747 52.4079 32.352 51.8853 32.352C51.3519 32.352 50.8613 32.4747 50.4133 32.72C49.9759 32.9547 49.6239 33.3173 49.3573 33.808C49.0906 34.2987 48.9573 34.896 48.9573 35.6C48.9573 36.3147 49.0853 36.9173 49.3413 37.408C49.6079 37.8987 49.9599 38.2667 50.3973 38.512C50.8346 38.7467 51.3146 38.864 51.8373 38.864ZM68.7916 31.072C69.4743 31.072 70.0823 31.216 70.6156 31.504C71.149 31.7813 71.5703 32.2027 71.8796 32.768C72.189 33.3333 72.3436 34.0213 72.3436 34.832V40H70.9036V35.04C70.9036 34.1653 70.685 33.4987 70.2476 33.04C69.821 32.5707 69.2396 32.336 68.5036 32.336C67.7463 32.336 67.1436 32.5813 66.6956 33.072C66.2476 33.552 66.0236 34.2507 66.0236 35.168V40H64.5836V35.04C64.5836 34.1653 64.365 33.4987 63.9276 33.04C63.501 32.5707 62.9196 32.336 62.1836 32.336C61.4263 32.336 60.8236 32.5813 60.3756 33.072C59.9276 33.552 59.7036 34.2507 59.7036 35.168V40H58.2476V31.232H59.7036V32.496C59.9916 32.0373 60.3756 31.6853 60.8556 31.44C61.3463 31.1947 61.885 31.072 62.4716 31.072C63.2076 31.072 63.8583 31.2373 64.4236 31.568C64.989 31.8987 65.4103 32.384 65.6876 33.024C65.933 32.4053 66.3383 31.9253 66.9036 31.584C67.469 31.2427 68.0983 31.072 68.7916 31.072ZM76.188 32.848C76.476 32.3467 76.9027 31.9307 77.468 31.6C78.044 31.2587 78.7107 31.088 79.468 31.088C80.2467 31.088 80.9507 31.2747 81.58 31.648C82.22 32.0213 82.7213 32.5493 83.084 33.232C83.4467 33.904 83.628 34.688 83.628 35.584C83.628 36.4693 83.4467 37.2587 83.084 37.952C82.7213 38.6453 82.22 39.184 81.58 39.568C80.9507 39.952 80.2467 40.144 79.468 40.144C78.7213 40.144 78.06 39.9787 77.484 39.648C76.9187 39.3067 76.4867 38.8853 76.188 38.384V44.16H74.732V31.232H76.188V32.848ZM82.14 35.584C82.14 34.9227 82.0067 34.3467 81.74 33.856C81.4733 33.3653 81.1107 32.992 80.652 32.736C80.204 32.48 79.708 32.352 79.164 32.352C78.6307 32.352 78.1347 32.4853 77.676 32.752C77.228 33.008 76.8653 33.3867 76.588 33.888C76.3213 34.3787 76.188 34.9493 76.188 35.6C76.188 36.2613 76.3213 36.8427 76.588 37.344C76.8653 37.8347 77.228 38.2133 77.676 38.48C78.1347 38.736 78.6307 38.864 79.164 38.864C79.708 38.864 80.204 38.736 80.652 38.48C81.1107 38.2133 81.4733 37.8347 81.74 37.344C82.0067 36.8427 82.14 36.256 82.14 35.584ZM87.0005 28.16V40H85.5445V28.16H87.0005ZM97.482 35.28C97.482 35.5573 97.466 35.8507 97.434 36.16H90.426C90.4793 37.024 90.7727 37.7013 91.306 38.192C91.85 38.672 92.506 38.912 93.274 38.912C93.9033 38.912 94.426 38.768 94.842 38.48C95.2687 38.1813 95.5673 37.7867 95.738 37.296H97.306C97.0713 38.1387 96.602 38.8267 95.898 39.36C95.194 39.8827 94.3193 40.144 93.274 40.144C92.442 40.144 91.6953 39.9573 91.034 39.584C90.3833 39.2107 89.8713 38.6827 89.498 38C89.1247 37.3067 88.938 36.5067 88.938 35.6C88.938 34.6933 89.1193 33.8987 89.482 33.216C89.8447 32.5333 90.3513 32.0107 91.002 31.648C91.6633 31.2747 92.4207 31.088 93.274 31.088C94.106 31.088 94.842 31.2693 95.482 31.632C96.122 31.9947 96.6127 32.496 96.954 33.136C97.306 33.7653 97.482 34.48 97.482 35.28ZM95.978 34.976C95.978 34.4213 95.8553 33.9467 95.61 33.552C95.3647 33.1467 95.0287 32.8427 94.602 32.64C94.186 32.4267 93.722 32.32 93.21 32.32C92.474 32.32 91.8447 32.5547 91.322 33.024C90.81 33.4933 90.5167 34.144 90.442 34.976H95.978ZM101.18 32.432V37.6C101.18 38.0267 101.271 38.3307 101.452 38.512C101.633 38.6827 101.948 38.768 102.396 38.768H103.468V40H102.156C101.345 40 100.737 39.8133 100.332 39.44C99.9265 39.0667 99.7239 38.4533 99.7239 37.6V32.432H98.5879V31.232H99.7239V29.024H101.18V31.232H103.468V32.432H101.18ZM113.232 35.28C113.232 35.5573 113.216 35.8507 113.184 36.16H106.176C106.229 37.024 106.523 37.7013 107.056 38.192C107.6 38.672 108.256 38.912 109.024 38.912C109.653 38.912 110.176 38.768 110.592 38.48C111.019 38.1813 111.317 37.7867 111.488 37.296H113.056C112.821 38.1387 112.352 38.8267 111.648 39.36C110.944 39.8827 110.069 40.144 109.024 40.144C108.192 40.144 107.445 39.9573 106.784 39.584C106.133 39.2107 105.621 38.6827 105.248 38C104.875 37.3067 104.688 36.5067 104.688 35.6C104.688 34.6933 104.869 33.8987 105.232 33.216C105.595 32.5333 106.101 32.0107 106.752 31.648C107.413 31.2747 108.171 31.088 109.024 31.088C109.856 31.088 110.592 31.2693 111.232 31.632C111.872 31.9947 112.363 32.496 112.704 33.136C113.056 33.7653 113.232 34.48 113.232 35.28ZM111.728 34.976C111.728 34.4213 111.605 33.9467 111.36 33.552C111.115 33.1467 110.779 32.8427 110.352 32.64C109.936 32.4267 109.472 32.32 108.96 32.32C108.224 32.32 107.595 32.5547 107.072 33.024C106.56 33.4933 106.267 34.144 106.192 34.976H111.728ZM114.61 35.584C114.61 34.688 114.791 33.904 115.154 33.232C115.517 32.5493 116.013 32.0213 116.642 31.648C117.282 31.2747 117.997 31.088 118.786 31.088C119.469 31.088 120.103 31.248 120.69 31.568C121.277 31.8773 121.725 32.288 122.034 32.8V28.16H123.506V40H122.034V38.352C121.746 38.8747 121.319 39.3067 120.754 39.648C120.189 39.9787 119.527 40.144 118.77 40.144C117.991 40.144 117.282 39.952 116.642 39.568C116.013 39.184 115.517 38.6453 115.154 37.952C114.791 37.2587 114.61 36.4693 114.61 35.584ZM122.034 35.6C122.034 34.9387 121.901 34.3627 121.634 33.872C121.367 33.3813 121.005 33.008 120.546 32.752C120.098 32.4853 119.602 32.352 119.058 32.352C118.514 32.352 118.018 32.48 117.57 32.736C117.122 32.992 116.765 33.3653 116.498 33.856C116.231 34.3467 116.098 34.9227 116.098 35.584C116.098 36.256 116.231 36.8427 116.498 37.344C116.765 37.8347 117.122 38.2133 117.57 38.48C118.018 38.736 118.514 38.864 119.058 38.864C119.602 38.864 120.098 38.736 120.546 38.48C121.005 38.2133 121.367 37.8347 121.634 37.344C121.901 36.8427 122.034 36.2613 122.034 35.6ZM131.688 32.864C131.987 32.3413 132.424 31.9147 133 31.584C133.576 31.2533 134.232 31.088 134.968 31.088C135.757 31.088 136.467 31.2747 137.096 31.648C137.725 32.0213 138.221 32.5493 138.584 33.232C138.947 33.904 139.128 34.688 139.128 35.584C139.128 36.4693 138.947 37.2587 138.584 37.952C138.221 38.6453 137.72 39.184 137.08 39.568C136.451 39.952 135.747 40.144 134.968 40.144C134.211 40.144 133.544 39.9787 132.968 39.648C132.403 39.3173 131.976 38.896 131.688 38.384V40H130.232V28.16H131.688V32.864ZM137.64 35.584C137.64 34.9227 137.507 34.3467 137.24 33.856C136.973 33.3653 136.611 32.992 136.152 32.736C135.704 32.48 135.208 32.352 134.664 32.352C134.131 32.352 133.635 32.4853 133.176 32.752C132.728 33.008 132.365 33.3867 132.088 33.888C131.821 34.3787 131.688 34.9493 131.688 35.6C131.688 36.2613 131.821 36.8427 132.088 37.344C132.365 37.8347 132.728 38.2133 133.176 38.48C133.635 38.736 134.131 38.864 134.664 38.864C135.208 38.864 135.704 38.736 136.152 38.48C136.611 38.2133 136.973 37.8347 137.24 37.344C137.507 36.8427 137.64 36.256 137.64 35.584ZM148.597 31.232L143.317 44.128H141.812L143.541 39.904L140.005 31.232H141.621L144.373 38.336L147.093 31.232H148.597ZM161.878 31.232L156.598 44.128H155.094L156.822 39.904L153.286 31.232H154.902L157.654 38.336L160.374 31.232H161.878ZM167.165 40.144C166.344 40.144 165.597 39.9573 164.925 39.584C164.264 39.2107 163.741 38.6827 163.357 38C162.984 37.3067 162.797 36.5067 162.797 35.6C162.797 34.704 162.989 33.9147 163.373 33.232C163.768 32.5387 164.301 32.0107 164.973 31.648C165.645 31.2747 166.397 31.088 167.229 31.088C168.061 31.088 168.813 31.2747 169.485 31.648C170.157 32.0107 170.685 32.5333 171.069 33.216C171.464 33.8987 171.661 34.6933 171.661 35.6C171.661 36.5067 171.459 37.3067 171.053 38C170.659 38.6827 170.12 39.2107 169.437 39.584C168.755 39.9573 167.997 40.144 167.165 40.144ZM167.165 38.864C167.688 38.864 168.179 38.7413 168.637 38.496C169.096 38.2507 169.464 37.8827 169.741 37.392C170.029 36.9013 170.173 36.304 170.173 35.6C170.173 34.896 170.035 34.2987 169.757 33.808C169.48 33.3173 169.117 32.9547 168.669 32.72C168.221 32.4747 167.736 32.352 167.213 32.352C166.68 32.352 166.189 32.4747 165.741 32.72C165.304 32.9547 164.952 33.3173 164.685 33.808C164.419 34.2987 164.285 34.896 164.285 35.6C164.285 36.3147 164.413 36.9173 164.669 37.408C164.936 37.8987 165.288 38.2667 165.725 38.512C166.163 38.7467 166.643 38.864 167.165 38.864ZM181.352 31.232V40H179.896V38.704C179.618 39.152 179.229 39.504 178.728 39.76C178.237 40.0053 177.693 40.128 177.096 40.128C176.413 40.128 175.8 39.9893 175.256 39.712C174.712 39.424 174.28 38.9973 173.96 38.432C173.65 37.8667 173.496 37.1787 173.496 36.368V31.232H174.936V36.176C174.936 37.04 175.154 37.7067 175.592 38.176C176.029 38.6347 176.626 38.864 177.384 38.864C178.162 38.864 178.776 38.624 179.224 38.144C179.672 37.664 179.896 36.9653 179.896 36.048V31.232H181.352ZM184.274 40.096C183.997 40.096 183.762 40 183.57 39.808C183.378 39.616 183.282 39.3813 183.282 39.104C183.282 38.8267 183.378 38.592 183.57 38.4C183.762 38.208 183.997 38.112 184.274 38.112C184.541 38.112 184.765 38.208 184.946 38.4C185.138 38.592 185.234 38.8267 185.234 39.104C185.234 39.3813 185.138 39.616 184.946 39.808C184.765 40 184.541 40.096 184.274 40.096Z" fill="#999696"/>
<path d="M193.155 241.611C192.382 240.564 191.671 239.473 191.022 238.346L190.414 238.697C189.532 237.167 188.763 235.572 188.106 233.929L188.758 233.668C188.276 232.463 187.855 231.231 187.495 229.978L186.819 230.173C186.333 228.481 185.956 226.754 185.688 225.007L186.382 224.901C186.185 223.617 186.048 222.322 185.971 221.022L185.27 221.064C185.165 219.305 185.168 217.539 185.279 215.78L185.98 215.824C186.061 214.525 186.203 213.23 186.403 211.947L185.709 211.838C185.982 210.093 186.364 208.367 186.853 206.676L187.528 206.871C187.89 205.62 188.313 204.388 188.795 203.183L188.143 202.922C188.472 202.101 188.828 201.293 189.212 200.498C189.616 199.662 190.007 198.817 190.384 197.966L191.026 198.251C191.596 196.968 192.135 195.668 192.644 194.354L191.988 194.1C192.657 192.371 193.273 190.614 193.832 188.833L194.503 189.044C194.923 187.706 195.312 186.354 195.67 184.989L194.99 184.811C195.459 183.019 195.872 181.205 196.228 179.37L196.917 179.503C197.184 178.128 197.419 176.74 197.62 175.342L196.925 175.242C197.189 173.411 197.395 171.562 197.543 169.696L198.244 169.752C198.354 168.356 198.432 166.951 198.477 165.538L197.775 165.516C197.804 164.589 197.819 163.659 197.819 162.725C197.819 161.789 197.804 160.857 197.775 159.929L198.477 159.906C198.432 158.493 198.354 157.089 198.243 155.694L197.543 155.749C197.395 153.884 197.188 152.036 196.925 150.206L197.62 150.106C197.418 148.708 197.184 147.321 196.917 145.945L196.228 146.079C195.872 144.245 195.459 142.431 194.99 140.64L195.67 140.462C195.313 139.097 194.924 137.745 194.503 136.407L193.833 136.618C193.273 134.837 192.658 133.08 191.989 131.35L192.644 131.096C192.135 129.782 191.596 128.483 191.027 127.2L190.385 127.484C189.629 125.78 188.819 124.104 187.959 122.46L188.582 122.134C187.929 120.886 187.247 119.656 186.536 118.444L185.93 118.799C184.988 117.192 183.996 115.618 182.956 114.079L183.539 113.685C182.75 112.519 181.935 111.372 181.093 110.247L180.531 110.668C179.415 109.177 178.253 107.722 177.047 106.308L177.581 105.852C176.669 104.781 175.731 103.733 174.768 102.708L174.256 103.188C172.982 101.832 171.666 100.516 170.309 99.2436L170.789 98.7312C169.763 97.7693 168.715 96.8319 167.643 95.9197L167.188 96.4545C165.772 95.2489 164.317 94.0878 162.826 92.9735L163.246 92.4107C162.12 91.5695 160.973 90.7547 159.806 89.9672L159.413 90.5495C157.874 89.5104 156.299 88.5192 154.691 87.5781L155.046 86.9719C153.834 86.2623 152.603 85.5809 151.355 84.9287L151.03 85.5513C149.384 84.6918 147.708 83.8833 146.004 83.128L146.288 82.4857C145.005 81.9171 143.705 81.3784 142.391 80.8704L142.137 81.5257C140.407 80.8572 138.65 80.2424 136.869 79.6833L137.079 79.013C135.741 78.5931 134.389 78.2043 133.024 77.8476L132.846 78.5273C131.055 78.0591 129.241 77.6465 127.407 77.2915L127.54 76.6017C126.165 76.3355 124.777 76.1014 123.38 75.9001L123.28 76.5955C121.45 76.3321 119.601 76.1255 117.736 75.9778L117.792 75.2774C116.396 75.1669 114.992 75.0889 113.579 75.0444L113.557 75.7465C112.628 75.7173 111.696 75.7025 110.76 75.7025C109.825 75.7025 108.892 75.7173 107.964 75.7465L107.942 75.0444C106.529 75.0889 105.124 75.1669 103.729 75.2775L103.785 75.9778C101.92 76.1255 100.071 76.3321 98.2412 76.5955L98.1411 75.9002C96.7432 76.1014 95.3561 76.3355 93.9803 76.6018L94.1138 77.2915C92.2794 77.6465 90.4656 78.0591 88.6742 78.5273L88.4966 77.8476C87.1317 78.2044 85.7799 78.5931 84.4418 79.0131L84.6521 79.6833C82.8705 80.2424 81.1136 80.8573 79.3833 81.5258L79.1301 80.8705C77.8154 81.3785 76.5159 81.9172 75.2326 82.4858L75.5172 83.128C73.8124 83.8834 72.1363 84.6919 70.4912 85.5514L70.1659 84.9288C68.9175 85.581 67.6867 86.2624 66.4745 86.972L66.8294 87.5782C65.2218 88.5193 63.6471 89.5105 62.1073 90.5496L61.7144 89.9673C60.5475 90.7548 59.4006 91.5696 58.2746 92.4108L58.695 92.9736C57.2033 94.088 55.7485 95.249 54.3329 96.4546L53.8774 95.9198C52.8062 96.832 51.7573 97.7694 50.7315 98.7313L51.212 99.2437C49.8548 100.516 48.5383 101.832 47.2649 103.188L46.7527 102.708C45.7902 103.733 44.8521 104.781 43.9393 105.852L44.4739 106.308C43.2674 107.723 42.1055 109.177 40.9903 110.668L40.4277 110.247C39.5859 111.372 38.7704 112.519 37.9823 113.685L38.5643 114.079C37.5243 115.618 36.5323 117.192 35.5904 118.799L34.9843 118.444C34.274 119.656 33.592 120.886 32.9392 122.134L33.5616 122.46C32.7013 124.104 31.892 125.78 31.1359 127.485L30.4938 127.2C29.9246 128.483 29.3853 129.782 28.8768 131.096L29.532 131.35C28.8628 133.08 28.2473 134.837 27.6875 136.618L27.0173 136.407C26.5969 137.745 26.2077 139.097 25.8506 140.462L26.5302 140.64C26.0615 142.431 25.6484 144.245 25.2929 146.079L24.6033 145.945C24.3367 147.321 24.1023 148.708 23.9008 150.106L24.5962 150.206C24.3324 152.036 24.1256 153.884 23.9777 155.749L23.2774 155.694C23.1667 157.089 23.0886 158.494 23.044 159.906L23.7462 159.929C23.7169 160.857 23.7021 161.789 23.7021 162.725C23.7021 163.638 23.7162 164.548 23.7441 165.455L23.0419 165.476C23.0845 166.858 23.1591 168.232 23.2649 169.597L23.9653 169.543C24.1068 171.368 24.3046 173.177 24.5569 174.969L23.8613 175.067C24.054 176.434 24.2782 177.792 24.5332 179.139L25.2234 179.008C25.5635 180.804 25.9588 182.581 26.4074 184.336L25.7268 184.51C26.0686 185.847 26.4411 187.171 26.8435 188.483L27.5151 188.277C28.0506 190.022 28.6396 191.744 29.2801 193.441L28.6228 193.689C29.1097 194.979 29.6261 196.254 30.1713 197.514L30.816 197.236C31.1777 198.072 31.5521 198.901 31.939 199.723C32.3147 200.521 32.6628 201.333 32.9833 202.157L32.3286 202.412C32.7994 203.621 33.2097 204.857 33.5596 206.112L34.2363 205.923C34.7091 207.619 35.0733 209.349 35.329 211.097L34.6339 211.198C34.8221 212.484 34.9506 213.78 35.0195 215.08L35.721 215.042C35.8143 216.802 35.7999 218.569 35.678 220.327L34.9772 220.278C34.8871 221.577 34.7372 222.87 34.5277 224.152L35.221 224.266C34.9358 226.01 34.5418 227.733 34.0388 229.42L33.3656 229.219C32.9932 230.468 32.56 231.696 32.0661 232.896L32.7158 233.163C32.0424 234.8 31.2577 236.387 30.3615 237.909L29.7562 237.552C29.0961 238.673 28.3746 239.756 27.5917 240.795L28.1529 241.218C27.6211 241.924 27.0614 242.611 26.4737 243.275C25.8794 243.948 25.2932 244.627 24.715 245.314L24.1777 244.861C23.3054 245.897 22.4516 246.949 21.6167 248.016L22.1701 248.449C21.0649 249.862 19.9931 251.302 18.9559 252.768L18.3824 252.363C17.6007 253.468 16.8384 254.588 16.0962 255.722L16.684 256.106C15.7023 257.607 14.7557 259.132 13.8456 260.681L13.2399 260.325C12.5544 261.492 11.8895 262.672 11.2456 263.866L11.8638 264.199C11.0128 265.776 10.1988 267.376 9.42281 268.998L8.78913 268.695C8.2052 269.915 7.6427 271.147 7.10212 272.392L7.74644 272.671C7.03275 274.314 6.35752 275.977 5.72188 277.66L5.06471 277.412C4.5869 278.676 4.13133 279.952 3.69846 281.238L4.36426 281.462C3.79334 283.159 3.26217 284.873 2.77186 286.605L2.09593 286.414C1.72777 287.714 1.38249 289.024 1.06057 290.343L1.74304 290.509C1.5306 291.38 1.32839 292.254 1.13655 293.133L0.675861 293.032L1.13655 293.133C0.949981 293.987 0.825553 294.831 0.759438 295.661L0.0591517 295.606C-0.0488676 296.963 -0.00721261 298.29 0.169938 299.575L0.865858 299.479C1.10161 301.19 1.58717 302.824 2.28715 304.357L1.64815 304.649C2.19901 305.855 2.87728 306.999 3.66662 308.069L4.23191 307.652C5.23579 309.012 6.42756 310.251 7.77201 311.338L7.33017 311.885C8.35142 312.711 9.45674 313.452 10.6312 314.097L10.9693 313.481C12.4495 314.293 14.0441 314.949 15.7214 315.422L15.5306 316.098C16.7905 316.453 18.0952 316.709 19.432 316.856L19.5085 316.157C20.3534 316.25 21.2116 316.298 22.0797 316.298H24.8708V317H29.0575V316.298H34.6397V317H38.8264V316.298H44.4086V317H48.5953V316.298H54.1775V317H58.3641V316.298H63.9463V317H68.133V316.298H73.7152V317H77.9019V316.298H83.4841V317H87.6708V316.298H93.253V317H97.4396V316.298H103.022V317H107.209V316.298H112.791V317H116.977V316.298H122.56V317H126.746V316.298H132.328V317H136.515V316.298H142.097V317H146.284V316.298H151.866V317H156.053V316.298H161.635V317H165.822V316.298H171.404V317H175.591V316.298H181.173V317H185.36V316.298H190.942V317H195.128V316.298H197.919C198.788 316.298 199.646 316.25 200.491 316.157L200.567 316.856C201.904 316.709 203.209 316.454 204.469 316.098L204.278 315.422C205.955 314.949 207.55 314.294 209.03 313.481L209.368 314.097C210.543 313.452 211.648 312.711 212.67 311.885L212.228 311.339C213.572 310.251 214.764 309.013 215.768 307.652L216.333 308.069C217.123 306.999 217.801 305.855 218.352 304.649L217.713 304.357C218.413 302.825 218.898 301.19 219.134 299.479L219.83 299.575C220.007 298.29 220.049 296.963 219.941 295.606L219.241 295.661C219.174 294.831 219.05 293.987 218.863 293.133C218.675 292.271 218.477 291.414 218.269 290.56L218.952 290.394C218.637 289.1 218.299 287.816 217.94 286.54L217.264 286.731C216.785 285.032 216.267 283.35 215.71 281.685L216.377 281.463C215.955 280.201 215.511 278.949 215.046 277.707L214.388 277.953C213.77 276.302 213.113 274.669 212.419 273.055L213.065 272.778C212.539 271.556 211.993 270.345 211.425 269.146L210.79 269.446C210.036 267.853 209.246 266.28 208.42 264.729L209.04 264.399C208.415 263.225 207.77 262.064 207.104 260.916L206.497 261.268C205.613 259.743 204.695 258.242 203.743 256.764L204.333 256.383C203.613 255.266 202.874 254.162 202.116 253.073L201.539 253.474C200.533 252.028 199.494 250.608 198.422 249.213L198.979 248.785C198.169 247.731 197.341 246.693 196.496 245.669L195.954 246.116C195.393 245.438 194.825 244.766 194.249 244.101C193.668 243.431 193.115 242.739 192.59 242.028L193.155 241.611Z" fill="#F1F4FF" stroke="#0000FF" stroke-width="1.405" stroke-dasharray="5.62 4.22"/>
<path d="M210.233 333.679H146.668C137.423 333.679 129.901 326.19 129.901 316.983V151.696C129.901 142.489 137.423 135 146.668 135H210.233C219.479 135 227 142.489 227 151.696V316.983C227 326.19 219.479 333.679 210.233 333.679Z" fill="#3F3D56"/>
<path d="M210.279 329.159H146.622C139.779 329.159 134.21 323.614 134.21 316.8V151.555C134.21 144.741 139.779 139.195 146.622 139.195H210.279C217.122 139.195 222.691 144.741 222.691 151.555V316.8C222.691 323.614 217.122 329.159 210.279 329.159Z" fill="white"/>
<path d="M188.31 143.58H170.309C167.932 143.58 166 141.657 166 139.29C166 136.924 167.932 135 170.309 135H188.31C190.686 135 192.618 136.924 192.618 139.29C192.618 141.657 190.686 143.58 188.31 143.58Z" fill="#3F3D56"/>
<path d="M205.823 223.655H153.149C152.106 223.655 151.257 222.58 151.257 221.262C151.257 219.945 152.106 218.87 153.149 218.87H205.823C206.866 218.87 207.715 219.945 207.715 221.262C207.715 222.58 206.866 223.655 205.823 223.655Z" fill="#DADBDC"/>
<path d="M205.823 234.258H153.149C152.106 234.258 151.257 233.183 151.257 231.865C151.257 230.547 152.106 229.472 153.149 229.472H205.823C206.866 229.472 207.715 230.547 207.715 231.865C207.715 233.183 206.866 234.258 205.823 234.258Z" fill="#DADBDC"/>
<path d="M190.718 244.86H153.149C152.106 244.86 151.257 243.785 151.257 242.468C151.257 241.15 152.106 240.075 153.149 240.075H190.718C191.761 240.075 192.611 241.15 192.611 242.468C192.611 243.785 191.761 244.86 190.718 244.86Z" fill="#DADBDC"/>
<path d="M204.566 182.785H151.893C150.849 182.785 150 181.71 150 180.393C150 179.075 150.849 178 151.893 178H204.566C205.609 178 206.459 179.075 206.459 180.393C206.459 181.71 205.609 182.785 204.566 182.785Z" fill="#DADBDC"/>
<path d="M204.566 193.388H151.893C150.849 193.388 150 192.313 150 190.995C150 189.678 150.849 188.603 151.893 188.603H204.566C205.609 188.603 206.459 189.678 206.459 190.995C206.459 192.313 205.609 193.388 204.566 193.388Z" fill="#DADBDC"/>
<path d="M189.462 203.991H151.893C150.849 203.991 150 202.916 150 201.598C150 200.28 150.849 199.205 151.893 199.205H189.462C190.505 199.205 191.354 200.28 191.354 201.598C191.354 202.916 190.505 203.991 189.462 203.991Z" fill="#DADBDC"/>
<path d="M102.846 205.438L110.047 207.884L110.16 197.532L103.607 197.458L102.846 205.438Z" fill="#F3A3A6"/>
<path d="M103.935 320.668L110.701 320.744L110.593 330.299L103.828 330.224L103.935 320.668Z" fill="#F3A3A6"/>
<path d="M84.7551 312.931L90.4557 316.56L85.2867 324.612L79.5861 320.983L84.7551 312.931Z" fill="#F3A3A6"/>
<path d="M109.317 200.389C105.34 200.389 102.116 197.179 102.116 193.219C102.116 189.259 105.34 186.049 109.317 186.049C113.293 186.049 116.517 189.259 116.517 193.219C116.517 197.179 113.293 200.389 109.317 200.389Z" fill="#F3A3A6"/>
<path d="M107.347 192.488C108.551 192.466 109.356 191.262 109.838 190.158C110.321 189.058 110.817 187.79 111.934 187.344C112.852 186.98 114.434 189.522 115.165 188.859C115.926 188.166 115.23 184.555 114.439 183.901C113.647 183.248 112.556 183.109 111.53 183.048C109.021 182.906 106.499 183.079 104.033 183.564C102.511 183.862 100.937 184.321 99.8285 185.404C98.424 186.776 98.0457 188.868 97.9239 190.825C97.7978 192.825 97.8935 194.925 98.8501 196.692C99.8111 198.454 101.842 199.77 103.812 199.346C104.02 198.285 103.833 197.194 103.768 196.112C103.703 195.033 103.798 193.869 104.468 193.016C105.138 192.163 106.555 191.838 107.316 192.609" fill="#2F2E43"/>
<path d="M98.4632 194.873C97.7501 194.341 96.8935 193.89 96.0064 193.99C95.0454 194.094 94.2279 194.873 93.9714 195.8C93.7148 196.726 93.9801 197.753 94.5628 198.519C95.1454 199.285 96.0194 199.796 96.95 200.056C97.4892 200.208 98.0762 200.273 98.5936 200.056C99.3546 199.74 99.772 198.783 99.485 198.012" fill="#2F2E43"/>
<path d="M125.257 262.614C125.71 264.973 124.809 267.117 123.24 267.398C121.674 267.679 120.035 265.991 119.583 263.631C119.387 262.691 119.431 261.717 119.709 260.795L114.169 223.814L121.631 222.502L124.088 260.011C124.688 260.778 125.092 261.67 125.257 262.618V262.614Z" fill="#F3A3A6"/>
<path d="M110.177 203.135L115.261 203.191C118.848 203.771 119.804 205.694 120.578 209.227C121.766 214.617 123.279 221.801 122.961 221.9C122.453 222.065 113.756 226.022 109.356 225.044L110.177 203.135Z" fill="#6C63FF"/>
<path d="M117.135 336.16C117.848 336.169 118.478 336.16 118.957 336.121C120.757 335.978 122.483 334.675 123.357 333.913C123.748 333.571 123.879 333.017 123.683 332.54C123.544 332.198 123.257 331.939 122.9 331.83L118.165 330.427L110.534 325.175L110.447 325.327C110.412 325.383 109.643 326.73 109.382 327.643C109.282 327.99 109.303 328.28 109.447 328.505C109.547 328.661 109.686 328.752 109.799 328.808C109.66 328.951 109.221 329.241 107.873 329.44C105.912 329.73 105.516 327.7 105.503 327.613L105.49 327.544L105.433 327.505C104.507 326.894 103.938 326.617 103.738 326.674C103.611 326.708 103.407 326.769 102.79 332.276C102.733 332.449 102.329 333.714 102.581 334.93C102.855 336.255 108.651 335.861 109.808 335.77C109.843 335.775 114.173 336.13 117.143 336.16H117.135Z" fill="#2F2E43"/>
<path d="M92.1539 334.571C92.9496 334.58 93.6801 334.493 94.2019 334.407C94.715 334.32 95.1194 333.922 95.2064 333.411C95.2716 333.043 95.1629 332.675 94.9194 332.398L91.6495 328.713L87.9664 320.235L87.8099 320.317C87.7534 320.348 86.3837 321.084 85.6749 321.72C85.4053 321.963 85.2705 322.218 85.2705 322.487C85.2705 322.673 85.3401 322.824 85.4096 322.928C85.214 322.976 84.6878 322.989 83.4399 322.448C81.6223 321.66 82.3658 319.728 82.4006 319.65L82.4267 319.586L82.3963 319.525C81.9354 318.52 81.5962 317.983 81.4005 317.923C81.2744 317.888 81.07 317.828 77.6175 322.175C77.4784 322.292 76.4609 323.149 76.0304 324.314C75.5608 325.582 80.6831 328.302 81.7179 328.834C81.7484 328.86 87.1011 332.822 89.3014 333.956C90.1754 334.407 91.2146 334.554 92.1626 334.562L92.1539 334.571Z" fill="#2F2E43"/>
<path d="M99.8589 240.683L118.8 240.891L120.322 258.453L112.078 323.201L102.407 323.093L106.69 285.692L90.6275 319.326L82.1005 313.238L94.7019 281.812C94.7019 281.812 90.6318 254.27 94.1453 247.459C97.6587 240.648 99.8546 240.674 99.8546 240.674V240.683H99.8589Z" fill="#2F2E43"/>
<path d="M90.4274 241.648L120.509 241.982L111.917 203.156L98.8066 203.009L90.4274 241.648Z" fill="#6C63FF"/>
<path d="M87.4881 262.198C86.9836 264.549 87.8359 266.71 89.397 267.026C90.958 267.342 92.6321 265.692 93.1365 263.341C93.3539 262.406 93.3322 261.432 93.0756 260.501L99.4415 223.649L92.0103 222.173L88.7186 259.622C88.1012 260.375 87.6794 261.258 87.4881 262.202V262.198Z" fill="#F3A3A6"/>
<path d="M103.89 203.065L98.8066 203.009C95.2062 203.511 94.2104 205.412 93.3538 208.928C92.0493 214.293 90.3752 221.437 90.6883 221.545C91.1971 221.718 99.798 225.866 104.22 224.987L103.885 203.065H103.89Z" fill="#6C63FF"/>
<path d="M171.5 298.583C180.935 298.583 188.583 290.935 188.583 281.5C188.583 272.065 180.935 264.417 171.5 264.417C162.065 264.417 154.417 272.065 154.417 281.5C154.417 290.935 162.065 298.583 171.5 298.583Z" stroke="#DADBDC" stroke-width="3" stroke-linecap="round" stroke-linejoin="round"/>
<path d="M176.625 276.375L166.375 286.625" stroke="#DADBDC" stroke-width="3" stroke-linecap="round" stroke-linejoin="round"/>
<path d="M166.375 276.375L176.625 286.625" stroke="#DADBDC" stroke-width="3" stroke-linecap="round" stroke-linejoin="round"/>
<path fill-rule="evenodd" clip-rule="evenodd" d="M215.863 112.499C215.882 116.061 215.897 119.731 215.436 123.274C215.299 124.024 214.638 124.537 213.896 124.4C213.553 124.345 213.245 124.158 213.037 123.878C212.829 123.598 212.737 123.246 212.781 122.899C213.291 119.465 213.272 115.903 213.193 112.501C213.221 111.8 213.78 111.175 214.528 111.151C215.277 111.126 215.893 111.744 215.863 112.499ZM243.708 110.528C244.224 110.98 244.296 111.847 243.846 112.422C241.372 115.562 239.16 118.82 236.948 122.077L235.588 124.074C233.881 126.704 232.068 129.33 230.153 131.844C229.703 132.42 228.846 132.494 228.274 132.093C227.988 131.866 227.802 131.533 227.757 131.168C227.711 130.803 227.81 130.434 228.031 130.141C232.82 123.856 236.83 117 241.778 110.721C241.884 110.569 242.021 110.442 242.18 110.348C242.339 110.255 242.516 110.197 242.699 110.178C242.882 110.16 243.067 110.182 243.241 110.242C243.415 110.303 243.574 110.4 243.708 110.528ZM254.275 140.248C254.352 141.007 253.895 141.744 253.142 141.876L243.781 143.663C243.028 143.795 242.352 143.336 242.222 142.576C242.09 141.869 242.546 141.132 243.299 141L252.714 139.215C253.414 139.081 254.087 139.593 254.275 140.248Z" fill="#8AC0B4"/>
<path d="M88.6973 170.93L77.1562 170.078L83.6646 160.509L88.6973 170.93Z" stroke="#D3E7E3" stroke-width="1.68537"/>
<path d="M64.4108 182.757L72.664 190.869L61.5121 193.961L64.4108 182.757Z" stroke="#9EB3AE" stroke-width="1.68537"/>
<circle cx="71.9886" cy="217.989" r="8.14596" stroke="#8AC0B4" stroke-width="1.68537"/>
</svg>
