<svg width="28" height="26" viewBox="0 0 28 26" fill="none" xmlns="http://www.w3.org/2000/svg">
<path id="Combined-Shape" d="M23.2781 21.6295C23.4311 22.0343 23.8169 22.2847 24.2271 22.2847C24.3476 22.2847 24.4695 22.2631 24.5873 22.2184C26.622 21.4481 27.0485 20.1119 27.0485 19.125C27.0485 17.7996 26.2809 16.1033 22.6175 15.555M23.2781 21.6295L22.6175 15.555M23.2781 21.6295C23.0791 21.1056 23.3431 20.518 23.867 20.3204L23.2781 21.6295ZM22.6175 15.555L22.5213 16.1977C22.5236 16.198 22.5259 16.1983 22.5282 16.1987C22.5296 16.1989 22.5311 16.1991 22.5325 16.1992L22.6175 15.555ZM16.58 6.95175L16.58 6.95458C16.5873 8.62793 15.9396 10.206 14.7558 11.3971L14.7551 11.3979C13.5748 12.5892 12.0009 13.2473 10.3227 13.2537H10.278C6.80288 13.2537 3.97475 10.4254 3.97475 6.95175C3.97475 3.47812 6.80288 0.649823 10.278 0.649823C13.7517 0.649823 16.58 3.47804 16.58 6.95175ZM19.6584 11.7096L19.6567 11.7098C19.6453 11.7115 19.6293 11.7128 19.6065 11.7128C19.4284 11.7128 19.2717 11.5807 19.2455 11.3977C19.2179 11.1957 19.3587 11.0123 19.5552 10.985L19.5559 10.9849C21.5667 10.703 23.0798 8.96224 23.0831 6.93085V6.92982C23.0831 4.91482 21.6378 3.21054 19.6513 2.88521C19.45 2.85128 19.3164 2.66284 19.3489 2.46445C19.381 2.26835 19.5684 2.13132 19.7697 2.16293C22.1139 2.54786 23.8135 4.5506 23.8141 6.92995C23.8093 9.32188 22.0201 11.3783 19.6584 11.7096ZM10.32 12.5226L10.3227 12.5226C11.7995 12.5165 13.1937 11.9347 14.2372 10.8822C15.2821 9.83248 15.8547 8.43377 15.8489 6.95428C15.8481 3.87936 13.3498 1.38087 10.278 1.38087C7.20489 1.38087 4.7058 3.87974 4.7058 6.95175C4.7058 10.0238 7.20489 12.5226 10.278 12.5226L10.32 12.5226ZM10.278 16.8372C12.4796 16.8372 14.9578 16.964 16.8691 17.5906C17.8203 17.9023 18.5814 18.3225 19.0996 18.8676C19.6027 19.3969 19.9062 20.0732 19.9062 20.9825C19.9062 21.9285 19.5578 22.6284 18.9911 23.1752C18.4063 23.7394 17.5674 24.1588 16.5816 24.4609C14.6067 25.0661 12.2508 25.1403 10.7871 25.1485L9.72636 25.1485C8.16358 25.1403 5.82049 25.0662 3.8823 24.4655C2.91571 24.166 2.10172 23.7505 1.5363 23.1925C0.98829 22.6516 0.649823 21.9554 0.649823 21.0096C0.649823 20.0621 0.99843 19.3611 1.56526 18.8136C2.15007 18.2488 2.98889 17.8289 3.97466 17.5265C5.94984 16.9206 8.30604 16.8464 9.76976 16.8382C9.77008 16.8382 9.7704 16.8382 9.77071 16.8382L10.1198 16.8372L10.1212 16.8372L10.278 16.8372ZM10.278 17.5682C8.38321 17.5682 6.2548 17.6886 4.58167 18.1189C3.74801 18.3333 2.97277 18.6379 2.39324 19.0852C1.79479 19.5471 1.38087 20.1853 1.38087 21.0096C1.38087 22.3579 2.43653 23.2034 3.89617 23.6917C5.37543 24.1866 7.52203 24.4184 10.278 24.4184C13.0343 24.4184 15.1817 24.1842 16.6617 23.6842C18.1249 23.1898 19.1752 22.336 19.1752 20.9825C19.1752 19.6329 18.1206 18.7857 16.6602 18.2962C15.1808 17.8004 13.034 17.5682 10.278 17.5682Z" fill="black" stroke="black" stroke-width="1.29965"/>
</svg>
