<svg width="282" height="270" viewBox="0 0 282 270" fill="none" xmlns="http://www.w3.org/2000/svg">
<g clip-path="url(#clip0_180_295)">
<path d="M204.859 261.105C204.181 261.225 203.513 261.329 202.855 261.417L202.934 261.91C201.905 262.048 200.899 262.149 199.914 262.216L199.868 261.719C198.494 261.812 197.161 261.837 195.866 261.799L195.863 262.297C194.827 262.267 193.814 262.198 192.822 262.092L192.864 261.597C191.504 261.452 190.186 261.238 188.904 260.962L188.808 261.448C187.798 261.231 186.81 260.976 185.843 260.686L185.977 260.21C184.675 259.821 183.408 259.368 182.173 258.862L181.991 259.322C181.041 258.933 180.109 258.512 179.194 258.065L179.407 257.62C178.192 257.026 177.004 256.383 175.838 255.702L175.59 256.129C174.707 255.612 173.836 255.074 172.976 254.519L173.244 254.103C172.107 253.369 170.987 252.602 169.878 251.813L169.591 252.216C168.758 251.623 167.932 251.018 167.11 250.406L167.406 250.011C166.316 249.199 165.233 248.372 164.151 247.541L163.849 247.932C163.443 247.62 163.038 247.308 162.632 246.995C162.226 246.683 161.821 246.371 161.415 246.059L161.717 245.669C160.633 244.836 159.546 244.006 158.45 243.19L158.154 243.585C157.332 242.973 156.506 242.368 155.673 241.776L155.959 241.374C154.841 240.578 153.708 239.802 152.555 239.058L152.288 239.473C151.428 238.917 150.558 238.379 149.674 237.862L149.922 237.435C148.736 236.742 147.525 236.087 146.284 235.481L146.07 235.926C145.155 235.479 144.224 235.058 143.274 234.669L143.456 234.21C142.192 233.692 140.893 233.228 139.556 232.829L139.422 233.305C138.454 233.015 137.466 232.76 136.456 232.543L136.552 232.056C135.235 231.773 133.881 231.553 132.484 231.404L132.442 231.899C131.451 231.793 130.438 231.724 129.401 231.694L129.404 231.196C128.076 231.158 126.711 231.183 125.305 231.278L125.351 231.775C124.365 231.842 123.359 231.943 122.331 232.081L122.252 231.587C121.579 231.678 120.898 231.783 120.207 231.905C119.545 232.022 118.878 232.137 118.208 232.249L118.303 232.74C117.301 232.908 116.291 233.072 115.274 233.229L115.185 232.738C113.851 232.945 112.505 233.142 111.148 233.33L111.229 233.823C110.221 233.963 109.207 234.097 108.188 234.225L108.113 233.731C106.771 233.9 105.419 234.059 104.06 234.207L104.126 234.702C103.113 234.812 102.095 234.916 101.074 235.014L101.014 234.519C99.6631 234.649 98.3058 234.767 96.9443 234.874L96.9955 235.37C95.976 235.45 94.954 235.524 93.9304 235.59L93.886 235.094C92.5281 235.182 91.1673 235.258 89.8052 235.321L89.8402 235.818C88.8171 235.865 87.7931 235.906 86.769 235.938L86.7413 235.441C85.3777 235.484 84.014 235.514 82.6518 235.53L82.6694 236.028C81.6428 236.04 80.617 236.044 79.5927 236.039L79.5832 235.542C78.216 235.536 76.8517 235.515 75.4917 235.479L75.4899 235.977C74.4621 235.949 73.4367 235.913 72.4144 235.868L72.4252 235.371C71.0558 235.31 69.6923 235.233 68.3362 235.139L68.3127 235.636C67.2831 235.564 66.2577 235.483 65.2373 235.391L65.2711 234.895C63.9029 234.772 62.5438 234.631 61.1958 234.471L61.1473 234.965C60.1219 234.843 59.1026 234.71 58.0903 234.566L58.1505 234.073C56.788 233.879 55.4383 233.663 54.1036 233.427L54.0263 233.917C53.0072 233.736 51.9965 233.543 50.9952 233.337L51.0863 232.85C49.7353 232.572 48.4016 232.27 47.0875 231.944L46.9763 232.427C45.9665 232.177 44.968 231.912 43.9817 231.632L44.1094 231.154C42.7802 230.777 41.4738 230.374 40.1925 229.942L40.0409 230.413C39.054 230.081 38.0817 229.732 37.125 229.367L37.2962 228.903C36.0047 228.409 34.7424 227.885 33.5119 227.328L33.3122 227.78C32.3629 227.351 31.432 226.903 30.5207 226.435L30.7435 225.994C29.5148 225.364 28.3228 224.697 27.1702 223.995L26.9142 224.417C26.0253 223.875 25.1593 223.311 24.3175 222.725L24.5998 222.32C23.4715 221.534 22.3878 220.708 21.3519 219.84L21.0329 220.217C20.2376 219.551 19.4697 218.861 18.7307 218.145L19.0775 217.793C18.0986 216.845 17.1715 215.853 16.2995 214.815L15.9165 215.128C15.2544 214.34 14.6234 213.525 14.0251 212.684L14.4334 212.403C13.6534 211.307 12.9296 210.164 12.2654 208.973L11.8271 209.206C11.3311 208.316 10.8678 207.401 10.4387 206.458L10.8957 206.262C10.3451 205.053 9.85124 203.799 9.41714 202.498L8.9406 202.644C8.62173 201.688 8.3348 200.708 8.08093 199.702L8.56802 199.592C8.40338 198.94 8.25278 198.277 8.11653 197.604C7.98383 196.947 7.86943 196.301 7.77263 195.664L7.27599 195.727C7.1243 194.728 7.01518 193.752 6.94606 192.797L7.44705 192.772C7.35112 191.446 7.33338 190.162 7.38663 188.915L6.8848 188.883C6.92739 187.885 7.01471 186.911 7.14329 185.959L7.64116 186.036C7.81616 184.74 8.0688 183.484 8.39009 182.263L7.90388 182.127C8.15432 181.175 8.44578 180.245 8.77412 179.334L9.24759 179.511C9.6841 178.3 10.1871 177.122 10.7468 175.972L10.2934 175.747C10.7197 174.872 11.1781 174.013 11.6644 173.168L12.1021 173.422C12.7411 172.312 13.4293 171.226 14.1569 170.159L13.7387 169.874C14.2855 169.072 14.8539 168.281 15.4397 167.5L15.8454 167.802C16.6161 166.774 17.4177 165.76 18.241 164.756L17.8482 164.437C18.4641 163.685 19.0915 162.94 19.7262 162.198L20.1124 162.525C20.953 161.543 21.8071 160.567 22.6659 159.592L22.2842 159.26C22.6061 158.894 22.9286 158.529 23.251 158.163C23.5733 157.798 23.8956 157.433 24.2173 157.068L24.5991 157.4C25.459 156.423 26.3165 155.443 27.1614 154.456L26.7753 154.129C27.41 153.388 28.0374 152.642 28.6533 151.891L29.0461 152.21C29.8764 151.197 30.6869 150.172 31.4676 149.13L31.0619 148.828C31.6476 148.046 32.216 147.255 32.7629 146.453L33.1811 146.739C33.9208 145.654 34.6223 144.547 35.2749 143.414L34.8372 143.159C35.3235 142.315 35.782 141.456 36.2083 140.58L36.6616 140.805C37.2353 139.626 37.752 138.416 38.2011 137.17L37.7276 136.993C38.056 136.082 38.3474 135.152 38.5979 134.201L39.0841 134.337C39.4153 133.078 39.6759 131.783 39.8564 130.446L39.3585 130.369C39.4871 129.416 39.5745 128.442 39.6171 127.445L40.1189 127.478C40.1738 126.192 40.1554 124.87 40.0568 123.507L39.5558 123.531C39.4867 122.575 39.3776 121.599 39.2259 120.601L39.7225 120.538C39.6233 119.885 39.506 119.222 39.3702 118.55C39.2403 117.908 39.1129 117.262 38.9881 116.612L38.4947 116.694C38.3082 115.723 38.1274 114.744 37.9527 113.757L38.4474 113.682C38.2186 112.389 38.0004 111.084 37.7938 109.768L37.2976 109.833C37.1439 108.855 36.9966 107.87 36.8561 106.881L37.3535 106.823C37.1687 105.521 36.9957 104.211 36.8353 102.894L36.3367 102.942C36.2171 101.96 36.1045 100.974 35.9992 99.9851L36.4987 99.9443C36.3594 98.6352 36.2331 97.3205 36.1205 96.002L35.62 96.0325C35.5356 95.0451 35.459 94.0554 35.3904 93.0642L35.8915 93.0417C35.8005 91.7272 35.7238 90.4101 35.662 89.0922L35.1603 89.1038C35.1139 88.1136 35.076 87.123 35.0469 86.1325L35.5489 86.1295C35.5102 84.8119 35.4871 83.4947 35.4805 82.1796L34.9782 82.1705C34.9732 81.1785 34.9775 80.1877 34.9915 79.1987L35.4937 79.2172C35.5124 77.8984 35.5484 76.583 35.6024 75.2727L35.1006 75.2409C35.1415 74.25 35.1927 73.2619 35.2546 72.2774L35.7559 72.3198C35.8386 71.0036 35.9406 69.6939 36.0625 68.3925L35.5624 68.3351C35.6548 67.349 35.7586 66.3676 35.8743 65.3915L36.3732 65.4609C36.5284 64.1514 36.705 62.852 36.9039 61.5644L36.4073 61.478C36.5589 60.4966 36.7233 59.5219 36.9011 58.5547L37.3953 58.6548C37.6335 57.3587 37.8957 56.0764 38.1827 54.8099L37.6925 54.6901C37.9117 53.723 38.1454 52.7648 38.394 51.8165L38.8804 51.9521C39.2142 50.6787 39.5749 49.4237 39.9636 48.1889L39.4838 48.0307C39.7811 47.0864 40.0947 46.1537 40.4251 45.2335L40.8988 45.4099C41.3429 44.1732 41.8173 42.9597 42.3232 41.7717L41.8598 41.5693C42.2471 40.6599 42.6527 39.7652 43.0773 38.886L43.5313 39.1093C44.1013 37.9292 44.7054 36.7779 45.3448 35.658L44.9062 35.4053C45.3955 34.5484 45.9053 33.7094 46.4364 32.8894L46.861 33.165C47.5705 32.0694 48.3179 31.0085 49.1045 29.9849L48.7023 29.6776C49.3024 28.8966 49.9254 28.1368 50.5716 27.3994L50.9541 27.7307C51.8097 26.7545 52.7063 25.8183 53.6454 24.9248L53.2932 24.5619C54.005 23.8846 54.7411 23.2314 55.5021 22.6034L55.8287 22.9889C56.8244 22.1672 57.863 21.3894 58.9459 20.6582L58.6565 20.2448C59.4681 19.6967 60.3044 19.1744 61.1658 18.679L61.4254 19.111C62.5407 18.4696 63.6988 17.8738 64.901 17.326L64.6825 16.8729C65.5701 16.4685 66.4814 16.0899 67.4168 15.7383L67.6044 16.2042C68.8058 15.7526 70.0479 15.3456 71.3318 14.9855L71.1847 14.5064C72.1241 14.2429 73.0854 14.0044 74.0691 13.7915L74.1871 14.2778C74.8287 14.139 75.4801 14.0111 76.1413 13.8945C76.8189 13.775 77.4868 13.6713 78.1455 13.5829L78.0668 13.0897C79.0949 12.9517 80.1011 12.8505 81.0867 12.784L81.1324 13.2805C82.5065 13.1877 83.8392 13.163 85.1341 13.2005L85.1371 12.703C86.1736 12.7329 87.1867 12.8022 88.1781 12.9079L88.1359 13.4028C89.496 13.5477 90.8146 13.7621 92.0965 14.038L92.1921 13.5517C93.2024 13.7692 94.1902 14.0245 95.1577 14.3137L95.0229 14.79C96.3256 15.1795 97.5918 15.6317 98.827 16.1376L99.0096 15.6783C99.9597 16.0674 100.891 16.4876 101.806 16.9349L101.593 17.3803C102.808 17.9742 103.996 18.6168 105.162 19.2985L105.41 18.8713C106.294 19.3876 107.164 19.9258 108.024 20.4815L107.756 20.8965C108.894 21.6314 110.013 22.3979 111.122 23.1865L111.409 22.7845C112.242 23.3772 113.068 23.9817 113.89 24.5939L113.594 24.9892C114.684 25.8015 115.767 26.6278 116.849 27.459L117.151 27.0683C117.557 27.3802 117.963 27.6926 118.369 28.0049C118.774 28.317 119.179 28.6291 119.585 28.9407L119.283 29.3314C120.367 30.1637 121.454 30.9936 122.55 31.8104L122.846 31.4151C123.668 32.0273 124.494 32.6319 125.327 33.2246L125.041 33.6266C126.159 34.4223 127.292 35.1978 128.445 35.9426L128.712 35.5276C129.572 36.0833 130.442 36.6215 131.326 37.1378L131.078 37.565C132.264 38.2583 133.475 38.9133 134.716 39.5197L134.929 39.0743C135.845 39.5216 136.776 39.9419 137.726 40.331L137.544 40.7904C138.808 41.3083 140.106 41.7721 141.443 42.1719L141.578 41.6957C142.546 41.985 143.533 42.2402 144.544 42.4577L144.448 42.944C145.765 43.2274 147.119 43.4476 148.515 43.5965L148.558 43.1016C149.549 43.2073 150.562 43.2766 151.599 43.3066L151.596 43.8041C152.924 43.8425 154.289 43.8172 155.695 43.7222L155.649 43.2256C156.635 43.1591 157.641 43.0579 158.669 42.9199L158.748 43.4132C159.42 43.3229 160.102 43.2172 160.793 43.0953C161.455 42.9785 162.121 42.8638 162.791 42.7513L162.696 42.2605C163.698 42.0923 164.708 41.9291 165.725 41.7713L165.814 42.263C167.148 42.056 168.494 41.8582 169.852 41.6704L169.771 41.1774C170.779 41.038 171.793 40.904 172.812 40.7758L172.886 41.2696C174.229 41.1007 175.58 40.9419 176.939 40.7939L176.873 40.2992C177.887 40.1888 178.904 40.0845 179.925 39.9865L179.985 40.4819C181.336 40.3522 182.694 40.2337 184.055 40.1269L184.004 39.6307C185.024 39.5508 186.045 39.4774 187.069 39.411L187.113 39.9076C188.471 39.8195 189.832 39.7436 191.194 39.6805L191.159 39.1834C192.182 39.136 193.206 39.0959 194.23 39.0633L194.258 39.5608C195.622 39.5174 196.985 39.4875 198.348 39.4717L198.33 38.974C199.357 38.962 200.382 38.9581 201.407 38.9624L201.416 39.4602C202.783 39.466 204.148 39.4866 205.508 39.5227L205.509 39.0251C206.537 39.0524 207.563 39.0886 208.585 39.1338L208.574 39.631C209.943 39.6917 211.307 39.7688 212.663 39.863L212.687 39.3665C213.716 39.4381 214.742 39.5196 215.762 39.6112L215.728 40.1069C217.096 40.2297 218.455 40.371 219.803 40.5314L219.852 40.0372C220.877 40.1592 221.897 40.2923 222.909 40.4367L222.849 40.9293C224.211 41.1238 225.561 41.3389 226.896 41.5755L226.973 41.0856C227.992 41.2663 229.003 41.4594 230.004 41.6654L229.913 42.1527C231.264 42.4307 232.597 42.7322 233.911 43.058L234.023 42.5754C235.032 42.8257 236.031 43.0905 237.017 43.37L236.89 43.8483C238.219 44.225 239.525 44.6285 240.806 45.0599L240.958 44.589C241.945 44.9212 242.917 45.2699 243.874 45.6356L243.703 46.0994C244.994 46.593 246.257 47.1174 247.487 47.6738L247.687 47.2218C248.636 47.651 249.567 48.0992 250.478 48.567L250.256 49.0078C251.484 49.6385 252.676 50.3046 253.829 51.0073L254.085 50.5851C254.974 51.1271 255.84 51.6909 256.682 52.2771L256.399 52.6822C257.528 53.4679 258.611 54.2938 259.647 55.1613L259.966 54.7842C260.762 55.4502 261.53 56.1407 262.269 56.8564L261.922 57.2084C262.901 58.1564 263.828 59.1486 264.7 60.1866L265.083 59.8734C265.745 60.6616 266.376 61.476 266.975 62.3173L266.566 62.5977C267.346 63.6944 268.07 64.8374 268.734 66.0282L269.173 65.7952C269.669 66.6845 270.132 67.6001 270.561 68.5425L270.104 68.7384C270.655 69.9476 271.149 71.2021 271.583 72.5032L272.059 72.3569C272.378 73.3126 272.665 74.2929 272.919 75.2982L272.432 75.4085C272.597 76.0604 272.747 76.7232 272.884 77.397C273.016 78.0534 273.131 78.7 273.228 79.3372L273.724 79.2743C273.876 80.2728 273.985 81.2491 274.054 82.2047L273.553 82.2287C273.649 83.5549 273.667 84.8395 273.613 86.0865L274.115 86.1191C274.072 87.1164 273.985 88.0905 273.856 89.043L273.358 88.9658C273.183 90.2622 272.93 91.5185 272.609 92.7394L273.095 92.8755C272.844 93.8271 272.552 94.7573 272.224 95.6684L271.75 95.4913C271.314 96.7026 270.81 97.8804 270.25 99.0303L270.704 99.255C270.277 100.131 269.819 100.99 269.332 101.835L268.894 101.58C268.255 102.69 267.567 103.776 266.839 104.843L267.257 105.128C266.71 105.93 266.141 106.721 265.555 107.503L265.15 107.2C264.379 108.229 263.577 109.242 262.753 110.247L263.146 110.566C262.53 111.317 261.902 112.063 261.267 112.804L260.881 112.477C260.04 113.459 259.186 114.435 258.327 115.41L258.708 115.742C258.386 116.108 258.064 116.473 257.741 116.839C257.419 117.204 257.097 117.569 256.775 117.934L256.393 117.602C255.533 118.579 254.675 119.558 253.83 120.546L254.216 120.873C253.581 121.614 252.953 122.36 252.337 123.111L251.945 122.792C251.114 123.805 250.303 124.829 249.522 125.871L249.928 126.174C249.342 126.956 248.773 127.746 248.226 128.548L247.808 128.263C247.068 129.348 246.366 130.454 245.713 131.588L246.151 131.842C245.664 132.687 245.206 133.546 244.779 134.422L244.326 134.197C243.752 135.375 243.235 136.585 242.786 137.831L243.259 138.008C242.93 138.919 242.639 139.85 242.388 140.801L241.902 140.665C241.57 141.923 241.31 143.219 241.129 144.556L241.627 144.634C241.498 145.586 241.41 146.56 241.368 147.557L240.866 147.525C240.811 148.81 240.829 150.133 240.928 151.496L241.429 151.472C241.498 152.427 241.607 153.404 241.759 154.402L241.262 154.465C241.361 155.119 241.478 155.781 241.614 156.453C241.744 157.095 241.871 157.742 241.996 158.391L242.489 158.309C242.675 159.281 242.856 160.26 243.03 161.247L242.535 161.322C242.764 162.614 242.982 163.92 243.188 165.235L243.684 165.17C243.838 166.149 243.985 167.133 244.125 168.122L243.628 168.181C243.813 169.482 243.986 170.792 244.146 172.109L244.645 172.061C244.764 173.043 244.877 174.029 244.982 175.018L244.483 175.059C244.622 176.368 244.748 177.682 244.861 179.001L245.362 178.97C245.446 179.958 245.523 180.947 245.591 181.938L245.09 181.961C245.181 183.275 245.258 184.592 245.32 185.91L245.822 185.898C245.869 186.889 245.907 187.879 245.936 188.87L245.434 188.873C245.473 190.19 245.496 191.507 245.503 192.822L246.006 192.831C246.011 193.823 246.007 194.814 245.993 195.803L245.491 195.785C245.473 197.103 245.437 198.419 245.383 199.729L245.885 199.761C245.845 200.752 245.794 201.74 245.732 202.724L245.231 202.682C245.148 203.998 245.047 205.308 244.925 206.609L245.426 206.666C245.333 207.652 245.23 208.634 245.115 209.61L244.616 209.541C244.461 210.85 244.285 212.15 244.086 213.437L244.583 213.523C244.432 214.505 244.268 215.48 244.09 216.447L243.596 216.347C243.358 217.643 243.097 218.925 242.81 220.192L243.3 220.311C243.081 221.279 242.848 222.237 242.6 223.185L242.113 223.05C241.78 224.323 241.42 225.578 241.031 226.813L241.511 226.971C241.214 227.915 240.901 228.848 240.571 229.768L240.097 229.592C239.653 230.829 239.179 232.042 238.674 233.23L239.137 233.433C238.75 234.342 238.345 235.237 237.92 236.116L237.466 235.893C236.897 237.073 236.293 238.224 235.654 239.344L236.092 239.597C235.603 240.454 235.094 241.293 234.563 242.113L234.138 241.837C233.429 242.933 232.682 243.994 231.895 245.018L232.297 245.325C231.697 246.106 231.074 246.866 230.428 247.603L230.046 247.272C229.19 248.248 228.294 249.184 227.355 250.078L227.707 250.44C226.995 251.118 226.259 251.771 225.498 252.399L225.171 252.013C224.176 252.835 223.137 253.612 222.054 254.344L222.343 254.757C221.532 255.305 220.696 255.827 219.834 256.322L219.575 255.89C218.459 256.532 217.301 257.127 216.099 257.675L216.318 258.128C215.43 258.532 214.519 258.911 213.583 259.262L213.396 258.796C212.194 259.248 210.952 259.655 209.668 260.015L209.815 260.494C208.876 260.757 207.915 260.996 206.931 261.209L206.813 260.722C206.172 260.861 205.52 260.989 204.859 261.105Z" fill="#F1F4FF" stroke="#0000FF" stroke-dasharray="4 3"/>
<g clip-path="url(#clip1_180_295)">
<path d="M109.634 186.684C117.79 172.351 133.349 161.346 149.819 162.406C137.67 175.603 130.586 192.667 129.82 210.58C129.549 217.489 129.969 225.202 125.376 230.375C122.519 233.594 118.151 235.153 113.857 235.48C109.563 235.807 105.269 235.032 101.032 234.26L100.004 234.576C99.6128 218.094 101.478 201.016 109.634 186.684Z" fill="#CEFABE"/>
<path d="M149.843 162.751C137.664 168.608 127.279 178.389 120.904 190.319C119.525 192.898 118.352 195.634 117.84 198.527C117.328 201.421 117.686 204.176 118.675 206.925C119.58 209.438 120.797 211.904 121.074 214.593C121.367 217.428 120.323 220.078 118.443 222.181C116.144 224.755 113.056 226.349 109.982 227.804C106.569 229.419 102.999 231.043 100.582 234.057C100.289 234.422 99.7385 233.947 100.031 233.582C104.237 228.338 111.436 227.352 116.428 223.127C118.758 221.156 120.506 218.471 120.396 215.326C120.3 212.575 119.047 210.031 118.109 207.494C117.124 204.831 116.633 202.153 116.986 199.313C117.347 196.408 118.416 193.621 119.722 191.018C122.668 185.147 126.7 179.758 131.318 175.099C136.626 169.744 142.811 165.335 149.607 162.063C150.028 161.861 150.261 162.55 149.843 162.751Z" fill="white"/>
<path d="M122.771 186.332C120.904 184.968 119.583 182.986 119.044 180.739C118.505 178.492 118.783 176.127 119.829 174.066C120.042 173.65 120.699 173.961 120.486 174.378C119.509 176.295 119.25 178.498 119.756 180.59C120.263 182.681 121.5 184.522 123.247 185.782C123.626 186.056 123.148 186.605 122.771 186.332Z" fill="white"/>
<path d="M118.049 205.712C122.727 205.029 126.976 202.609 129.948 198.936C130.243 198.572 130.793 199.047 130.499 199.411C127.399 203.228 122.972 205.736 118.102 206.436C117.638 206.503 117.587 205.778 118.049 205.712Z" fill="white"/>
<path d="M136.985 170.638C137.598 171.316 138.369 171.831 139.23 172.138C140.091 172.445 141.015 172.533 141.919 172.395C142.382 172.323 142.432 173.048 141.972 173.119C140.973 173.267 139.953 173.169 139.001 172.832C138.048 172.495 137.193 171.931 136.51 171.188C136.44 171.123 136.397 171.034 136.39 170.939C136.383 170.844 136.412 170.75 136.472 170.675C136.536 170.603 136.625 170.558 136.721 170.551C136.817 170.544 136.912 170.575 136.985 170.638Z" fill="white"/>
<path d="M182.588 207.62C182.301 207.673 182.013 207.727 181.722 207.786C177.855 208.523 174.054 209.572 170.357 210.924C170.069 211.024 169.779 211.13 169.495 211.238C160.623 214.589 152.451 219.557 145.394 225.889C142.588 228.411 139.978 231.143 137.587 234.061C134.286 238.091 131.027 242.722 126.712 245.35C126.265 245.629 125.801 245.88 125.323 246.102L100.469 235.803C100.424 235.752 100.377 235.706 100.332 235.654L99.3206 235.288C99.4333 235.129 99.5537 234.966 99.6665 234.807C99.7316 234.715 99.8021 234.624 99.8672 234.532C99.9123 234.471 99.9577 234.41 99.9949 234.352C100.01 234.332 100.025 234.312 100.038 234.297C100.075 234.239 100.116 234.19 100.15 234.138C100.821 233.227 101.499 232.32 102.185 231.416C102.187 231.41 102.187 231.41 102.195 231.407C107.437 224.529 113.299 218.029 119.963 212.624C120.164 212.461 120.367 212.293 120.579 212.135C123.596 209.715 126.806 207.546 130.177 205.649C132.027 204.616 133.927 203.677 135.871 202.836C140.899 200.673 146.237 199.313 151.688 198.807C162.554 197.799 173.623 200.273 181.957 207.093C182.17 207.267 182.378 207.44 182.588 207.62Z" fill="#CEFABE"/>
<path d="M182.402 207.912C169.147 205.264 154.96 206.828 142.68 212.519C140.025 213.749 137.439 215.228 135.287 217.23C133.133 219.233 131.758 221.648 130.892 224.438C130.1 226.988 129.585 229.689 128.186 232.003C126.711 234.442 124.28 235.93 121.512 236.479C118.125 237.151 114.698 236.567 111.367 235.88C107.669 235.117 103.839 234.266 100.093 235.219C99.6385 235.334 99.4857 234.624 99.939 234.508C106.458 232.85 112.8 236.393 119.333 236.022C122.381 235.849 125.395 234.758 127.203 232.18C128.784 229.926 129.317 227.141 130.097 224.552C130.915 221.832 132.137 219.399 134.131 217.344C136.17 215.242 138.704 213.659 141.316 212.366C147.206 209.451 153.673 207.572 160.168 206.63C167.634 205.546 175.23 205.746 182.628 207.221C183.086 207.313 182.856 208.003 182.402 207.912Z" fill="white"/>
<path d="M146.574 210.459C145.905 208.247 146.045 205.869 146.969 203.751C147.893 201.633 149.54 199.912 151.617 198.895C152.038 198.691 152.376 199.335 151.954 199.539C150.018 200.482 148.484 202.086 147.628 204.06C146.771 206.034 146.65 208.249 147.285 210.305C147.422 210.752 146.71 210.903 146.574 210.459Z" fill="white"/>
<path d="M131.123 223.092C135.27 225.36 140.121 225.984 144.708 224.838C145.162 224.725 145.315 225.435 144.861 225.549C140.086 226.732 135.039 226.072 130.729 223.702C130.318 223.476 130.715 222.867 131.123 223.092Z" fill="white"/>
<path d="M167.382 206.476C167.462 207.386 167.767 208.261 168.27 209.024C168.773 209.787 169.457 210.413 170.262 210.846C170.675 211.067 170.278 211.676 169.868 211.457C168.981 210.974 168.226 210.282 167.668 209.44C167.111 208.599 166.769 207.634 166.671 206.63C166.654 206.536 166.673 206.439 166.725 206.359C166.777 206.278 166.857 206.221 166.95 206.198C167.044 206.178 167.142 206.196 167.223 206.248C167.304 206.3 167.361 206.382 167.382 206.476Z" fill="white"/>
<path d="M135.242 224.61C131.762 207.798 127.411 202.193 127.411 202.193L125.748 200.905L123.749 199.354L123.759 199.155L123.285 198.994L123.174 198.907L122.991 198.767L122.962 198.799L122.9 198.863L113.854 195.791L102.379 191.898L97.0649 184.998C96.1995 183.874 95.0853 182.966 93.8097 182.344C92.534 181.723 91.1316 181.405 89.7124 181.415L72.7414 181.541C70.4468 181.558 68.2415 182.432 66.5591 183.99L55.4043 194.326L38.0231 202.619L37.9938 202.589L37.8113 202.72L35.1257 204.002L35.2365 204.579L33.5743 205.777C33.5743 205.777 29.2233 210.992 25.7425 226.636C24.8571 230.617 24.4212 239.155 24.2639 249.677C24.256 250.21 24.3541 250.738 24.5525 251.232C24.7509 251.726 25.0456 252.176 25.4196 252.555C25.7935 252.934 26.2392 253.236 26.7307 253.441C27.2223 253.647 27.7498 253.753 28.2827 253.753H121.119L132.706 253.753C133.239 253.753 133.766 253.647 134.257 253.441C134.748 253.236 135.194 252.935 135.568 252.556C135.942 252.178 136.237 251.728 136.435 251.235C136.634 250.741 136.732 250.213 136.725 249.681C136.572 238.232 136.136 228.927 135.242 224.61Z" fill="#3F3D56"/>
<path d="M147.154 110.415C143.542 110.415 140.078 111.848 137.524 114.4C134.97 116.951 133.535 120.411 133.535 124.019C133.535 127.627 134.97 131.088 137.524 133.639C140.078 136.19 143.542 137.623 147.154 137.623H248.645C252.257 137.623 255.721 136.19 258.275 133.639C260.829 131.088 262.264 127.627 262.264 124.019C262.264 120.411 260.829 116.951 258.275 114.4C255.721 111.848 252.257 110.415 248.645 110.415H147.154Z" fill="#E5E5E5"/>
<path d="M147.154 113.168C144.273 113.168 141.51 114.311 139.473 116.346C137.436 118.381 136.291 121.141 136.291 124.019C136.291 126.897 137.436 129.657 139.473 131.692C141.51 133.727 144.273 134.87 147.154 134.87H248.645C251.526 134.87 254.289 133.727 256.326 131.692C258.363 129.657 259.507 126.897 259.507 124.019C259.507 121.141 258.363 118.381 256.326 116.346C254.289 114.311 251.526 113.168 248.645 113.168H147.154Z" fill="white"/>
<path d="M83.892 175.046C96.1713 175.046 106.126 165.103 106.126 152.836C106.126 140.57 96.1713 130.626 83.892 130.626C71.6128 130.626 61.6584 140.57 61.6584 152.836C61.6584 165.103 71.6128 175.046 83.892 175.046Z" fill="#9E616A"/>
<path d="M78.2043 173.959C78.1093 173.75 78.0146 173.54 77.9202 173.33C77.9566 173.331 77.9926 173.336 78.029 173.337L78.2043 173.959Z" fill="#2F2E41"/>
<path d="M61.0403 131.636C62.1648 130.74 63.4791 129.916 64.9168 129.962C66.3545 130.008 67.8125 131.306 67.5146 132.711C70.1554 128.041 74.3587 124.448 79.3868 122.565C84.4149 120.681 89.9465 120.627 95.0105 122.412C98.5838 123.671 102.088 126.191 102.909 129.886C103.12 130.835 103.165 131.875 103.758 132.645C104.505 133.616 105.936 133.836 107.113 133.494C107.125 133.491 107.137 133.488 107.149 133.484C107.348 133.416 107.562 133.41 107.765 133.465C107.968 133.52 108.149 133.635 108.286 133.795C108.423 133.954 108.509 134.151 108.532 134.36C108.556 134.569 108.516 134.78 108.418 134.965L107.407 136.849C108.681 137.133 110.006 137.105 111.267 136.767C111.477 136.712 111.698 136.723 111.901 136.799C112.104 136.875 112.278 137.012 112.4 137.19C112.522 137.369 112.586 137.581 112.583 137.797C112.579 138.014 112.509 138.224 112.382 138.399C109.048 142.971 103.478 145.924 97.794 145.889C93.7543 145.864 89.673 144.474 85.7414 145.402C84.2204 145.761 82.7992 146.455 81.582 147.434C80.3649 148.414 79.3826 149.653 78.7073 151.061C78.032 152.469 77.6808 154.01 77.6795 155.571C77.6782 157.132 78.0268 158.674 78.6998 160.083C77.492 158.763 75.1572 159.076 73.9217 160.37C72.6863 161.663 72.3664 163.595 72.4909 165.378C72.6813 168.107 73.7513 170.677 74.8794 173.18C65.4215 172.882 56.4759 166.255 53.4648 157.291C50.4411 148.289 53.61 137.558 61.0403 131.636Z" fill="#2F2E41"/>
<path opacity="0.2" d="M46.147 219.535L52.383 253.428L56.1247 253.753L46.147 219.535Z" fill="black"/>
<path opacity="0.2" d="M114.838 216.979L108.602 253.403L104.86 253.753L114.838 216.979Z" fill="black"/>
<path d="M66.359 120.23C65.1634 120.729 63.9157 120.182 63.3925 118.93C62.8613 117.659 63.3574 116.369 64.5723 115.863C65.7872 115.356 67.0126 115.904 67.5524 117.195C68.0841 118.467 67.5934 119.715 66.359 120.23ZM64.0686 113.361L63.1179 113.758C62.8805 113.856 62.6148 113.861 62.3736 113.773C62.1324 113.684 61.9332 113.509 61.8154 113.28L61.7684 113.189C60.7454 111.346 60.6283 109.106 61.4221 106.535C62.1574 104.229 62.4628 102.607 61.8486 101.137C61.1385 99.4386 59.622 98.9064 57.6882 99.6773C56.9382 99.9902 56.6995 99.9852 56.1093 100.57C55.9809 100.699 55.8278 100.8 55.6593 100.869C55.4907 100.937 55.3101 100.971 55.1282 100.968C54.9523 100.966 54.7786 100.929 54.6176 100.858C54.4565 100.788 54.3113 100.685 54.1906 100.558C53.9581 100.311 53.8279 99.9861 53.8262 99.6476C53.8245 99.309 53.9514 98.9825 54.1814 98.7338C55.1735 97.6964 56.3701 96.8757 57.6957 96.3234C61.8506 94.5903 63.9423 97.149 64.8994 99.4388C65.8356 101.678 65.309 103.757 64.4628 106.448C63.7537 108.684 63.795 110.341 64.6005 111.989C64.6587 112.113 64.691 112.248 64.6956 112.386C64.7002 112.523 64.677 112.66 64.6273 112.788C64.5777 112.916 64.5026 113.033 64.4066 113.132C64.3106 113.23 64.1956 113.308 64.0686 113.361Z" fill="#0000FF"/>
<path d="M169.572 130.507H149.379C149.315 130.508 149.251 130.496 149.192 130.471C149.132 130.447 149.078 130.411 149.033 130.366C148.987 130.321 148.951 130.267 148.926 130.208C148.902 130.149 148.889 130.086 148.889 130.022C148.889 129.957 148.902 129.894 148.926 129.835C148.951 129.776 148.987 129.722 149.033 129.677C149.078 129.632 149.132 129.596 149.192 129.572C149.251 129.547 149.315 129.535 149.379 129.536H169.572C169.7 129.537 169.823 129.588 169.914 129.679C170.004 129.77 170.055 129.893 170.055 130.022C170.055 130.15 170.004 130.273 169.914 130.364C169.823 130.455 169.7 130.507 169.572 130.507Z" fill="#6C63FF"/>
<path d="M195.188 130.669H174.995C174.931 130.67 174.867 130.658 174.808 130.633C174.748 130.609 174.694 130.574 174.649 130.528C174.603 130.483 174.567 130.429 174.542 130.37C174.518 130.311 174.505 130.248 174.505 130.184C174.505 130.12 174.518 130.056 174.542 129.997C174.567 129.938 174.603 129.884 174.649 129.839C174.694 129.794 174.748 129.758 174.808 129.734C174.867 129.71 174.931 129.697 174.995 129.698H195.188C195.252 129.697 195.316 129.71 195.375 129.734C195.434 129.758 195.488 129.794 195.534 129.839C195.579 129.884 195.616 129.938 195.64 129.997C195.665 130.056 195.677 130.12 195.677 130.184C195.677 130.248 195.665 130.311 195.64 130.37C195.616 130.429 195.579 130.483 195.534 130.528C195.488 130.574 195.434 130.609 195.375 130.633C195.316 130.658 195.252 130.67 195.188 130.669Z" fill="#6C63FF"/>
<path d="M220.804 130.831H200.611C200.482 130.83 200.359 130.779 200.269 130.688C200.178 130.597 200.128 130.474 200.128 130.345C200.128 130.217 200.178 130.094 200.269 130.003C200.359 129.912 200.482 129.861 200.611 129.86H220.804C220.868 129.859 220.931 129.871 220.991 129.896C221.05 129.92 221.104 129.956 221.15 130.001C221.195 130.046 221.231 130.1 221.256 130.159C221.281 130.218 221.293 130.281 221.293 130.345C221.293 130.41 221.281 130.473 221.256 130.532C221.231 130.591 221.195 130.645 221.15 130.69C221.104 130.735 221.05 130.771 220.991 130.795C220.931 130.82 220.868 130.832 220.804 130.831Z" fill="#6C63FF"/>
<path d="M246.42 130.993H226.227C226.098 130.992 225.975 130.941 225.885 130.85C225.794 130.759 225.744 130.636 225.744 130.507C225.744 130.379 225.794 130.256 225.885 130.165C225.975 130.074 226.098 130.022 226.227 130.021H246.42C246.548 130.022 246.671 130.074 246.761 130.165C246.852 130.256 246.903 130.379 246.903 130.507C246.903 130.636 246.852 130.759 246.761 130.85C246.671 130.941 246.548 130.992 246.42 130.993Z" fill="#6C63FF"/>
<path d="M159.431 126.036C161.503 126.036 163.184 124.357 163.184 122.287C163.184 120.216 161.503 118.538 159.431 118.538C157.358 118.538 155.678 120.216 155.678 122.287C155.678 124.357 157.358 126.036 159.431 126.036Z" fill="#0000FF"/>
<path d="M185.202 126.036C187.274 126.036 188.955 124.357 188.955 122.287C188.955 120.216 187.274 118.538 185.202 118.538C183.129 118.538 181.448 120.216 181.448 122.287C181.448 124.357 183.129 126.036 185.202 126.036Z" fill="#0000FF"/>
<path d="M210.972 126.036C213.045 126.036 214.725 124.357 214.725 122.287C214.725 120.216 213.045 118.538 210.972 118.538C208.9 118.538 207.219 120.216 207.219 122.287C207.219 124.357 208.9 126.036 210.972 126.036Z" fill="#0000FF"/>
<path d="M236.743 126.036C238.816 126.036 240.496 124.357 240.496 122.287C240.496 120.216 238.816 118.538 236.743 118.538C234.67 118.538 232.99 120.216 232.99 122.287C232.99 124.357 234.67 126.036 236.743 126.036Z" fill="#0000FF"/>
</g>
</g>
<defs>
<clipPath id="clip0_180_295">
<rect width="282" height="270" fill="white"/>
</clipPath>
<clipPath id="clip1_180_295">
<rect width="238" height="158" fill="white" transform="translate(24.2634 95.7532)"/>
</clipPath>
</defs>
</svg>
