<svg width="306" height="306" viewBox="0 0 306 306" fill="none" xmlns="http://www.w3.org/2000/svg">
<g clip-path="url(#clip0_234_164)">
<mask id="mask0_234_164" style="mask-type:luminance" maskUnits="userSpaceOnUse" x="0" y="0" width="306" height="306">
<path d="M306 0H0V306H306V0Z" fill="white"/>
</mask>
<g mask="url(#mask0_234_164)">
<path d="M115.943 273.188L115.609 272.856L114.562 271.81L114.209 272.163L112.138 270.092L112.491 269.738L109.729 266.977L109.376 267.33L107.305 265.259L107.658 264.906L104.897 262.144L104.543 262.497L102.472 260.426L102.825 260.073L100.064 257.311L99.7102 257.665L97.6389 255.593L97.9925 255.24L96.6117 253.859L95.6606 252.908L95.7595 254.249C95.7843 254.587 95.8057 254.925 95.8235 255.264L96.3228 255.238C96.3496 255.749 96.3685 256.262 96.3793 256.778L95.8794 256.788C95.8864 257.126 95.89 257.465 95.89 257.805C95.89 258.458 95.8769 259.107 95.8509 259.753L96.3505 259.773C96.3108 260.761 96.2414 261.742 96.1431 262.713L95.6457 262.663C95.5141 263.964 95.3302 265.25 95.0961 266.518L95.5878 266.608C95.4086 267.579 95.2003 268.54 94.9638 269.49L94.4786 269.369C94.1634 270.635 93.7977 271.88 93.3838 273.103L93.8574 273.264C93.5412 274.198 93.1973 275.119 92.8264 276.026L92.3636 275.837C91.8711 277.042 91.3308 278.222 90.745 279.376L91.1908 279.602C90.7447 280.48 90.2724 281.343 89.7751 282.189L89.344 281.936C88.6854 283.057 87.9824 284.148 87.2373 285.208L87.6463 285.495C87.0802 286.3 86.4901 287.087 85.877 287.855L85.4863 287.543C84.6762 288.557 83.8255 289.538 82.9368 290.483L83.3009 290.825C82.6271 291.542 81.9315 292.237 81.2154 292.911L80.8728 292.547C79.9282 293.436 78.9475 294.286 77.9329 295.096L78.2449 295.487C77.4772 296.1 76.6902 296.69 75.8852 297.256L75.5976 296.847C74.538 297.592 73.4466 298.295 72.3261 298.954L72.5794 299.385C71.7332 299.882 70.8704 300.355 69.9922 300.801L69.7658 300.355C68.6125 300.941 67.4322 301.481 66.2273 301.974L66.4165 302.436C65.509 302.807 64.5878 303.151 63.6536 303.467L63.4934 302.994C62.2701 303.408 61.0246 303.773 59.759 304.089L59.8799 304.574C58.9302 304.81 57.9694 305.019 56.9984 305.198L56.9076 304.706C55.6397 304.94 54.3541 305.124 53.0531 305.256L53.1034 305.753C52.1316 305.851 51.1513 305.921 50.1634 305.961L50.1433 305.461C49.4971 305.487 48.8476 305.5 48.195 305.5C47.5424 305.5 46.8929 305.487 46.2467 305.461L46.2266 305.961C45.2387 305.921 44.2584 305.851 43.2866 305.753L43.3369 305.256C42.0359 305.124 40.7503 304.94 39.4824 304.706L39.3916 305.198C38.4206 305.019 37.4598 304.81 36.5101 304.574L36.631 304.089C35.3654 303.773 34.1199 303.408 32.8966 302.994L32.7363 303.467C31.8022 303.151 30.881 302.807 29.9735 302.436L30.1627 301.974C28.9578 301.481 27.7775 300.941 26.6242 300.355L26.3978 300.801C25.5195 300.355 24.6568 299.882 23.8106 299.385L24.0639 298.954C22.9433 298.295 21.852 297.592 20.7924 296.847L20.5048 297.256C19.6997 296.69 18.9128 296.1 18.1451 295.487L18.4571 295.096C17.4425 294.286 16.4617 293.436 15.5172 292.547L15.1746 292.911C14.4584 292.237 13.7629 291.542 13.0891 290.825L13.4532 290.483C12.5645 289.538 11.7138 288.557 10.9037 287.543L10.513 287.855C9.89989 287.087 9.30979 286.3 8.74371 285.495L9.15272 285.208C8.4076 284.148 7.70454 283.057 7.04596 281.936L6.6149 282.189C6.11757 281.343 5.64534 280.48 5.19922 279.602L5.645 279.376C5.05917 278.222 4.51886 277.042 4.02643 275.837L3.56359 276.026C3.19274 275.119 2.84875 274.198 2.53263 273.264L3.00624 273.103C2.59225 271.88 2.22655 270.635 1.91139 269.369L1.42621 269.49C1.18971 268.54 0.981378 267.579 0.802153 266.608L1.29385 266.518C1.05982 265.25 0.875937 263.964 0.744334 262.663L0.246874 262.713C0.148577 261.742 0.0791504 260.761 0.0394639 259.773L0.539061 259.753C0.513104 259.107 0.5 258.458 0.5 257.805C0.5 257.152 0.513104 256.503 0.539061 255.857L0.0394642 255.837C0.0791506 254.849 0.148577 253.868 0.246873 252.897L0.744335 252.947C0.875937 251.646 1.05982 250.36 1.29385 249.092L0.802155 249.002C0.98138 248.031 1.18971 247.07 1.42621 246.12L1.91139 246.241C2.22655 244.975 2.59226 243.73 3.00624 242.507L2.53263 242.346C2.84876 241.412 3.19274 240.491 3.5636 239.584L4.02644 239.773C4.51886 238.568 5.05917 237.388 5.64501 236.234L5.19922 236.008C5.64534 235.13 6.11758 234.267 6.61491 233.421L7.04597 233.674C7.70455 232.553 8.40761 231.462 9.15273 230.402L8.74372 230.115C9.3098 229.31 9.89989 228.523 10.513 227.755L10.9037 228.067C11.7138 227.053 12.5645 226.072 13.4532 225.127L13.0891 224.785C13.7629 224.068 14.4585 223.373 15.1746 222.699L15.5172 223.063C16.4618 222.174 17.4425 221.324 18.4571 220.514L18.1451 220.123C18.9128 219.51 19.6998 218.92 20.5048 218.354L20.7924 218.763C21.852 218.018 22.9434 217.315 24.0639 216.656L23.8106 216.225C24.6568 215.728 25.5196 215.255 26.3978 214.809L26.6242 215.255C27.7775 214.669 28.9578 214.129 30.1627 213.636L29.9736 213.174C30.881 212.803 31.8023 212.459 32.7364 212.143L32.8966 212.616C34.1199 212.202 35.3654 211.837 36.631 211.521L36.5101 211.036C37.4598 210.8 38.4206 210.591 39.3916 210.412L39.4824 210.904C40.7503 210.67 42.0359 210.486 43.3369 210.354L43.2866 209.857C44.2584 209.759 45.2387 209.689 46.2266 209.649L46.2467 210.149C46.8929 210.123 47.5424 210.11 48.195 210.11C48.5348 210.11 48.8738 210.114 49.212 210.121L49.2224 209.621C49.7378 209.631 50.2512 209.65 50.7625 209.677L50.7363 210.176C51.0756 210.194 51.4139 210.215 51.7512 210.24L53.0923 210.339L52.1414 209.388L50.7223 207.969L50.3688 208.322L48.24 206.194L48.5936 205.84L45.7553 203.002L45.4018 203.356L43.2731 201.227L43.6266 200.874L40.7883 198.035L40.4348 198.389L38.3061 196.26L38.6596 195.907L35.8213 193.069L35.4678 193.422L33.3391 191.294L33.6926 190.94L32.6091 189.857L32.61 189.855L32.2811 189.52C31.8021 189.031 31.3275 188.538 30.8575 188.041L30.4941 188.384C29.786 187.635 29.0882 186.876 28.4009 186.107L28.7736 185.774C27.8616 184.754 26.9681 183.717 26.0937 182.663L25.709 182.982C25.0506 182.189 24.403 181.387 23.7663 180.575L24.1597 180.267C23.3153 179.191 22.4903 178.098 21.6852 176.991L21.2807 177.285C20.6748 176.451 20.0802 175.608 19.497 174.758L19.9094 174.475C19.1362 173.347 18.3832 172.204 17.651 171.046L17.2284 171.313C16.6776 170.442 16.1385 169.563 15.6113 168.676L16.0411 168.421C15.3426 167.246 14.665 166.057 14.0091 164.854L13.5701 165.093C13.0768 164.189 12.5956 163.277 12.1268 162.357L12.5722 162.13C11.9514 160.913 11.3523 159.682 10.7755 158.439L10.3219 158.649C9.88838 157.715 9.46739 156.774 9.05915 155.826L9.51838 155.628C8.9779 154.373 8.45987 153.106 7.96479 151.827L7.49853 152.008C7.12675 151.048 6.76786 150.081 6.42207 149.108L6.89319 148.941C6.43571 147.654 6.00126 146.356 5.59035 145.048L5.11332 145.198C4.80483 144.215 4.50953 143.227 4.22765 142.234L4.70867 142.097C4.33611 140.784 3.98709 139.461 3.66208 138.128L3.17631 138.246C2.93249 137.247 2.70213 136.242 2.48542 135.231L2.9743 135.127C2.68792 133.792 2.42551 132.448 2.18753 131.096L1.6951 131.183C1.51681 130.17 1.35217 129.152 1.20138 128.13L1.69603 128.057C1.49698 126.707 1.32217 125.35 1.17206 123.985L0.675055 124.04C0.562603 123.018 0.463948 121.991 0.37928 120.961L0.877601 120.92C0.765922 119.561 0.678685 118.195 0.616331 116.822L0.116846 116.845C0.0701992 115.818 0.0374172 114.788 0.0186832 113.754L0.518601 113.745C0.506218 113.061 0.5 112.376 0.5 111.69C0.5 111.021 0.505914 110.353 0.517691 109.686L0.0177692 109.677C0.0355136 108.673 0.0665106 107.672 0.110593 106.675L0.610105 106.697C0.669133 105.361 0.751726 104.031 0.857478 102.708L0.359067 102.668C0.439041 101.668 0.532201 100.671 0.638374 99.6781L1.13554 99.7313C1.27755 98.4032 1.44295 97.082 1.63131 95.7683L1.13637 95.6974C1.27906 94.7021 1.43488 93.7112 1.60363 92.7246L2.09648 92.8089C2.32129 91.4946 2.56917 90.1882 2.83968 88.8901L2.3502 88.7881C2.55537 87.8035 2.77351 86.8237 3.00442 85.8488L3.49096 85.9641C3.79839 84.6662 4.12858 83.3771 4.48106 82.0972L3.99901 81.9644C4.26549 80.9968 4.54467 80.0345 4.83635 79.0776L5.31462 79.2234C5.70362 77.9473 6.11496 76.6808 6.54817 75.4246L6.07549 75.2616C6.40264 74.3129 6.74222 73.37 7.09402 72.4331L7.56211 72.6089C8.03066 71.3611 8.52099 70.124 9.03264 68.8979L8.57121 68.7054C8.958 67.7785 9.35692 66.858 9.76778 65.9441L10.2238 66.1491C10.7701 64.9339 11.3375 63.7304 11.9256 62.5388L11.4773 62.3175C11.9215 61.4176 12.3775 60.5245 12.8451 59.6384L13.2873 59.8717C13.9091 58.6934 14.5515 57.5275 15.2139 56.3747L14.7804 56.1256C15.28 55.256 15.791 54.3939 16.3132 53.5392L16.7398 53.7999C17.4344 52.6632 18.1488 51.5398 18.8826 50.4304L18.4655 50.1546C19.019 49.3179 19.5833 48.489 20.1585 47.6683L20.568 47.9552C21.332 46.8648 22.1152 45.7888 22.9169 44.7276L22.518 44.4262C23.1227 43.6258 23.7379 42.8339 24.3634 42.0505L24.7541 42.3625C25.5848 41.3222 26.4338 40.2971 27.3006 39.2877L26.9213 38.962C27.5745 38.2013 28.2379 37.4494 28.911 36.7067L29.2815 37.0425C30.1754 36.0562 31.0868 35.0861 32.0152 34.1325L31.657 33.7837C32.3564 33.0654 33.0654 32.3564 33.7837 31.657L34.1325 32.0152C35.0861 31.0869 36.0562 30.1754 37.0425 29.2815L36.7067 28.911C37.4494 28.2379 38.2013 27.5745 38.962 26.9213L39.2877 27.3006C40.2971 26.4338 41.3222 25.5848 42.3625 24.7541L42.0505 24.3634C42.8339 23.7379 43.6258 23.1227 44.4262 22.518L44.7276 22.9169C45.7888 22.1152 46.8648 21.332 47.9552 20.568L47.6683 20.1585C48.489 19.5833 49.3179 19.019 50.1546 18.4655L50.4304 18.8826C51.5398 18.1488 52.6632 17.4344 53.7999 16.7398L53.5392 16.3132C54.3939 15.791 55.256 15.28 56.1256 14.7804L56.3747 15.2139C57.5275 14.5515 58.6934 13.9091 59.8717 13.2873L59.6384 12.8451C60.5245 12.3775 61.4176 11.9215 62.3175 11.4773L62.5388 11.9256C63.7304 11.3375 64.9339 10.7701 66.1491 10.2238L65.9441 9.76778C66.858 9.35693 67.7785 8.958 68.7054 8.57121L68.8979 9.03264C70.124 8.52099 71.3611 8.03066 72.6089 7.56212L72.4331 7.09403C73.37 6.74222 74.3129 6.40264 75.2616 6.07549L75.4246 6.54817C76.6808 6.11496 77.9473 5.70362 79.2234 5.31462L79.0776 4.83635C80.0345 4.54467 80.9968 4.26549 81.9644 3.99901L82.0972 4.48106C83.3771 4.12858 84.6662 3.7984 85.9641 3.49096L85.8488 3.00442C86.8237 2.77351 87.8035 2.55537 88.7881 2.3502L88.8901 2.83968C90.1882 2.56917 91.4946 2.32129 92.8089 2.09648L92.7246 1.60363C93.7112 1.43488 94.7021 1.27906 95.6974 1.13637L95.7683 1.6313C97.082 1.44295 98.4032 1.27755 99.7313 1.13554L99.6781 0.638373C100.671 0.532201 101.668 0.43904 102.668 0.359066L102.708 0.857477C104.031 0.751725 105.361 0.669132 106.697 0.610105L106.675 0.110592C107.672 0.06651 108.673 0.0355132 109.677 0.0177689L109.686 0.517691C110.353 0.505913 111.021 0.5 111.69 0.5C112.376 0.5 113.061 0.506218 113.745 0.518601L113.754 0.0186832C114.788 0.0374171 115.818 0.0701992 116.845 0.116846L116.822 0.616331C118.195 0.678685 119.561 0.765922 120.92 0.8776L120.961 0.37928C121.991 0.463948 123.018 0.562602 124.04 0.675054L123.985 1.17206C125.35 1.32217 126.707 1.49698 128.057 1.69602L128.13 1.20138C129.152 1.35217 130.17 1.51681 131.183 1.6951L131.096 2.18753C132.448 2.42551 133.792 2.68792 135.127 2.97429L135.231 2.48542C136.242 2.70212 137.247 2.93249 138.246 3.17631L138.128 3.66207C139.461 3.98708 140.784 4.33611 142.097 4.70867L142.234 4.22765C143.227 4.50953 144.215 4.80482 145.198 5.11332L145.048 5.59034C146.356 6.00126 147.654 6.4357 148.941 6.89318L149.108 6.42206C150.081 6.76785 151.048 7.12674 152.008 7.49852L151.827 7.96479C153.106 8.45986 154.373 8.97789 155.628 9.51838L155.826 9.05914C156.774 9.46738 157.715 9.88838 158.649 10.3219L158.439 10.7755C159.682 11.3523 160.913 11.9514 162.13 12.5722L162.357 12.1268C163.277 12.5956 164.189 13.0768 165.093 13.5701L164.854 14.0091C166.057 14.665 167.246 15.3425 168.421 16.0411L168.676 15.6113C169.563 16.1385 170.442 16.6776 171.313 17.2284L171.046 17.651C172.204 18.3832 173.347 19.1362 174.475 19.9094L174.758 19.497C175.608 20.0802 176.451 20.6748 177.285 21.2807L176.991 21.6852C178.098 22.4903 179.191 23.3153 180.267 24.1597L180.575 23.7663C181.387 24.4029 182.189 25.0506 182.983 25.709L182.663 26.0937C183.717 26.9681 184.754 27.8616 185.774 28.7736L186.107 28.4009C186.876 29.0882 187.635 29.786 188.384 30.4941L188.041 30.8575C188.538 31.3275 189.031 31.8021 189.52 32.2811L189.907 32.6606L190.228 32.275L190.3 32.3468L189.947 32.7007L190.117 32.8705L190.118 32.8713L190.23 32.9831L190.583 32.6294C190.597 32.6429 190.61 32.6565 190.624 32.67C190.666 32.7124 190.709 32.7549 190.751 32.7973L190.397 33.1507L190.508 33.2618L190.509 33.2631L191.858 34.6116L192.211 34.2581L194.234 36.2809L193.881 36.6344L196.577 39.3315L196.931 38.9779L198.954 41.0007L198.6 41.3543L201.297 44.0513L201.651 43.6978L203.673 45.7206L203.32 46.0741L206.017 48.7712L206.37 48.4176L208.393 50.4404L208.04 50.794L209.388 52.1425L210.339 53.0933L210.24 51.7523C210.215 51.4149 210.194 51.0765 210.176 50.7371L209.677 50.7633C209.65 50.2518 209.631 49.7382 209.621 49.2227L210.121 49.2123C210.114 48.874 210.11 48.5349 210.11 48.195C210.11 47.5424 210.123 46.8929 210.149 46.2467L209.649 46.2266C209.689 45.2387 209.759 44.2584 209.857 43.2866L210.354 43.3369C210.486 42.0359 210.67 40.7503 210.904 39.4824L210.412 39.3916C210.591 38.4206 210.8 37.4598 211.036 36.5101L211.521 36.631C211.837 35.3654 212.202 34.1199 212.616 32.8966L212.143 32.7363C212.459 31.8022 212.803 30.881 213.174 29.9735L213.636 30.1627C214.129 28.9578 214.669 27.7775 215.255 26.6242L214.809 26.3978C215.255 25.5195 215.728 24.6568 216.225 23.8106L216.656 24.0639C217.315 22.9433 218.018 21.852 218.763 20.7924L218.354 20.5048C218.92 19.6997 219.51 18.9128 220.123 18.1451L220.514 18.4571C221.324 17.4425 222.174 16.4617 223.063 15.5172L222.699 15.1746C223.373 14.4584 224.068 13.7629 224.785 13.0891L225.127 13.4532C226.072 12.5645 227.053 11.7138 228.067 10.9037L227.755 10.513C228.523 9.89988 229.31 9.30979 230.115 8.74371L230.402 9.15272C231.462 8.4076 232.553 7.70454 233.674 7.04596L233.421 6.6149C234.267 6.11757 235.13 5.64533 236.008 5.19922L236.234 5.645C237.388 5.05917 238.568 4.51886 239.773 4.02643L239.584 3.56359C240.491 3.19274 241.412 2.84875 242.346 2.53262L242.507 3.00624C243.73 2.59225 244.975 2.22655 246.241 1.91139L246.12 1.42621C247.07 1.18971 248.031 0.981377 249.002 0.802152L249.092 1.29385C250.36 1.05982 251.646 0.875937 252.947 0.744334L252.897 0.246872C253.868 0.148577 254.849 0.0791502 255.837 0.0394639L255.857 0.539061C256.503 0.513104 257.152 0.5 257.805 0.5C258.458 0.5 259.107 0.513104 259.753 0.539061L259.773 0.0394639C260.761 0.0791504 261.742 0.148577 262.713 0.246874L262.663 0.744335C263.964 0.875937 265.25 1.05982 266.518 1.29385L266.608 0.802156C267.579 0.981381 268.54 1.18971 269.49 1.42621L269.369 1.91139C270.635 2.22655 271.88 2.59226 273.103 3.00624L273.264 2.53263C274.198 2.84876 275.119 3.19274 276.026 3.5636L275.837 4.02644C277.042 4.51886 278.222 5.05917 279.376 5.64501L279.602 5.19922C280.48 5.64534 281.343 6.11758 282.189 6.61491L281.936 7.04597C283.057 7.70455 284.148 8.40761 285.208 9.15273L285.495 8.74372C286.3 9.3098 287.087 9.89989 287.855 10.513L287.543 10.9037C288.557 11.7138 289.538 12.5645 290.483 13.4532L290.825 13.0891C291.542 13.7629 292.237 14.4585 292.911 15.1746L292.547 15.5172C293.436 16.4618 294.286 17.4425 295.096 18.4571L295.487 18.1451C296.1 18.9128 296.69 19.6998 297.256 20.5048L296.847 20.7924C297.592 21.852 298.295 22.9434 298.954 24.0639L299.385 23.8106C299.882 24.6568 300.355 25.5196 300.801 26.3978L300.355 26.6242C300.941 27.7775 301.481 28.9578 301.974 30.1627L302.436 29.9735C302.807 30.881 303.151 31.8022 303.467 32.7364L302.994 32.8966C303.408 34.1199 303.773 35.3654 304.089 36.631L304.574 36.5101C304.81 37.4598 305.019 38.4206 305.198 39.3916L304.706 39.4824C304.94 40.7503 305.124 42.0359 305.256 43.3369L305.753 43.2866C305.851 44.2584 305.921 45.2387 305.961 46.2266L305.461 46.2467C305.487 46.8929 305.5 47.5424 305.5 48.195C305.5 48.8476 305.487 49.4971 305.461 50.1433L305.961 50.1634C305.921 51.1513 305.851 52.1316 305.753 53.1034L305.256 53.0531C305.124 54.3541 304.94 55.6397 304.706 56.9076L305.198 56.9984C305.019 57.9694 304.81 58.9302 304.574 59.8799L304.089 59.759C303.773 61.0246 303.408 62.2701 302.994 63.4934L303.467 63.6537C303.151 64.5878 302.807 65.509 302.436 66.4165L301.974 66.2273C301.481 67.4322 300.941 68.6125 300.355 69.7658L300.801 69.9922C300.355 70.8705 299.882 71.7332 299.385 72.5794L298.954 72.3261C298.295 73.4467 297.592 74.538 296.847 75.5976L297.256 75.8852C296.69 76.6903 296.1 77.4772 295.487 78.2449L295.096 77.9329C294.286 78.9475 293.436 79.9283 292.547 80.8728L292.911 81.2154C292.237 81.9316 291.542 82.6271 290.825 83.3009L290.483 82.9368C289.538 83.8255 288.557 84.6762 287.543 85.4863L287.855 85.877C287.087 86.4901 286.3 87.0802 285.495 87.6463L285.208 87.2373C284.148 87.9824 283.057 88.6855 281.936 89.344L282.189 89.7751C281.343 90.2724 280.48 90.7447 279.602 91.1908L279.376 90.745C278.222 91.3308 277.042 91.8711 275.837 92.3636L276.026 92.8264C275.119 93.1973 274.198 93.5412 273.264 93.8574L273.103 93.3838C271.88 93.7977 270.635 94.1635 269.369 94.4786L269.49 94.9638C268.54 95.2003 267.579 95.4086 266.608 95.5878L266.518 95.0962C265.25 95.3302 263.964 95.5141 262.663 95.6457L262.713 96.1431C261.742 96.2414 260.761 96.3108 259.773 96.3505L259.753 95.8509C259.107 95.8769 258.458 95.89 257.805 95.89C257.465 95.89 257.126 95.8864 256.788 95.8794L256.777 96.3792C256.262 96.3685 255.748 96.3496 255.237 96.3227L255.263 95.8234C254.924 95.8056 254.585 95.7842 254.248 95.7593L252.906 95.6604L253.857 96.6115L255.206 97.9602L255.56 97.6066L257.583 99.6297L257.229 99.9833L259.927 102.681L260.28 102.327L262.303 104.35L261.95 104.704L264.647 107.401L265.001 107.048L267.024 109.071L266.67 109.424L269.367 112.122L269.721 111.768L271.744 113.791L271.391 114.145L272.739 115.493L272.741 115.495L272.792 115.545L272.85 115.604L273.204 115.25C273.259 115.305 273.314 115.361 273.37 115.416L273.015 115.769L273.125 115.88L273.126 115.88L273.144 115.898L273.498 115.545L273.525 115.572L273.171 115.925L273.188 115.943C273.674 116.432 274.156 116.926 274.634 117.425L274.995 117.079C275.714 117.831 276.423 118.592 277.121 119.363L276.751 119.698C277.677 120.722 278.585 121.762 279.474 122.819L279.856 122.498C280.525 123.294 281.183 124.099 281.83 124.914L281.439 125.225C282.297 126.306 283.135 127.403 283.954 128.516L284.356 128.22C284.972 129.057 285.577 129.904 286.169 130.759L285.758 131.044C286.544 132.178 287.31 133.327 288.054 134.491L288.476 134.222C289.036 135.098 289.584 135.982 290.12 136.874L289.691 137.131C290.401 138.314 291.09 139.51 291.757 140.72L292.195 140.479C292.697 141.389 293.186 142.307 293.663 143.233L293.218 143.462C293.85 144.688 294.459 145.926 295.046 147.178L295.498 146.966C295.939 147.907 296.368 148.855 296.783 149.81L296.324 150.009C296.874 151.273 297.401 152.55 297.905 153.838L298.37 153.656C298.748 154.623 299.114 155.597 299.465 156.577L298.995 156.746C299.46 158.043 299.902 159.351 300.32 160.669L300.797 160.518C301.111 161.508 301.411 162.504 301.698 163.506L301.217 163.643C301.596 164.967 301.951 166.301 302.282 167.645L302.768 167.526C303.016 168.534 303.25 169.547 303.471 170.565L302.982 170.671C303.273 172.017 303.54 173.372 303.783 174.736L304.275 174.648C304.456 175.67 304.624 176.696 304.777 177.727L304.283 177.801C304.485 179.162 304.663 180.531 304.816 181.907L305.313 181.852C305.427 182.883 305.528 183.919 305.614 184.958L305.116 184.999C305.229 186.37 305.318 187.748 305.382 189.133L305.881 189.11C305.929 190.146 305.962 191.185 305.981 192.228L305.481 192.237C305.494 192.927 305.5 193.618 305.5 194.31C305.5 194.979 305.494 195.647 305.482 196.314L305.982 196.323C305.965 197.327 305.933 198.328 305.889 199.325L305.39 199.303C305.331 200.639 305.248 201.969 305.143 203.292L305.641 203.332C305.561 204.332 305.468 205.329 305.362 206.322L304.864 206.269C304.722 207.597 304.557 208.918 304.369 210.232L304.864 210.303C304.721 211.298 304.565 212.289 304.396 213.275L303.904 213.191C303.679 214.505 303.431 215.812 303.16 217.11L303.65 217.212C303.445 218.197 303.227 219.176 302.996 220.151L302.509 220.036C302.202 221.334 301.871 222.623 301.519 223.903L302.001 224.036C301.735 225.003 301.455 225.965 301.164 226.922L300.685 226.777C300.296 228.053 299.885 229.319 299.452 230.575L299.925 230.738C299.597 231.687 299.258 232.63 298.906 233.567L298.438 233.391C297.969 234.639 297.479 235.876 296.967 237.102L297.429 237.295C297.042 238.221 296.643 239.142 296.232 240.056L295.776 239.851C295.23 241.066 294.663 242.27 294.074 243.461L294.523 243.683C294.079 244.582 293.623 245.476 293.155 246.362L292.713 246.128C292.091 247.307 291.449 248.473 290.786 249.625L291.22 249.874C290.72 250.744 290.209 251.606 289.687 252.461L289.26 252.2C288.566 253.337 287.851 254.46 287.118 255.57L287.535 255.845C286.981 256.682 286.417 257.511 285.842 258.332L285.432 258.045C284.668 259.135 283.885 260.211 283.083 261.272L283.482 261.574C282.877 262.374 282.262 263.166 281.637 263.95L281.246 263.638C280.415 264.678 279.566 265.703 278.7 266.712L279.079 267.038C278.426 267.799 277.762 268.551 277.089 269.293L276.719 268.958C275.825 269.944 274.913 270.914 273.985 271.868L274.343 272.216C273.644 272.935 272.935 273.644 272.216 274.343L271.868 273.985C270.914 274.913 269.944 275.825 268.958 276.719L269.293 277.089C268.551 277.762 267.799 278.426 267.038 279.079L266.712 278.699C265.703 279.566 264.678 280.415 263.638 281.246L263.95 281.637C263.166 282.262 262.374 282.877 261.574 283.482L261.272 283.083C260.211 283.885 259.135 284.668 258.045 285.432L258.332 285.842C257.511 286.417 256.682 286.981 255.845 287.535L255.57 287.118C254.46 287.851 253.337 288.566 252.2 289.26L252.461 289.687C251.606 290.209 250.744 290.72 249.874 291.22L249.625 290.786C248.473 291.449 247.307 292.091 246.128 292.713L246.362 293.155C245.476 293.623 244.583 294.079 243.683 294.523L243.461 294.074C242.27 294.663 241.066 295.23 239.851 295.776L240.056 296.232C239.142 296.643 238.222 297.042 237.295 297.429L237.102 296.967C235.876 297.479 234.639 297.969 233.391 298.438L233.567 298.906C232.63 299.258 231.687 299.597 230.738 299.925L230.575 299.452C229.319 299.885 228.053 300.296 226.777 300.685L226.922 301.164C225.965 301.455 225.003 301.735 224.036 302.001L223.903 301.519C222.623 301.871 221.334 302.202 220.036 302.509L220.151 302.996C219.176 303.227 218.197 303.445 217.212 303.65L217.11 303.16C215.812 303.431 214.505 303.679 213.191 303.904L213.275 304.396C212.289 304.565 211.298 304.721 210.303 304.864L210.232 304.369C208.918 304.557 207.597 304.722 206.269 304.864L206.322 305.362C205.329 305.468 204.332 305.561 203.331 305.641L203.292 305.143C201.969 305.248 200.639 305.331 199.303 305.39L199.325 305.889C198.328 305.933 197.327 305.965 196.323 305.982L196.314 305.482C195.647 305.494 194.979 305.5 194.31 305.5C193.618 305.5 192.927 305.494 192.237 305.481L192.228 305.981C191.185 305.962 190.146 305.929 189.11 305.881L189.133 305.382C187.748 305.318 186.37 305.229 184.999 305.116L184.958 305.614C183.919 305.528 182.883 305.427 181.852 305.313L181.907 304.816C180.531 304.663 179.162 304.485 177.801 304.283L177.727 304.777C176.696 304.624 175.67 304.456 174.648 304.275L174.736 303.783C173.372 303.54 172.017 303.273 170.671 302.982L170.565 303.471C169.547 303.25 168.534 303.016 167.526 302.768L167.645 302.282C166.301 301.951 164.967 301.596 163.643 301.217L163.506 301.698C162.504 301.411 161.508 301.111 160.518 300.797L160.669 300.32C159.351 299.902 158.043 299.46 156.746 298.995L156.577 299.465C155.597 299.114 154.623 298.748 153.656 298.37L153.838 297.905C152.55 297.401 151.273 296.874 150.009 296.324L149.81 296.783C148.855 296.368 147.907 295.939 146.966 295.498L147.178 295.046C145.927 294.459 144.688 293.85 143.462 293.218L143.233 293.663C142.307 293.186 141.389 292.697 140.479 292.195L140.721 291.757C139.51 291.09 138.314 290.401 137.131 289.691L136.874 290.12C135.982 289.584 135.098 289.035 134.222 288.476L134.491 288.054C133.327 287.31 132.178 286.544 131.044 285.758L130.759 286.169C129.904 285.577 129.057 284.972 128.22 284.356L128.516 283.954C127.403 283.135 126.306 282.297 125.225 281.439L124.914 281.83C124.099 281.183 123.294 280.525 122.498 279.856L122.819 279.474C121.762 278.585 120.722 277.677 119.699 276.751L119.363 277.121C118.592 276.423 117.831 275.714 117.079 274.995L117.425 274.634C116.927 274.156 116.432 273.674 115.943 273.188ZM31.9228 189.871L31.9231 189.871L31.9212 189.873L31.9228 189.871ZM189.9 31.9473L189.871 31.9231L189.884 31.9312L189.9 31.9473ZM189.691 32.4449L190.044 32.091L189.87 31.9241L189.52 32.2743L189.523 32.2777L189.691 32.4449ZM189.903 31.8904L189.903 31.89L189.903 31.8904Z" fill="#F1F4FF" stroke="#0000FF" stroke-dasharray="4 3"/>
</g>
</g>
<g filter="url(#filter0_f_234_164)">
<ellipse cx="152.5" cy="228" rx="94.5" ry="4" fill="#B5B5FF" fill-opacity="0.5"/>
</g>
<g clip-path="url(#clip1_234_164)">
<path d="M214.529 87.7329C214.525 87.7329 214.522 87.734 214.518 87.7341V67.1312C214.518 64.9006 213.621 62.7614 212.023 61.1842C210.425 59.6069 208.259 58.7208 205.999 58.7208H140.661C138.402 58.7208 136.235 59.6069 134.637 61.1842C133.039 62.7614 132.142 64.9006 132.142 67.1312V77.6933C131.961 77.6971 131.79 77.7705 131.664 77.8977C131.537 78.025 131.466 78.1959 131.466 78.3741V83.6056C131.466 83.7837 131.537 83.9547 131.663 84.0819C131.79 84.2091 131.961 84.2824 132.142 84.2862V89.7667H132.107C132.016 89.7667 131.927 89.7843 131.843 89.8186C131.759 89.8529 131.683 89.9031 131.619 89.9665C131.554 90.0298 131.503 90.1051 131.469 90.1878C131.434 90.2706 131.416 90.3593 131.416 90.4489V100.565C131.416 100.655 131.434 100.744 131.469 100.826C131.503 100.909 131.554 100.984 131.619 101.048C131.683 101.111 131.759 101.161 131.843 101.196C131.927 101.23 132.016 101.248 132.107 101.248H132.142V105.266H132.131C132.04 105.266 131.95 105.283 131.867 105.317C131.783 105.352 131.707 105.402 131.642 105.465C131.578 105.529 131.527 105.604 131.493 105.687C131.458 105.769 131.44 105.858 131.44 105.948V116.163C131.44 116.253 131.458 116.341 131.493 116.424C131.527 116.507 131.578 116.582 131.642 116.646C131.707 116.709 131.783 116.759 131.867 116.793C131.95 116.828 132.04 116.845 132.131 116.845H132.142V215.59C132.142 217.82 133.039 219.959 134.637 221.537C136.235 223.114 138.402 224 140.661 224H205.999C208.259 224 210.425 223.114 212.023 221.537C213.621 219.959 214.518 217.82 214.518 215.59V107.767C214.522 107.767 214.525 107.768 214.529 107.768C214.691 107.768 214.851 107.737 215 107.676C215.149 107.615 215.285 107.525 215.399 107.412C215.514 107.299 215.604 107.166 215.666 107.018C215.728 106.871 215.76 106.713 215.76 106.553V88.9478C215.76 88.6256 215.63 88.3166 215.399 88.0888C215.169 87.8609 214.856 87.7329 214.529 87.7329Z" fill="#A5A5AB"/>
<path d="M212.352 67.8453V214.026C212.351 215.768 211.611 217.438 210.293 218.669C208.976 219.9 207.189 220.592 205.326 220.592H141.849C139.987 220.592 138.2 219.9 136.883 218.669C135.565 217.438 134.825 215.768 134.824 214.026V67.8453C134.824 66.1032 135.564 64.4324 136.882 63.2006C138.199 61.9687 139.986 61.2767 141.849 61.2767H151.348V62.4294C151.349 63.8637 151.958 65.239 153.043 66.2532C154.128 67.2674 155.599 67.8374 157.133 67.8381H189.428C190.96 67.8349 192.428 67.2636 193.51 66.2497C194.592 65.2357 195.2 63.8618 195.2 62.4294V61.2887H205.326C207.187 61.2887 208.972 61.9791 210.29 63.2083C211.607 64.4376 212.348 66.1052 212.352 67.8453Z" fill="white"/>
<path d="M114.19 139.309C113.846 139.175 113.476 139.119 113.107 139.144C112.738 139.169 112.379 139.274 112.055 139.453C111.731 139.631 111.451 139.879 111.233 140.178C111.015 140.477 110.866 140.82 110.795 141.182L90.0159 152.481L93.6693 156.593L112.966 144.209C113.584 144.287 114.209 144.137 114.723 143.785C115.237 143.434 115.604 142.906 115.755 142.302C115.906 141.698 115.83 141.06 115.541 140.508C115.253 139.957 114.772 139.53 114.19 139.309Z" fill="#FFB8B8"/>
<path d="M205.562 120.815H143.464C143.101 120.814 142.753 120.606 142.497 120.236C142.241 119.867 142.097 119.365 142.096 118.842V94.4794C142.097 93.9565 142.241 93.4552 142.497 93.0855C142.753 92.7157 143.101 92.5078 143.464 92.5072H205.562C205.924 92.5078 206.272 92.7158 206.528 93.0855C206.785 93.4552 206.929 93.9565 206.929 94.4794V118.842C206.929 119.365 206.785 119.867 206.528 120.236C206.272 120.606 205.924 120.814 205.562 120.815Z" fill="#FAFAFA"/>
<path d="M205.562 184.735H143.464C143.101 184.734 142.753 184.526 142.497 184.156C142.241 183.787 142.097 183.285 142.096 182.763V158.4C142.097 157.877 142.241 157.375 142.497 157.006C142.753 156.636 143.101 156.428 143.464 156.427H205.562C205.924 156.428 206.272 156.636 206.528 157.006C206.785 157.375 206.929 157.877 206.929 158.4V182.763C206.929 183.285 206.785 183.787 206.528 184.156C206.272 184.526 205.924 184.734 205.562 184.735Z" fill="#FAFAFA"/>
<path d="M205.562 214.869H143.464C143.101 214.868 142.753 214.66 142.497 214.29C142.241 213.921 142.097 213.419 142.096 212.896V188.533C142.097 188.01 142.241 187.509 142.497 187.139C142.753 186.77 143.101 186.562 143.464 186.561H205.562C205.924 186.562 206.272 186.77 206.528 187.139C206.785 187.509 206.929 188.01 206.929 188.533V212.896C206.929 213.419 206.785 213.921 206.528 214.29C206.272 214.66 205.924 214.868 205.562 214.869Z" fill="#FAFAFA"/>
<path d="M108.891 220.6L111.48 218.925L106.253 208.141L102.431 210.613L108.891 220.6Z" fill="#FFB8B8"/>
<path d="M118.029 218.1L109.891 223.363L107.858 220.219L112.969 216.913C113.771 216.394 114.748 216.215 115.682 216.415C116.617 216.616 117.434 217.179 117.953 217.982L118.029 218.1Z" fill="#2F2E41"/>
<path d="M79.8393 220.99H82.9229L84.3904 209.096H79.8393V220.99Z" fill="#FFB8B8"/>
<path d="M88.8701 223.853H79.1786V220.108H85.2656C85.739 220.108 86.2077 220.202 86.645 220.383C87.0823 220.564 87.4796 220.829 87.8143 221.164C88.1491 221.499 88.4146 221.896 88.5957 222.333C88.7768 222.771 88.8701 223.239 88.8701 223.713V223.853Z" fill="#2F2E41"/>
<path d="M163.538 103.689H152.118C151.431 103.689 150.772 103.416 150.286 102.93C149.801 102.444 149.528 101.786 149.528 101.099C149.528 100.412 149.801 99.7531 150.286 99.2674C150.772 98.7817 151.431 98.5089 152.118 98.5089H163.538C164.225 98.5089 164.884 98.7817 165.369 99.2674C165.855 99.7531 166.128 100.412 166.128 101.099C166.128 101.786 165.855 102.444 165.369 102.93C164.884 103.416 164.225 103.689 163.538 103.689Z" fill="#0000FF"/>
<path d="M198.5 109.339H150.941C150.566 109.339 150.207 109.19 149.942 108.926C149.677 108.661 149.528 108.301 149.528 107.927C149.528 107.552 149.677 107.193 149.942 106.928C150.207 106.663 150.566 106.514 150.941 106.514H198.5C198.875 106.514 199.234 106.663 199.499 106.928C199.764 107.193 199.913 107.552 199.913 107.927C199.913 108.301 199.764 108.661 199.499 108.926C199.234 109.19 198.875 109.339 198.5 109.339Z" fill="#E6E6E6"/>
<path d="M168.41 114.99H150.941C150.566 114.99 150.207 114.841 149.942 114.576C149.677 114.311 149.528 113.952 149.528 113.577C149.528 113.203 149.677 112.843 149.942 112.578C150.207 112.313 150.566 112.165 150.941 112.165H168.41C168.785 112.165 169.144 112.313 169.409 112.578C169.674 112.843 169.823 113.203 169.823 113.577C169.823 113.952 169.674 114.311 169.409 114.576C169.144 114.841 168.785 114.99 168.41 114.99Z" fill="#E6E6E6"/>
<path d="M163.538 166.316H152.118C151.431 166.316 150.772 166.044 150.286 165.558C149.801 165.072 149.528 164.413 149.528 163.727C149.528 163.04 149.801 162.381 150.286 161.895C150.772 161.41 151.431 161.137 152.118 161.137H163.538C164.225 161.137 164.884 161.41 165.369 161.895C165.855 162.381 166.128 163.04 166.128 163.727C166.128 164.413 165.855 165.072 165.369 165.558C164.884 166.044 164.225 166.316 163.538 166.316Z" fill="#0000FF"/>
<path d="M198.5 171.967H150.941C150.566 171.967 150.207 171.818 149.942 171.553C149.677 171.288 149.528 170.929 149.528 170.554C149.528 170.18 149.677 169.82 149.942 169.556C150.207 169.291 150.566 169.142 150.941 169.142H198.5C198.875 169.142 199.234 169.291 199.499 169.556C199.764 169.82 199.913 170.18 199.913 170.554C199.913 170.929 199.764 171.288 199.499 171.553C199.234 171.818 198.875 171.967 198.5 171.967Z" fill="#E6E6E6"/>
<path d="M168.41 177.618H150.941C150.566 177.618 150.207 177.469 149.942 177.204C149.677 176.939 149.528 176.58 149.528 176.205C149.528 175.83 149.677 175.471 149.942 175.206C150.207 174.941 150.566 174.792 150.941 174.792H168.41C168.785 174.792 169.144 174.941 169.409 175.206C169.674 175.471 169.823 175.83 169.823 176.205C169.823 176.58 169.674 176.939 169.409 177.204C169.144 177.469 168.785 177.618 168.41 177.618Z" fill="#E6E6E6"/>
<path d="M163.538 195.276H152.118C151.431 195.276 150.772 195.003 150.286 194.517C149.801 194.032 149.528 193.373 149.528 192.686C149.528 191.999 149.801 191.34 150.286 190.855C150.772 190.369 151.431 190.096 152.118 190.096H163.538C164.225 190.096 164.884 190.369 165.369 190.855C165.855 191.34 166.128 191.999 166.128 192.686C166.128 193.373 165.855 194.032 165.369 194.517C164.884 195.003 164.225 195.276 163.538 195.276Z" fill="#0000FF"/>
<path d="M198.5 200.927H150.941C150.566 200.927 150.207 200.778 149.942 200.513C149.677 200.248 149.528 199.889 149.528 199.514C149.528 199.139 149.677 198.78 149.942 198.515C150.207 198.25 150.566 198.101 150.941 198.101H198.5C198.875 198.101 199.234 198.25 199.499 198.515C199.764 198.78 199.913 199.139 199.913 199.514C199.913 199.889 199.764 200.248 199.499 200.513C199.234 200.778 198.875 200.927 198.5 200.927Z" fill="#E6E6E6"/>
<path d="M168.41 206.577H150.941C150.566 206.577 150.207 206.428 149.942 206.163C149.677 205.899 149.528 205.539 149.528 205.165C149.528 204.79 149.677 204.431 149.942 204.166C150.207 203.901 150.566 203.752 150.941 203.752H168.41C168.785 203.752 169.144 203.901 169.409 204.166C169.674 204.431 169.823 204.79 169.823 205.165C169.823 205.539 169.674 205.899 169.409 206.163C169.144 206.428 168.785 206.577 168.41 206.577Z" fill="#E6E6E6"/>
<path d="M205.21 151.601H114.329C113.799 151.601 113.29 151.39 112.915 151.014C112.54 150.639 112.328 150.131 112.328 149.6V124.879C112.328 124.348 112.539 123.839 112.915 123.464C113.29 123.089 113.799 122.878 114.329 122.877H205.21C205.741 122.878 206.249 123.089 206.625 123.464C207 123.839 207.211 124.348 207.211 124.879V149.6C207.211 150.131 207 150.639 206.625 151.014C206.249 151.39 205.741 151.601 205.21 151.601Z" fill="#0000FF"/>
<path d="M81.657 181.013C82.5258 187.108 77.9253 214.114 78.4362 214.111L85.0427 214.076C85.2782 213.624 88.3107 199.052 89.2618 196.715C90.5897 193.47 91.9294 190.186 92.4521 186.72C92.9442 183.466 92.7017 180.151 92.3815 176.876C92.3964 176.779 92.3879 176.679 92.3567 176.586C92.3255 176.492 92.2725 176.407 92.2022 176.338C92.1318 176.269 92.046 176.218 91.9519 176.189C91.8578 176.159 91.7581 176.153 91.661 176.17L82.7966 175.713C80.9695 175.619 80.5363 175.219 80.8142 177.013C81.0072 178.352 81.464 179.657 81.657 181.013Z" fill="#2F2E41"/>
<path d="M83.3993 166.192C81.5982 168.782 79.7099 171.762 80.308 174.863C80.7624 177.217 82.5564 179.042 84.2493 180.749C91.0159 187.544 104.358 217.525 104.358 217.525C110.797 213.405 104.205 217.643 110.739 213.287C110.16 213.243 97.0009 165.94 95.9108 165.876C91.5009 165.584 87.6962 165.153 83.3993 166.192Z" fill="#2F2E41"/>
<path d="M90.5235 141.541C89.6087 140.725 83.1795 138.209 83.1795 138.209C83.0613 138.193 82.9413 138.197 82.8243 138.22C82.4584 138.312 82.2915 138.767 82.3696 139.134C82.4478 139.502 81.8066 145.544 81.6414 148.292C81.3519 153.087 84.1759 163.95 84.151 164.282C84.0543 165.466 83.5356 166.577 82.6893 167.411C82.9093 167.684 96.8783 168.232 97.8285 168.555C98.0203 168.312 96.7469 151.082 96.6882 150.109C96.5906 148.631 91.7312 142.66 90.5235 141.541Z" fill="white"/>
<path d="M80.5602 178.926C80.8912 178.762 81.1821 178.526 81.4124 178.237C81.6426 177.948 81.8067 177.611 81.8929 177.252C81.9791 176.892 81.9855 176.518 81.9115 176.156C81.8375 175.794 81.685 175.452 81.4647 175.155L87.3585 142.537L81.8585 142.464L77.7656 174.719C77.2912 175.123 76.9813 175.686 76.8944 176.302C76.8075 176.919 76.9498 177.546 77.2943 178.064C77.6388 178.583 78.1615 178.957 78.7634 179.116C79.3653 179.275 80.0046 179.207 80.5602 178.926Z" fill="#FFB8B8"/>
<path d="M80.5128 144.957C80.2834 144.974 80.0549 144.914 79.863 144.788C79.5357 144.507 82.2056 140.22 82.733 140.156C84.4494 139.959 86.2152 139.893 87.8798 140.357C89.5444 140.82 91.1101 141.875 91.8541 143.436C92.1649 144.086 89.9117 147.356 88.8875 146.876C87.6608 146.301 82.1279 144.997 80.5128 144.957Z" fill="white"/>
<path d="M86.5708 137.858C89.9827 137.858 92.7486 135.092 92.7486 131.68C92.7486 128.268 89.9827 125.502 86.5708 125.502C83.159 125.502 80.3931 128.268 80.3931 131.68C80.3931 135.092 83.159 137.858 86.5708 137.858Z" fill="#FFB8B8"/>
<path d="M80.503 141.894C81.3615 141.984 82.2288 141.857 83.0256 141.525C83.8223 141.193 84.5231 140.667 85.0639 139.994C85.6046 139.321 85.9679 138.523 86.1207 137.674C86.2735 136.824 86.2108 135.95 85.9384 135.131C85.6925 134.392 85.2816 133.714 85.0564 132.969C84.8313 132.223 84.8251 131.341 85.3245 130.744C86.3015 129.574 88.1847 130.31 89.6909 130.077C91.2958 129.829 92.5271 128.289 92.6555 126.671C92.7839 125.052 91.9401 123.45 90.684 122.42C89.4279 121.391 87.8079 120.884 86.1918 120.726C84.1162 120.522 82.0231 120.856 80.114 121.695C78.2048 122.535 76.544 123.852 75.2914 125.519C74.0388 127.187 73.2366 129.148 72.9621 131.216C72.6876 133.283 72.95 135.387 73.724 137.323C74.3992 139.013 75.5021 140.586 77.0686 141.511C78.6352 142.437 80.7042 142.614 82.2655 141.68" fill="#2F2E41"/>
<path d="M146.65 134.179H130.863C129.86 134.179 129.044 133.017 129.044 131.589C129.044 130.161 129.86 128.999 130.863 128.999H146.65C147.653 128.999 148.468 130.161 148.468 131.589C148.468 133.017 147.653 134.179 146.65 134.179Z" fill="white"/>
<path d="M189.082 139.829H130.457C130.082 139.829 129.723 139.68 129.458 139.415C129.193 139.15 129.044 138.791 129.044 138.416C129.044 138.042 129.193 137.682 129.458 137.418C129.723 137.153 130.082 137.004 130.457 137.004H189.082C189.457 137.004 189.816 137.153 190.081 137.418C190.346 137.682 190.495 138.042 190.495 138.416C190.495 138.791 190.346 139.15 190.081 139.415C189.816 139.68 189.457 139.829 189.082 139.829Z" fill="#E6E6E6"/>
<path d="M158.993 145.48H130.457C130.082 145.48 129.723 145.331 129.458 145.066C129.193 144.801 129.044 144.442 129.044 144.067C129.044 143.692 129.193 143.333 129.458 143.068C129.723 142.803 130.082 142.654 130.457 142.654H158.993C159.367 142.654 159.727 142.803 159.992 143.068C160.257 143.333 160.405 143.692 160.405 144.067C160.405 144.442 160.257 144.801 159.992 145.066C159.727 145.331 159.367 145.48 158.993 145.48Z" fill="#E6E6E6"/>
</g>
<path d="M151.802 87.7346C151.448 87.7346 151.148 87.6119 150.903 87.3665C150.657 87.1212 150.535 86.8213 150.535 86.4669C150.535 86.1124 150.657 85.8125 150.903 85.5672C151.148 85.3218 151.448 85.1991 151.802 85.1991C152.143 85.1991 152.429 85.3218 152.661 85.5672C152.907 85.8125 153.029 86.1124 153.029 86.4669C153.029 86.8213 152.907 87.1212 152.661 87.3665C152.429 87.6119 152.143 87.7346 151.802 87.7346ZM156.095 87.7346C155.741 87.7346 155.441 87.6119 155.196 87.3665C154.95 87.1212 154.828 86.8213 154.828 86.4669C154.828 86.1124 154.95 85.8125 155.196 85.5672C155.441 85.3218 155.741 85.1991 156.095 85.1991C156.436 85.1991 156.722 85.3218 156.954 85.5672C157.2 85.8125 157.322 86.1124 157.322 86.4669C157.322 86.8213 157.2 87.1212 156.954 87.3665C156.722 87.6119 156.436 87.7346 156.095 87.7346ZM160.388 87.7346C160.034 87.7346 159.734 87.6119 159.489 87.3665C159.243 87.1212 159.121 86.8213 159.121 86.4669C159.121 86.1124 159.243 85.8125 159.489 85.5672C159.734 85.3218 160.034 85.1991 160.388 85.1991C160.729 85.1991 161.016 85.3218 161.247 85.5672C161.493 85.8125 161.615 86.1124 161.615 86.4669C161.615 86.8213 161.493 87.1212 161.247 87.3665C161.016 87.6119 160.729 87.7346 160.388 87.7346ZM164.682 87.7346C164.327 87.7346 164.027 87.6119 163.782 87.3665C163.537 87.1212 163.414 86.8213 163.414 86.4669C163.414 86.1124 163.537 85.8125 163.782 85.5672C164.027 85.3218 164.327 85.1991 164.682 85.1991C165.022 85.1991 165.309 85.3218 165.54 85.5672C165.786 85.8125 165.908 86.1124 165.908 86.4669C165.908 86.8213 165.786 87.1212 165.54 87.3665C165.309 87.6119 165.022 87.7346 164.682 87.7346ZM168.975 87.7346C168.62 87.7346 168.32 87.6119 168.075 87.3665C167.83 87.1212 167.707 86.8213 167.707 86.4669C167.707 86.1124 167.83 85.8125 168.075 85.5672C168.32 85.3218 168.62 85.1991 168.975 85.1991C169.315 85.1991 169.602 85.3218 169.833 85.5672C170.079 85.8125 170.201 86.1124 170.201 86.4669C170.201 86.8213 170.079 87.1212 169.833 87.3665C169.602 87.6119 169.315 87.7346 168.975 87.7346ZM173.268 87.7346C172.913 87.7346 172.613 87.6119 172.368 87.3665C172.123 87.1212 172 86.8213 172 86.4669C172 86.1124 172.123 85.8125 172.368 85.5672C172.613 85.3218 172.913 85.1991 173.268 85.1991C173.608 85.1991 173.895 85.3218 174.126 85.5672C174.372 85.8125 174.494 86.1124 174.494 86.4669C174.494 86.8213 174.372 87.1212 174.126 87.3665C173.895 87.6119 173.608 87.7346 173.268 87.7346ZM177.561 87.7346C177.206 87.7346 176.906 87.6119 176.661 87.3665C176.416 87.1212 176.293 86.8213 176.293 86.4669C176.293 86.1124 176.416 85.8125 176.661 85.5672C176.906 85.3218 177.206 85.1991 177.561 85.1991C177.901 85.1991 178.188 85.3218 178.419 85.5672C178.665 85.8125 178.788 86.1124 178.788 86.4669C178.788 86.8213 178.665 87.1212 178.419 87.3665C178.188 87.6119 177.901 87.7346 177.561 87.7346ZM181.854 87.7346C181.499 87.7346 181.199 87.6119 180.954 87.3665C180.709 87.1212 180.586 86.8213 180.586 86.4669C180.586 86.1124 180.709 85.8125 180.954 85.5672C181.199 85.3218 181.499 85.1991 181.854 85.1991C182.195 85.1991 182.481 85.3218 182.713 85.5672C182.958 85.8125 183.081 86.1124 183.081 86.4669C183.081 86.8213 182.958 87.1212 182.713 87.3665C182.481 87.6119 182.195 87.7346 181.854 87.7346Z" fill="#0000FF"/>
<defs>
<filter id="filter0_f_234_164" x="45.8" y="211.8" width="213.4" height="32.4" filterUnits="userSpaceOnUse" color-interpolation-filters="sRGB">
<feFlood flood-opacity="0" result="BackgroundImageFix"/>
<feBlend mode="normal" in="SourceGraphic" in2="BackgroundImageFix" result="shape"/>
<feGaussianBlur stdDeviation="6.1" result="effect1_foregroundBlur_234_164"/>
</filter>
<clipPath id="clip0_234_164">
<rect width="306" height="306" fill="white"/>
</clipPath>
<clipPath id="clip1_234_164">
<rect width="186" height="165.279" fill="white" transform="translate(59 58.7208)"/>
</clipPath>
</defs>
</svg>
