<svg width="190" height="125" viewBox="0 0 190 125" fill="none" xmlns="http://www.w3.org/2000/svg">
<path d="M97.3048 59.16C97.3315 59.64 97.3982 60.1333 97.5048 60.64C97.6382 61.1467 97.7982 61.6 97.9848 62C97.8782 62.1067 97.5982 62.2933 97.1448 62.56C96.6915 62.8267 96.1448 63.0667 95.5048 63.28C94.8648 63.4933 94.1848 63.5733 93.4648 63.52C92.4248 63.44 91.5582 63.0133 90.8648 62.24C90.1982 61.44 89.8648 60.4267 89.8648 59.2C89.8382 58.9333 89.8248 58.6533 89.8248 58.36C89.8248 58.0667 89.8248 57.6933 89.8248 57.24C89.8515 56.0667 89.6115 55.0533 89.1048 54.2C88.5982 53.32 87.9182 52.6533 87.0648 52.2C86.2115 51.72 85.2782 51.48 84.2648 51.48C82.7982 51.48 81.5315 51.92 80.4648 52.8C79.4248 53.68 78.8515 54.96 78.7448 56.64C78.7448 56.88 78.7582 57.3333 78.7848 58C78.8382 58.6667 78.9048 59.3333 78.9848 60C79.0648 60.6667 79.1448 61.1467 79.2248 61.44C78.9315 61.76 78.4915 62.0933 77.9048 62.44C77.3182 62.76 76.7048 63.0133 76.0648 63.2C75.4248 63.3867 74.8648 63.44 74.3848 63.36C73.6648 63.2267 72.9715 62.7467 72.3048 61.92C71.6382 61.0933 71.2915 60.0667 71.2648 58.84C71.2648 58.6 71.2515 57.9333 71.2248 56.84C71.2248 55.72 71.2115 54.3333 71.1848 52.68C71.1848 51.0267 71.1715 49.2533 71.1448 47.36C71.1448 45.44 71.1315 43.5467 71.1048 41.68C71.1048 39.8133 71.0915 38.1067 71.0648 36.56C71.0648 35.0133 71.0648 33.7733 71.0648 32.84C71.0648 31.9067 71.0648 31.44 71.0648 31.44C71.3582 31.3867 71.8648 31.3733 72.5848 31.4C73.3315 31.4267 74.1182 31.5467 74.9448 31.76C75.8515 31.9733 76.6782 32.3333 77.4248 32.84C78.1715 33.3467 78.5982 34.08 78.7048 35.04C78.7582 35.4933 78.7982 35.9867 78.8248 36.52C78.8515 37.0533 78.8648 37.52 78.8648 37.92C78.8648 38.2933 78.8648 38.48 78.8648 38.48C78.8648 39.52 79.1048 40.4933 79.5848 41.4C80.0648 42.28 80.7182 42.9733 81.5448 43.48C82.3982 43.9867 83.3182 44.2267 84.3048 44.2C85.7182 44.1467 86.8115 43.6933 87.5848 42.84C88.3582 41.9867 88.9315 40.7467 89.3048 39.12C89.4115 38.6667 89.4915 38.0267 89.5448 37.2C89.5982 36.3467 89.6248 35.48 89.6248 34.6C89.6515 33.72 89.6648 32.9733 89.6648 32.36C89.6648 31.7467 89.6648 31.44 89.6648 31.44C89.9582 31.3867 90.4382 31.3733 91.1048 31.4C91.7715 31.4267 92.4782 31.52 93.2248 31.68C94.1582 31.8667 95.0382 32.2267 95.8648 32.76C96.7182 33.2667 97.1982 34.0267 97.3048 35.04C97.3582 35.5467 97.3982 36.36 97.4248 37.48C97.4515 38.6 97.4515 39.9067 97.4248 41.4C97.4248 42.8667 97.4115 44.44 97.3848 46.12C97.3582 47.7733 97.3315 49.4267 97.3048 51.08C97.2782 52.7067 97.2648 54.2267 97.2648 55.64C97.2648 57.0267 97.2782 58.2 97.3048 59.16ZM123.262 55.76C123.289 56.3467 123.329 57.0667 123.382 57.92C123.462 58.7733 123.635 59.6 123.902 60.4C124.169 61.2 124.595 61.84 125.182 62.32C124.515 62.7733 123.835 63.0933 123.142 63.28C122.449 63.4933 121.769 63.5467 121.102 63.44C120.915 63.3867 120.715 63.32 120.502 63.24C120.289 63.1867 119.995 63.1067 119.622 63C119.009 62.8133 118.289 62.7733 117.462 62.88C116.635 62.9867 115.769 63.12 114.862 63.28C113.982 63.4667 113.115 63.56 112.262 63.56C110.875 63.56 109.489 63.32 108.102 62.84C106.715 62.3333 105.462 61.56 104.342 60.52C103.222 59.48 102.369 58.16 101.782 56.56C101.195 54.96 101.022 53.04 101.262 50.8C101.422 49.2533 101.862 47.84 102.582 46.56C103.302 45.2533 104.182 44.1333 105.222 43.2C106.289 42.24 107.409 41.5067 108.582 41C109.782 40.4667 110.942 40.2133 112.062 40.24C112.915 40.2667 113.569 40.2933 114.022 40.32C114.502 40.3467 115.115 40.4133 115.862 40.52C116.315 40.5733 116.889 40.5067 117.582 40.32C118.275 40.1333 118.969 39.9333 119.662 39.72C120.382 39.48 120.995 39.36 121.502 39.36C122.275 39.3333 122.822 39.36 123.142 39.44C123.462 39.4933 123.729 39.5467 123.942 39.6C123.782 40.08 123.649 40.8 123.542 41.76C123.435 42.72 123.355 43.8133 123.302 45.04C123.275 46.24 123.249 47.4933 123.222 48.8C123.195 50.1067 123.182 51.36 123.182 52.56C123.209 53.76 123.235 54.8267 123.262 55.76ZM108.222 52.08C108.275 53.4133 108.515 54.4533 108.942 55.2C109.395 55.92 109.929 56.4267 110.542 56.72C111.182 57.0133 111.795 57.16 112.382 57.16C113.555 57.1867 114.422 56.7333 114.982 55.8C115.542 54.8667 115.809 53.5733 115.782 51.92C115.782 51.4667 115.729 50.9333 115.622 50.32C115.542 49.7067 115.382 49.1067 115.142 48.52C114.929 47.9333 114.622 47.44 114.222 47.04C113.849 46.64 113.355 46.44 112.742 46.44C111.515 46.44 110.435 46.8933 109.502 47.8C108.595 48.7067 108.169 50.1333 108.222 52.08ZM150.49 50.8C150.73 53.04 150.556 54.96 149.97 56.56C149.383 58.16 148.53 59.48 147.41 60.52C146.29 61.56 145.036 62.3333 143.65 62.84C142.263 63.32 140.876 63.56 139.49 63.56C138.85 63.56 138.063 63.4933 137.13 63.36C136.223 63.2267 135.396 63.28 134.65 63.52C134.41 63.6 134.183 63.6667 133.97 63.72C133.756 63.7733 133.476 63.7867 133.13 63.76C132.81 63.7333 132.396 63.5867 131.89 63.32C131.383 63.0533 130.903 62.6667 130.45 62.16C129.996 61.6267 129.676 61 129.49 60.28C129.276 59.48 129.09 58.3867 128.93 57C128.796 55.5867 128.69 54.0133 128.61 52.28C128.53 50.5467 128.476 48.76 128.45 46.92C128.423 45.0533 128.396 43.24 128.37 41.48C128.37 39.6933 128.37 38.08 128.37 36.64C128.396 35.2 128.41 34.0267 128.41 33.12C128.41 32.1867 128.396 31.64 128.37 31.48C128.77 31.4 129.356 31.3867 130.13 31.44C130.93 31.4667 131.756 31.6 132.61 31.84C133.463 32.0533 134.223 32.4267 134.89 32.96C135.556 33.4667 135.97 34.1733 136.13 35.08C136.263 35.96 136.37 36.8133 136.45 37.64C136.556 38.44 136.903 39.0267 137.49 39.4C137.703 39.5333 137.996 39.64 138.37 39.72C138.77 39.7733 139.183 39.8133 139.61 39.84C141.556 39.8667 143.303 40.3733 144.85 41.36C146.423 42.32 147.703 43.6267 148.69 45.28C149.676 46.9067 150.276 48.7467 150.49 50.8ZM139.93 57.52C140.863 57.4933 141.61 57.2267 142.17 56.72C142.756 56.1867 143.183 55.52 143.45 54.72C143.716 53.92 143.85 53.1067 143.85 52.28C143.85 51.4267 143.756 50.5733 143.57 49.72C143.383 48.84 143.023 48.1067 142.49 47.52C141.983 46.9067 141.25 46.6 140.29 46.6C139.516 46.6 138.85 46.88 138.29 47.44C137.73 47.9733 137.303 48.6533 137.01 49.48C136.716 50.28 136.556 51.0667 136.53 51.84C136.503 52.5867 136.61 53.4133 136.85 54.32C137.09 55.2 137.463 55.96 137.97 56.6C138.503 57.2133 139.156 57.52 139.93 57.52ZM158.24 39.2C157.333 39.2267 156.52 38.9733 155.8 38.44C155.107 37.9067 154.573 37.2533 154.2 36.48C153.853 35.68 153.72 34.92 153.8 34.2C153.933 33.1067 154.427 32.3333 155.28 31.88C156.133 31.4267 157.027 31.1867 157.96 31.16C159.293 31.1067 160.333 31.4533 161.08 32.2C161.827 32.9467 162.2 33.8 162.2 34.76C162.2 35.4 162.053 36.0533 161.76 36.72C161.493 37.3867 161.067 37.96 160.48 38.44C159.893 38.8933 159.147 39.1467 158.24 39.2ZM162.48 58.96C162.507 59.44 162.653 59.8533 162.92 60.2C163.213 60.52 163.56 60.8267 163.96 61.12C163.773 61.36 163.533 61.6133 163.24 61.88C162.947 62.1467 162.507 62.4 161.92 62.64C161.36 62.8533 160.547 63.0267 159.48 63.16C159.133 63.1867 158.693 63.1467 158.16 63.04C157.627 62.96 157.093 62.7067 156.56 62.28C156.053 61.8267 155.64 61.12 155.32 60.16C155 59.1733 154.867 57.8267 154.92 56.12C154.947 55.8267 154.947 55.2533 154.92 54.4C154.92 53.5467 154.907 52.5333 154.88 51.36C154.88 50.1867 154.867 48.9733 154.84 47.72C154.84 46.4667 154.827 45.3067 154.8 44.24C154.8 43.1467 154.787 42.2667 154.76 41.6C154.76 40.9067 154.76 40.56 154.76 40.56C155 40.5333 155.4 40.5067 155.96 40.48C156.547 40.4267 157.187 40.4267 157.88 40.48C158.573 40.5333 159.24 40.6667 159.88 40.88C160.547 41.0667 161.107 41.3733 161.56 41.8C162.04 42.2267 162.32 42.8 162.4 43.52C162.533 44.5333 162.587 45.8933 162.56 47.6C162.533 49.28 162.493 51.12 162.44 53.12C162.387 55.0933 162.4 57.04 162.48 58.96ZM184.159 40.8C184.425 41.0667 184.625 41.56 184.759 42.28C184.919 42.9733 184.959 43.7467 184.879 44.6C184.825 45.4267 184.625 46.1867 184.279 46.88C183.959 47.5467 183.465 48 182.799 48.24C181.759 48.6133 180.999 49.28 180.519 50.24C180.039 51.2 179.759 52.4133 179.679 53.88V57.28C179.732 57.7067 179.905 58.0533 180.199 58.32C180.519 58.5867 180.825 58.7733 181.119 58.88C181.439 58.9867 181.599 59.04 181.599 59.04C181.599 59.04 181.545 59.2267 181.439 59.6C181.359 59.9733 181.199 60.4133 180.959 60.92C180.719 61.4267 180.372 61.92 179.919 62.4C179.465 62.8533 178.879 63.1733 178.159 63.36C177.785 63.44 177.279 63.4533 176.639 63.4C176.025 63.3733 175.399 63.2533 174.759 63.04C174.119 62.8267 173.585 62.5333 173.159 62.16C172.919 61.9467 172.719 61.72 172.559 61.48C172.399 61.24 172.279 60.88 172.199 60.4C172.145 59.92 172.119 59.24 172.119 58.36V54.08C172.092 52.5333 171.759 51.2533 171.119 50.24C170.479 49.2 169.639 48.3067 168.599 47.56C168.119 47.2133 167.772 46.6533 167.559 45.88C167.372 45.08 167.252 44.24 167.199 43.36C167.145 42.48 167.132 41.7333 167.159 41.12C167.292 41.1467 167.652 41.2 168.239 41.28C168.825 41.36 169.332 41.4 169.759 41.4C170.612 41.3733 171.199 41.04 171.519 40.4C171.839 39.76 171.999 38.96 171.999 38L171.959 34.44C172.199 34.4133 172.599 34.3867 173.159 34.36C173.745 34.3067 174.385 34.3067 175.079 34.36C175.772 34.4133 176.439 34.5467 177.079 34.76C177.745 34.9467 178.305 35.2533 178.759 35.68C179.239 36.1067 179.519 36.68 179.599 37.4C179.599 37.48 179.599 37.5867 179.599 37.72C179.625 37.8267 179.639 37.96 179.639 38.12H179.679C179.679 38.4667 179.719 38.88 179.799 39.36C179.905 39.84 180.052 40.24 180.239 40.56C180.425 40.8267 180.719 41.0267 181.119 41.16C181.519 41.2667 181.905 41.3333 182.279 41.36C182.679 41.36 182.972 41.3333 183.159 41.28C183.452 41.2 183.665 41.1333 183.799 41.08C183.932 41 184.052 40.9067 184.159 40.8Z" fill="white"/>
<path d="M79.7125 68.96C81.2858 68.96 82.7925 69.24 84.2325 69.8C85.6992 70.3333 86.9258 71.0533 87.9125 71.96C88.9258 72.8667 89.5258 73.84 89.7125 74.88C89.8458 75.5733 89.7525 76.3467 89.4325 77.2C89.1125 78.0267 88.6058 78.76 87.9125 79.4C87.2192 80.0133 86.3792 80.3467 85.3925 80.4C85.0458 80.4 84.6058 80.36 84.0725 80.28C83.5392 80.2 83.0192 80.04 82.5125 79.8C82.0325 79.56 81.6458 79.2133 81.3525 78.76C81.7525 78.5467 82.0192 78.32 82.1525 78.08C82.2858 77.84 82.3258 77.6 82.2725 77.36C82.1658 76.8267 81.8458 76.3867 81.3125 76.04C80.8058 75.6933 80.1792 75.48 79.4325 75.4C79.0058 75.3467 78.5125 75.36 77.9525 75.44C77.3925 75.4933 76.8725 75.68 76.3925 76C75.9392 76.2933 75.6192 76.7867 75.4325 77.48C75.3258 77.88 75.3392 78.32 75.4725 78.8C75.6325 79.2533 76.0058 79.6933 76.5925 80.12C77.1792 80.52 78.0725 80.8667 79.2725 81.16C81.1125 81.5867 82.8192 82.0533 84.3925 82.56C85.9925 83.0667 87.3925 83.6933 88.5925 84.44C89.7925 85.1867 90.7125 86.12 91.3525 87.24C92.0192 88.3333 92.3258 89.7067 92.2725 91.36C92.2458 92.4533 91.9525 93.6 91.3925 94.8C90.8325 96 90.0192 97.12 88.9525 98.16C87.8858 99.1733 86.5792 100 85.0325 100.64C83.4858 101.28 81.7258 101.6 79.7525 101.6C78.4992 101.6 77.2058 101.493 75.8725 101.28C74.5392 101.067 73.2725 100.733 72.0725 100.28C70.8992 99.8267 69.8592 99.2267 68.9525 98.48C68.1525 97.7867 67.5792 96.92 67.2325 95.88C66.9125 94.84 66.8458 93.8 67.0325 92.76C67.2192 91.6933 67.6858 90.7867 68.4325 90.04C69.2058 89.2933 70.2725 88.88 71.6325 88.8C71.3658 89.6 71.5125 90.3867 72.0725 91.16C72.6592 91.9067 73.5258 92.5467 74.6725 93.08C75.8192 93.5867 77.0725 93.8933 78.4325 94C79.8458 94.1067 81.0725 94.0533 82.1125 93.84C83.1792 93.6267 83.7658 93.1867 83.8725 92.52C84.0058 91.72 83.8458 91.08 83.3925 90.6C82.9392 90.12 82.3125 89.76 81.5125 89.52C80.7125 89.2533 79.8458 89.04 78.9125 88.88C77.9792 88.6933 77.1125 88.5067 76.3125 88.32C75.2458 88.0267 74.1658 87.6533 73.0725 87.2C72.0058 86.72 71.0192 86.12 70.1125 85.4C69.2325 84.68 68.5125 83.8 67.9525 82.76C67.3925 81.72 67.0992 80.5067 67.0725 79.12C67.0458 77.4933 67.3792 76.0533 68.0725 74.8C68.7658 73.52 69.7125 72.4533 70.9125 71.6C72.1125 70.72 73.4725 70.0667 74.9925 69.64C76.5392 69.1867 78.1125 68.96 79.7125 68.96ZM117.107 95.92C117.134 96.4 117.214 96.9067 117.347 97.44C117.507 97.9467 117.881 98.32 118.467 98.56C118.121 99.0133 117.507 99.52 116.627 100.08C115.747 100.613 114.801 100.96 113.787 101.12C112.854 101.253 112.067 101.147 111.427 100.8C110.814 100.427 110.347 99.8933 110.027 99.2C109.734 98.5067 109.574 97.76 109.547 96.96C109.547 96.7467 109.561 96.3067 109.587 95.64C109.614 94.9467 109.627 94.16 109.627 93.28C109.627 92.4 109.614 91.56 109.587 90.76C109.587 89.96 109.547 89.3333 109.467 88.88C109.307 88 108.987 87.5067 108.507 87.4C108.054 87.2667 107.534 87.3733 106.947 87.72C106.014 88.2533 105.241 89.2 104.627 90.56C104.041 91.8933 103.734 93.6 103.707 95.68C103.681 96.5067 103.787 97.1067 104.027 97.48C104.267 97.8267 104.387 98 104.387 98C104.387 98 104.254 98.2267 103.987 98.68C103.721 99.1333 103.241 99.6267 102.547 100.16C101.854 100.667 100.841 101.027 99.5072 101.24C98.7605 101.347 98.1472 101.213 97.6672 100.84C97.1872 100.44 96.8405 99.88 96.6272 99.16C96.4139 98.44 96.2939 97.68 96.2672 96.88L96.1472 73.64C96.1205 72.5467 96.0005 71.5867 95.7872 70.76C95.5739 69.9067 95.4672 69.48 95.4672 69.48C96.1339 69.4 96.9072 69.3733 97.7872 69.4C98.6939 69.4267 99.5739 69.56 100.427 69.8C101.307 70.0133 102.054 70.3867 102.667 70.92C103.281 71.4533 103.641 72.1733 103.747 73.08C103.774 73.2667 103.801 73.6267 103.827 74.16C103.881 74.6667 103.907 75.1867 103.907 75.72C103.881 76.4667 103.987 77.0933 104.227 77.6C104.467 78.1067 104.787 78.4933 105.187 78.76C105.641 79.0267 106.214 79.12 106.907 79.04C107.601 78.9333 108.214 78.7867 108.747 78.6C109.281 78.3867 109.721 78.2267 110.067 78.12C110.441 78.0133 110.827 77.9333 111.227 77.88C111.681 77.8267 112.214 77.8533 112.827 77.96C113.441 78.04 114.041 78.24 114.627 78.56C115.241 78.88 115.761 79.3333 116.187 79.92C116.641 80.5067 116.921 81.2533 117.027 82.16C117.214 83.7067 117.254 85.6 117.147 87.84C117.067 90.0533 117.054 92.7467 117.107 95.92ZM142.977 93.76C143.004 94.3467 143.044 95.0667 143.097 95.92C143.177 96.7733 143.35 97.6 143.617 98.4C143.884 99.2 144.31 99.84 144.897 100.32C144.23 100.773 143.55 101.093 142.857 101.28C142.164 101.493 141.484 101.547 140.817 101.44C140.63 101.387 140.43 101.32 140.217 101.24C140.004 101.187 139.71 101.107 139.337 101C138.724 100.813 138.004 100.773 137.177 100.88C136.35 100.987 135.484 101.12 134.577 101.28C133.697 101.467 132.83 101.56 131.977 101.56C130.59 101.56 129.204 101.32 127.817 100.84C126.43 100.333 125.177 99.56 124.057 98.52C122.937 97.48 122.084 96.16 121.497 94.56C120.91 92.96 120.737 91.04 120.977 88.8C121.137 87.2533 121.577 85.84 122.297 84.56C123.017 83.2533 123.897 82.1333 124.937 81.2C126.004 80.24 127.124 79.5067 128.297 79C129.497 78.4667 130.657 78.2133 131.777 78.24C132.63 78.2667 133.284 78.2933 133.737 78.32C134.217 78.3467 134.83 78.4133 135.577 78.52C136.03 78.5733 136.604 78.5067 137.297 78.32C137.99 78.1333 138.684 77.9333 139.377 77.72C140.097 77.48 140.71 77.36 141.217 77.36C141.99 77.3333 142.537 77.36 142.857 77.44C143.177 77.4933 143.444 77.5467 143.657 77.6C143.497 78.08 143.364 78.8 143.257 79.76C143.15 80.72 143.07 81.8133 143.017 83.04C142.99 84.24 142.964 85.4933 142.937 86.8C142.91 88.1067 142.897 89.36 142.897 90.56C142.924 91.76 142.95 92.8267 142.977 93.76ZM127.937 90.08C127.99 91.4133 128.23 92.4533 128.657 93.2C129.11 93.92 129.644 94.4267 130.257 94.72C130.897 95.0133 131.51 95.16 132.097 95.16C133.27 95.1867 134.137 94.7333 134.697 93.8C135.257 92.8667 135.524 91.5733 135.497 89.92C135.497 89.4667 135.444 88.9333 135.337 88.32C135.257 87.7067 135.097 87.1067 134.857 86.52C134.644 85.9333 134.337 85.44 133.937 85.04C133.564 84.64 133.07 84.44 132.457 84.44C131.23 84.44 130.15 84.8933 129.217 85.8C128.31 86.7067 127.884 88.1333 127.937 90.08ZM160.924 77.84C161.458 77.7067 161.951 77.84 162.404 78.24C162.858 78.64 163.258 79.1867 163.604 79.88C163.978 80.5467 164.284 81.24 164.524 81.96C164.764 82.6533 164.951 83.24 165.084 83.72C165.218 84.2 165.284 84.44 165.284 84.44C165.284 84.44 164.964 84.5067 164.324 84.64C163.711 84.7467 162.938 84.9733 162.004 85.32C161.098 85.64 160.191 86.1333 159.284 86.8C158.751 87.2 158.244 87.68 157.764 88.24C157.284 88.8 156.871 89.52 156.524 90.4C156.178 91.2533 155.924 92.3867 155.764 93.8C155.684 94.52 155.671 95.2667 155.724 96.04C155.778 96.8133 155.804 97.4667 155.804 98C155.831 98.48 155.898 98.8267 156.004 99.04C156.138 99.2267 156.244 99.3867 156.324 99.52C155.978 99.84 155.338 100.2 154.404 100.6C153.498 100.973 152.498 101.16 151.404 101.16C150.338 101.16 149.551 100.813 149.044 100.12C148.538 99.4267 148.284 98.4667 148.284 97.24C148.284 96.9467 148.271 96.3067 148.244 95.32C148.244 94.3067 148.231 93.0933 148.204 91.68C148.204 90.2667 148.191 88.8 148.164 87.28C148.164 85.76 148.151 84.3467 148.124 83.04C148.124 81.7067 148.111 80.6267 148.084 79.8C148.084 78.9733 148.084 78.56 148.084 78.56C148.351 78.5067 148.804 78.4667 149.444 78.44C150.111 78.4133 150.831 78.44 151.604 78.52C152.378 78.6 153.098 78.7867 153.764 79.08C154.084 79.2133 154.511 79.3467 155.044 79.48C155.604 79.5867 156.138 79.64 156.644 79.64C157.178 79.64 157.564 79.56 157.804 79.4C158.311 79.0267 158.818 78.7067 159.324 78.44C159.858 78.1733 160.391 77.9733 160.924 77.84ZM186.643 90.96C187.309 91.4133 187.736 92.0667 187.923 92.92C188.136 93.7467 188.109 94.6533 187.843 95.64C187.603 96.6267 187.109 97.5733 186.363 98.48C185.616 99.36 184.603 100.093 183.323 100.68C182.069 101.267 180.549 101.573 178.763 101.6C177.269 101.627 175.803 101.44 174.363 101.04C172.949 100.64 171.656 100.027 170.483 99.2C169.336 98.3733 168.403 97.3067 167.683 96C166.963 94.6933 166.563 93.1333 166.483 91.32C166.456 90.9467 166.456 90.56 166.483 90.16C166.509 89.76 166.536 89.3467 166.563 88.92C166.563 88.8133 166.563 88.7067 166.563 88.6C166.589 88.4933 166.616 88.3867 166.643 88.28C166.909 86.68 167.456 85.2133 168.283 83.88C169.136 82.5467 170.176 81.4133 171.403 80.48C172.629 79.5467 173.936 78.8667 175.323 78.44C176.736 77.9867 178.123 77.8267 179.483 77.96C181.589 78.1733 183.216 78.7333 184.363 79.64C185.536 80.5467 186.296 81.6667 186.643 83C187.016 84.3067 187.029 85.72 186.683 87.24C186.496 87.9867 186.069 88.7333 185.403 89.48C184.763 90.2 183.963 90.8533 183.003 91.44C182.043 92 181.016 92.44 179.923 92.76C178.856 93.0533 177.816 93.1733 176.803 93.12C176.296 93.0933 176.029 93.2533 176.003 93.6C175.976 93.92 176.123 94.28 176.443 94.68C176.763 95.0533 177.189 95.3067 177.723 95.44C178.976 95.7067 180.149 95.72 181.243 95.48C182.363 95.2133 183.216 94.8533 183.803 94.4C184.283 94.0267 184.789 93.5333 185.323 92.92C185.856 92.28 186.296 91.6267 186.643 90.96ZM177.883 86.92C178.496 86.8667 179.029 86.68 179.483 86.36C179.963 86.0133 180.203 85.6533 180.203 85.28C180.229 84.7467 180.096 84.32 179.803 84C179.536 83.6533 179.069 83.4933 178.403 83.52C177.656 83.5467 176.936 83.6533 176.243 83.84C175.549 84.0267 175.136 84.4133 175.003 85C174.923 85.4 175.043 85.7467 175.363 86.04C175.683 86.3333 176.083 86.56 176.563 86.72C177.043 86.8533 177.483 86.92 177.883 86.92Z" fill="white"/>
<path d="M60.0817 91.7134C60.1393 92.7493 60.2832 93.8139 60.5133 94.9072C60.8011 96.0006 61.1463 96.9789 61.5492 97.842C61.319 98.0722 60.7147 98.475 59.7365 99.0505C58.7582 99.626 57.5785 100.144 56.1974 100.604C54.8163 101.065 53.3489 101.237 51.7952 101.122C49.5509 100.95 47.6807 100.029 46.1845 98.36C44.7459 96.6336 44.0265 94.4469 44.0265 91.7998C43.969 91.2243 43.9402 90.6201 43.9402 89.9871C43.9402 89.3541 43.9402 88.5484 43.9402 87.5702C43.9978 85.0382 43.4799 82.8514 42.3865 81.01C41.2931 79.111 39.8257 77.6723 37.9843 76.694C36.1428 75.6582 34.1287 75.1403 31.942 75.1403C28.777 75.1403 26.0435 76.0898 23.7417 77.9888C21.4974 79.8878 20.2602 82.65 20.03 86.2754C20.03 86.7933 20.0588 87.7716 20.1164 89.2102C20.2314 90.6488 20.3753 92.0875 20.5479 93.5261C20.7206 94.9648 20.8932 96.0006 21.0659 96.6336C20.4329 97.3241 19.4834 98.0435 18.2174 98.7915C16.9513 99.4821 15.6278 100.029 14.2467 100.432C12.8656 100.834 11.6572 100.95 10.6213 100.777C9.06761 100.489 7.57142 99.4533 6.13278 97.6694C4.69414 95.8855 3.94605 93.67 3.88851 91.0229C3.88851 90.505 3.85973 89.0663 3.80219 86.707C3.80219 84.2901 3.77342 81.2977 3.71587 77.7299C3.71587 74.162 3.6871 70.3353 3.62955 66.2495C3.62955 62.1062 3.60078 58.0205 3.54323 53.9923C3.54323 49.9641 3.51446 46.2812 3.45691 42.9436C3.45691 39.6059 3.45691 36.9301 3.45691 34.916C3.45691 32.9019 3.45691 31.8948 3.45691 31.8948C4.08992 31.7797 5.18328 31.751 6.73701 31.8085C8.34829 31.8661 10.0459 32.125 11.8298 32.5854C13.7863 33.0457 15.5703 33.8226 17.1815 34.916C18.7928 36.0093 19.7135 37.5918 19.9437 39.6635C20.0588 40.6418 20.1451 41.7063 20.2027 42.8573C20.2602 44.0082 20.289 45.0152 20.289 45.8784C20.289 46.684 20.289 47.0869 20.289 47.0869C20.289 49.3311 20.8069 51.4315 21.8427 53.3881C22.8785 55.2871 24.2884 56.7833 26.0723 57.8766C27.9138 58.97 29.8991 59.4879 32.0283 59.4304C35.0782 59.3153 37.4376 58.337 39.1064 56.4956C40.7752 54.6541 42.0124 51.9782 42.8181 48.468C43.0483 47.4897 43.2209 46.1086 43.336 44.3247C43.4511 42.4832 43.5086 40.613 43.5086 38.714C43.5662 36.815 43.5949 35.2037 43.5949 33.8802C43.5949 32.5566 43.5949 31.8948 43.5949 31.8948C44.2279 31.7797 45.2638 31.751 46.7024 31.8085C48.141 31.8661 49.666 32.0675 51.2773 32.4127C53.2914 32.8156 55.1904 33.5924 56.9743 34.7433C58.8157 35.8367 59.8516 37.4767 60.0817 39.6635C60.1968 40.7568 60.2832 42.512 60.3407 44.9289C60.3982 47.3458 60.3982 50.1655 60.3407 53.3881C60.3407 56.5531 60.3119 59.9483 60.2544 63.5737C60.1968 67.1415 60.1393 70.7093 60.0817 74.2771C60.0242 77.7874 59.9954 81.0675 59.9954 84.1174C59.9954 87.1098 60.0242 89.6418 60.0817 91.7134Z" fill="white"/>
<rect x="21.085" y="69.3923" width="33.2277" height="7.49603" transform="rotate(-43.6211 21.085 69.3923)" fill="#FF0000"/>
<rect x="24.6108" y="63.9113" width="32.5627" height="7.49603" transform="rotate(36.5398 24.6108 63.9113)" fill="#FF0000"/>
<circle cx="44.51" cy="51.7303" r="7.49603" fill="#FF0000" stroke="white" stroke-width="1.87401"/>
<circle cx="20.1479" cy="69.5334" r="7.49603" fill="#FF0000" stroke="white" stroke-width="1.87401"/>
<circle cx="44.51" cy="82.6514" r="7.49603" fill="#FF0000" stroke="white" stroke-width="1.87401"/>
</svg>
